<svg viewBox="0 0 512 512" xmlns="http://www.w3.org/2000/svg">
  <g>
    <path
      d="M77.04505476764886 2.69409783865963 C160.16945185713976 5.4019227304856985, 234.4895234744412 10.045850607886408, 439.2613914180036 -2.1016702486240897 C475.4403191661068 7.4428571119144085, 514.6313120620048 29.35256605991544, 512.1573581205253 69.25385894771065 C511.25767293304875 196.909908947158, 508.2119497914264 311.77980810561456, 509.32626539053484 430.58960579591246 C506.4845010363929 481.9174843017324, 476.3284321384541 510.730581750598, 434.93275864780185 512.6160590344971 C364.4311319806526 514.8175350871824, 289.91964736636857 511.3711802204183, 78.33736587052324 513.7529884917358 C31.560844310096453 516.4344403319283, -6.1620728669023865 473.30311823288093, -5.013322223524338 439.10989895419004 C7.817194312828663 312.3563974388724, 9.036733356546726 181.2972993485682, -4.071067439688106 77.96575789516824 C-5.485628661885223 38.592430806080905, 38.87480578343875 -6.858109657835243, 70.04588450022209 1.4971730928982412"
      stroke="none"
      stroke-width="0"
      fill="#113228"></path>
    <path
      d="M79.20150527602331 1.1209423912662506 C167.10964787892223 -5.737876465233563, 249.3943461881233 -2.3543914700482405, 432.9046755142815 -0.21865464540491536 M77.16471976457858 0.3312493701297722 C183.66779910428758 2.029298511573963, 288.39113656487604 0.7479832013822285, 433.5112076803832 0.035460023368010615 M435.2 0 C476.78659602554217 -0.058491577228700534, 512.1680415739249 33.09216508768143, 516.6781622420266 76.6165613881885 M433.97429414987806 0.2679827436912179 C471.07706182086207 -3.9931340248837937, 511.7354192850204 28.519841750452997, 513.9090496079199 73.02602146602135 M508.90847951272343 80.0667224501938 C508.74184435774504 210.20792252648764, 505.9529537030471 337.41115906999903, 510.32003544233123 433.58785828584894 M512.0182104750854 76.87535256830729 C516.85367099164 207.816813939922, 516.1638012894454 336.9592338091223, 512.1176137177905 434.49487897279175 M512 435.2 C510.24257337879953 477.15646466565715, 472.5457908349094 512.6679014032067, 430.2044947986798 517.26702696179 M512.7333447228426 439.18387867488843 C505.6281576040964 477.8563100681721, 483.83082502301136 513.8224564060736, 435.2156511317861 514.8443293213315 M437.8880048520609 512.4229143979753 C349.1903583934781 513.481554355475, 259.9828596592169 514.9586713856816, 74.82554313424414 510.89543167961085 M436.1876946456129 512.7498411952978 C357.09881112595656 504.4065898272587, 282.42396039175384 503.69390118593276, 78.28146282893923 510.3264129523982 M76.8 512 C29.330843208277585 515.1719418392598, 4.461984206001207 476.18854716462465, 3.515462135000644 439.38139664356186 M82.04907348271168 516.1655211522785 C40.742842456902494 517.6600878337318, 5.934175217696525 483.64159450029956, -5.9096155381200255 434.5748512614345 M-1.6385422517820365 436.588684892266 C-9.986230719448136 328.2467891295318, -4.565850435673182 226.55927159368474, 0.24736066260388076 79.00831523007457 M0.5852570194018252 436.9229206414582 C-6.322605889502636 345.8422259496036, -4.689559211238901 256.1572960603545, 0.6379293513270468 75.5342373040917 M0 76.8 C-0.04012266866573797 38.36711441108843, 32.973003755501196 -3.6339160981139287, 78.14692113131423 4.28275598368833 M-4.618330037848885 71.63955466138783 C5.277358132111605 40.234629278468354, 29.082586445047067 -5.226979966326282, 75.6211419744219 6.474306309952137"
      stroke="#000"
      stroke-width="0"
      fill="none"></path>
  </g>
  <g>
    <path
      d="M223.63194793255337 102.41603506555224 L287.29524301192737 106.79061566728882 L280.7302166506351 361.487371674704 L227.24492264616762 360.7973041363527 L169.17574390949355 365.46625853987246 L141.16352137475388 352.04710699815996 L129.0188522716615 346.2787779665633 L126.67144585717217 332.55262551582274 L108.90562159156661 311.71159121412967 L105.36184732555967 296.04860129792223 L106.29570711408785 253.4258657038836 L125.92822770115501 216.16531661395322 L149.51580027763683 192.43691796187022 L183.74179194458367 185.5902460704729 L222.7539816647672 187.95218949272237 L224.2940958021704 99.08155920923662 M223.6085235864793 229.4846383354202 L206.7262027028201 224.71345239271432 L193.10087919739655 226.2904971007324 L179.09954350268563 238.95515345363253 L166.79433575581572 245.53279944705716 L161.92535323270593 268.451410168655 L159.98033956614407 287.3880343071134 L164.40720494967613 298.5606578770996 L183.9760364785858 311.0379121140688 L198.06226840481838 318.5128993578389 L230.3747911812123 314.37503266580836 L230.49646625054643 226.2892044582261 M376.1811749532051 188.12685051225347 L377.3758981323861 333.9755310160142 L365.30506781035797 372.89934357074526 L355.9083490675866 403.7920688576993 L343.0011710268664 418.01132774012467 L316.62265515211516 439.3967943804404 L260.6638811695325 414.3311316603325 L291.98485959824393 396.18103889864835 L302.9395609778806 377.3389682990273 L309.2840246786299 361.2968949801628 L320.10511943218495 310.1623322463356 L321.71928699643854 187.45792887518667 L372.98428479900866 191.28998276917022 M316.69707095798435 100.88293983517119 L375.28703242497477 104.2091786856426 L367.5690695814726 152.03301891907438 L319.25416311228895 163.57803516362696 L314.28868113978484 96.64100917335936"
      stroke="none"
      stroke-width="0"
      fill="#fff"></path>
    <path
      d="M223.0391577297817 106.11463460934017 C246.25698123085166 99.15042239252593, 261.2344457979298 104.45880460114338, 279.85166463834685 105.57724487309282 M228.25845874328186 103.16558965299213 C241.66293910014664 100.95706519563167, 255.16872932999493 102.82423315599233, 283.90457424945464 99.12705669073594 M285.81784321733 102.38365760841297 C288.71916590440986 160.2261861668057, 284.39288043619075 229.7909160635741, 283.0535492664965 354.3515124133561 M281.44098613824406 100.63052249641277 C285.82681958702074 166.26193214832648, 286.51919463923986 231.30602022776517, 281.33541699808416 360.25207561449196 M283 358 C255.28012044347642 363.14248292286754, 236.1475470403851 363.68742092618675, 207.35502129612584 369.77246029922577 M277.9609068889487 353.68136092114736 C253.06919103385601 362.6769993638096, 236.4116047464061 369.73644604752076, 216.07237714865272 367.4447958914834 M210 366 C146.51656561040076 367.1009565600429, 104.98339705511235 340.64363673332923, 101.67321112187814 270.3752116200258 M211.51881436798607 360.3278809133384 C142.0037685495707 368.2505773941677, 111.60152014512953 329.8956835733726, 106.44156171264922 282.34265478279644 M106 276 C100.07032821054688 219.86395625683426, 138.81061655267845 183.65696272330067, 200.28604929403375 184.56681755539358 M111.03655948388455 275.1811209393419 C101.59568027302818 224.57871859685585, 143.34276121634988 186.68820818792105, 196.5763607441157 185.71340481813624 M202 183 C214.32609796540157 185.01681795645288, 214.55804112949508 183.63437900008452, 224.22830537853596 185.1020283844098 M205.1928594058215 183.3910871842427 C217.27031766088936 180.98651669196647, 215.51677226445764 187.24759102425372, 221.88178750166313 180.84322504932442 M227.90290349864839 184.66354776316737 C222.68009740801364 157.49937290838145, 225.88082978939232 133.80860272433821, 225.5583358369088 95.05723536144212 M228.2842826925609 182.72452732180258 C222.8185151846004 159.86410520751906, 222.84286476876403 131.92381240969988, 227.78314027165243 103.53198994000059 M227 230 C225.91962575433124 226.3774065022274, 215.25260422164865 228.66530916576448, 212.78567696070004 224.56997195383053 M232.89907291852327 224.31973268397329 C222.67269011889587 225.02916806517393, 214.01187873178284 230.5536930233586, 204.19153488580466 220.9300476596008 M208 227 C184.34444406411706 228.95396085395296, 167.3948338390943 247.2154386370152, 158.73628979158383 280.65236298246083 M207.037929680099 224.70912105088496 C177.07275777386707 225.16312262788148, 163.92152175966996 242.7473784378266, 165.86370301619996 269.19049101244394 M163 275 C162.5275480390337 306.1713399898918, 176.4840565179099 322.6896520445229, 209.83830425684357 326.1153531499385 M162.63056399527414 269.15387564542976 C169.17999291302345 300.83442932107795, 172.80497413409861 316.7099243864491, 213.04633008478945 316.822531730078 M207 321 C215.94491532864183 316.65927769954607, 214.20747904459478 321.89252131881074, 221.55881663484826 321.3990371711939 M212.0997938858585 320.4822278649129 C216.2523664882847 323.84362629050236, 212.6695129824666 320.52763245279704, 224.39559834234714 319.8049925097596 M221.9115087275317 320.3757899747881 C227.25007261323896 297.36765848902485, 229.21880163096927 280.66799255471307, 227.81784229212462 231.5581121389534 M227.58656774883062 319.42314139052553 C229.13159001291547 296.21130624454486, 230.454086319051 266.5345243964725, 228.0403023845212 229.8426476926161 M377.54151838105 189.23005686007986 C377.29663086732677 225.24362044520726, 370.1251646367244 266.4899850470209, 373.81981036312453 316.1533613896389 M372.25061932946846 188.04434646034787 C373.52297123757324 218.18574926539318, 372.5983886938488 244.05985775625447, 373.5272484399484 314.3865643493066 M372 315 C370.26709556553163 362.78782455706903, 368.1535099307133 385.5349434067292, 363.21603558796375 398.86131871393354 M370.6533879230155 316.53783722524895 C368.5428720307536 353.1597418846059, 369.1447920032395 386.1466442111244, 356.4687399264988 398.14280130868195 M359 399 C345.9346625733938 417.14128356175087, 341.74840125642453 433.4077035169848, 318.4523554447446 446.45826468741694 M353.53588135411155 398.7817032526728 C354.1158773693544 421.01217721615984, 337.0446535384686 430.51816124581745, 313.72991739225176 444.0606689942323 M313.01242682208147 436.05585897607665 C296.26327233490696 437.78914682136974, 285.8119846017291 424.5019451227507, 259.00768649929915 419.9656878611843 M313.3527387412691 441.5207006601185 C295.37546623113207 430.64129607371865, 272.4878820028085 421.88721355950304, 261.1376840012571 415.6609011495857 M261 416 C280.2946350008339 410.4820914835272, 294.2108295423885 388.9955427286845, 305.5184423887008 376.30276594840836 M256.987717243524 419.0490050221743 C285.4050931838482 408.6963219744211, 296.7299686251637 390.9712263439129, 310.76292820951574 378.4779779256622 M305 379 C315.5176052786695 359.62150238565096, 310.2379877974685 349.87209725227257, 315.0811456652523 295.99156045387565 M305.1309824594804 379.7484020002015 C316.0401221864271 363.365117569476, 317.4873104937375 340.2896258950291, 310.2185367554964 291.64790388410813 M313.24093086565546 293.4558398816883 C313.36101135457386 265.56292795969176, 313.164199607774 227.08795385267243, 310.4930799844271 180.2132916138024 M316.7503486412571 295.1437080429044 C315.5940118979897 272.75642091058825, 318.4419256441938 249.84237531600746, 313.90287077043996 183.43476123999346 M317.32850065892643 185.20962766673736 C324.8617811384373 182.5119529159024, 337.23722117109116 188.07075034157208, 370.77491826469037 189.80445125655828 M315.0841583026073 183.08595042176 C336.15595873288703 187.43648610760243, 351.17230548057944 184.84207643007878, 370.7950086937912 185.35414839268742 M316.1303395219465 106.34862935736318 C324.55071609403734 97.39204314549863, 342.079915809325 99.30573553719917, 375.37872527861884 101.84462007351378 M317.6864214230627 103.60461201845499 C331.4823379600306 103.02067391859728, 350.2501643639306 100.96829569283835, 374.6919520635151 101.520753135114 M370.4488377480789 98.96753628871457 C368.30245014712875 114.64888394756392, 375.9277776291861 137.26799588617467, 367.03806410863785 162.68557225709688 M374.0014557968663 99.59853729257885 C369.82304570954153 118.7085886786847, 371.3869753757359 135.7645320259979, 371.9086635757034 156.9780706791857 M373.1011149366714 159.15033616421434 C363.6317750846148 157.66851264001582, 346.76898853137186 161.0176560965098, 317.5776364346133 156.80482488287333 M369.20546757713436 157.42170950540878 C355.1419172947168 157.74035585303625, 335.91040306272794 157.9228289285036, 313.9826245452287 158.22514180447655 M311.31423510035495 154.84804708422533 C314.79443348017094 147.95519129579714, 311.2179784624743 125.32093451364221, 315.8766040854511 101.57613954508187 M315.58076442692146 157.74824528543593 C314.97287475609966 144.4892333184665, 319.7251633902987 129.2130001512519, 314.01837143449393 103.42876130577972"
      stroke="#000"
      stroke-width="0"
      fill="none"></path>
  </g>
</svg>
