<svg viewBox="0 0 512 512" xmlns="http://www.w3.org/2000/svg">
  <g>
    <path
      d="M76.25030147454812 -0.04329028080207969 C173.27981026357676 0.17043529313984035, 261.0240484715192 -4.435637983068833, 430.4037323155957 -3.5016152556545306 C480.62903515665255 -1.4046470632256132, 516.8252607228807 31.375185503082186, 509.71473742219774 79.73798218930834 C510.53673779741723 189.405859161712, 511.67540068929407 299.75835086373684, 508.869004109452 437.741106806947 C516.9545338061818 480.72334631521954, 479.66599508856905 512.8204063900494, 439.37011556606507 513.5081094345683 C329.3599523595226 510.42071082647806, 231.05622409581352 511.69388308694084, 78.23300781851559 515.5540312605848 C38.150246305702865 505.60425711826946, -2.383928445555331 474.86684926362494, 4.023376910200189 438.5993304459738 C5.2617307123758055 304.44033709723567, 8.906442397564406 165.44417499060125, -0.20251632638267944 74.02259375475367 C-5.337080325239294 35.03703023626329, 32.97472969106128 -3.0628521941763838, 82.37649095325988 -5.447676524052498"
      stroke="none" stroke-width="0" fill="#113228"></path>
    <path
      d="M77.07897644585202 2.758358376671763 C199.8006600801339 10.012365404494664, 331.42653380331785 8.217129919275845, 435.6286657323008 2.2688658463838354 M75.19849260598146 -1.7555578338470934 C179.62482699692995 0.6355995617192075, 279.6014199365798 1.97882032569997, 436.6420937783799 -1.486648914206436 M435.2 0 C483.58148173246184 1.7055665218361575, 513.7113451938245 33.9823822037204, 513.3966146183335 73.10273536217147 M440.92064280075726 -3.278645444088567 C471.0942967407115 -4.141239699677476, 518.6845950830423 31.150412096027587, 505.4696937227881 72.60277142604264 M514.7481323978496 80.13983860161983 C515.3343633167696 149.16009988453635, 513.3027142688411 226.941692013332, 509.36950332076765 436.09876127497 M512.8819179988022 78.48265304319958 C507.35762358842425 190.6573954737122, 507.71489894704916 302.8607199138613, 513.5646310960216 435.2840150013377 M512 435.2 C516.1142075014313 482.42187788733645, 475.63404358900715 506.763356168646, 439.97214269664096 509.6176922466088 M515.2409449986816 439.02293272627594 C517.9545240202773 474.2127385774256, 483.05313062610884 516.1156362566704, 438.9207516076414 509.1095987458787 M434.5385095351534 515.8030260699192 C326.65629782527657 503.05035660677663, 219.16525236607285 502.67073363575486, 78.8842041881229 510.04943636239017 M436.9003740824256 510.2307253561219 C294.3275136792488 506.46980569109877, 154.48651872119538 507.63689204899737, 75.61353410373677 510.6881292711588 M76.8 512 C29.59730909717164 507.43622158348256, -0.7279308344233871 478.6078646421601, 0.4373926453755157 436.73326662320676 M82.45772883900055 512.0195993368318 C32.45402111951504 516.2034064426081, -3.8235967991575674 470.8064420957634, -6.3706674703187325 440.0164058399696 M-1.6362820858937728 432.9836889722903 C1.7946339265721376 331.71951485426587, 5.9081855052333 229.53130587460086, -0.38186176145786516 78.02121268740167 M0.3045072291510705 433.29527806018064 C-3.7683847515075746 314.49340662208914, -1.6903582895832416 197.21693365062987, 0.6964311894573303 75.32259571982793 M0 76.8 C-2.7755103375976207 29.680732412593443, 33.94619268996526 -4.866170228323035, 81.96918663002533 -5.2790894632601555 M3.123459824572193 80.35862198102353 C6.704666089977726 28.4182655032044, 38.44921043825347 -4.393084717855362, 76.51012962397353 5.173038119952135"
      stroke="#000" stroke-width="0" fill="none"></path>
  </g>
  <g>
    <path
      d="M226.49857019973348 102.57678898844135 L278.5815448164626 97.84363613671141 L288.33334864385813 355.70222165204837 L222.0869727082138 363.71222688240914 L171.86427219353118 366.6817628637474 L150.9134377817307 351.551670072057 L127.39927331408846 338.4919972646105 L118.4912896227943 329.5158078114882 L109.05526118023165 310.7813394043663 L107.70727287955974 302.54489473314715 L110.06127470009753 260.71184440743815 L120.67623968360468 217.87374778184298 L143.84429848895266 203.2056220558498 L177.30777773850815 186.63287456707846 L228.08609589690096 182.49464578661735 L229.99622256851214 102.24108233558385 M230.75788778285627 234.48109376686253 L210.91524604806634 232.25335536376204 L194.57066987061955 232.43899007693915 L177.23726056294078 237.65451264676594 L170.64529625228036 245.24486670667594 L159.30777096761173 263.57582263926844 L162.38202743158465 283.6186250790919 L171.38305416818676 306.41004402553307 L175.58777542476543 310.2634362971773 L196.86230139980142 319.7494790934982 L231.34551929022453 321.91615642465854 L227.71735562651412 228.30648958669772 M367.5258306793376 181.601026081256 L370.3763323548028 325.9600372592837 L368.95346582684374 375.8956084285368 L358.3369845452724 403.61411461639494 L350.89518155301414 418.66730633718146 L307.9552546886034 435.92401698038 L256.4661513747753 417.0242585157542 L297.34178712966803 395.0778169104101 L304.44084775980326 374.7224758201789 L317.4152469218537 361.55046140484546 L310.15118307365634 316.91553414573144 L315.9217476913927 190.83892291733343 L367.57949169460795 184.5859117323463 M312.20251765069304 103.18174440582185 L377.96071028357386 95.46309425083865 L376.9060766010451 152.78405181658616 L315.9887683828697 152.66894633272565 L316.2989282155606 104.86393502147214"
      stroke="none" stroke-width="0" fill="#fff"></path>
    <path
      d="M230.80732742239763 96.30830412184983 C245.01714970594057 96.4912702478327, 260.32561290037427 103.27828946032817, 285.6560508075509 104.32355440856448 M226.68352979251256 103.67407796282845 C241.40802277793946 98.84719886333173, 261.01336066586026 98.9893549781849, 284.73981259879855 98.21183292827331 M286.65965204158186 96.26425510021625 C283.89558232362003 152.11965668938603, 289.8808140031022 207.64454442372593, 283.5951469610268 357.67465295593183 M283.4269409769965 100.15727185979144 C279.341912896505 192.0758342710466, 277.4601359779541 288.6516083961068, 285.3134497110439 358.7874704224504 M283 358 C259.14393830225015 361.9361183772093, 230.54212781441942 365.5893821746604, 213.0562354530393 363.9057280305057 M280.39445703912367 360.07391344427265 C248.18633246184496 369.638888011201, 230.38430915486657 366.8106554267708, 206.13242867752376 362.45745172209246 M210 366 C140.80577879847098 362.2490347007899, 103.62031569202605 333.0158007857445, 106.80311963699246 274.5402367055732 M205.51005395120265 361.52814578834153 C137.18070158617607 367.71491670779386, 110.00336230517745 335.65542263234767, 108.59887856480952 269.7520415840165 M106 276 C105.61311624576811 220.76383652724968, 144.31360336076392 183.90208005865387, 197.2827530347605 186.54882768960687 M101.09645857119207 271.61959598311927 C99.29021117010525 222.92976858588813, 137.52864693569737 188.20057321811143, 202.32927871946208 178.93429376639008 M202 183 C215.24638499305053 185.71589306515375, 213.49755738253728 180.92362684223875, 222.53738763673203 187.67160816655922 M197.71323691749933 178.01191718885585 C209.73120391583808 183.71908732162248, 216.54084050623985 185.93509130045175, 227.33528989221486 182.61546892798788 M225.70728461662543 183.18308382696193 C222.88147632702717 150.28748725596208, 230.02321016529137 122.77722686698321, 227.26079533059368 100.92873842475026 M224.219266134098 187.6921930277087 C228.72487255494218 160.45650616836326, 230.293160831884 135.7416116758715, 228.17071051415496 99.3726697683943 M227 230 C222.64316136386591 229.32205386911315, 218.0408352270623 225.36940003484239, 208.46374465446468 227.3366597240241 M229.94132347778952 234.83245518404746 C226.2325728866986 224.1564102199277, 217.1474790900498 220.51448424321836, 204.9092348184014 224.3495571739292 M208 227 C181.93777624368172 221.04172675414262, 167.37569768962658 239.39291978175154, 162.08433360644258 276.67791096894035 M211.61332620778623 225.83658166053684 C178.5417298435146 233.47463457329172, 162.26100662327966 241.00089382211695, 165.93861793854796 275.05846201793725 M163 275 C165.84058927191737 306.2253810655035, 183.12698716594812 322.0919736031104, 203.7311675428331 319.0239634791145 M161.66707243993943 278.0740235446706 C159.76053388300593 310.08620127374746, 178.51563163849005 316.7035945630919, 206.70395954514396 320.7012022286361 M207 321 C217.6710836714486 315.9028607947955, 222.48146226718796 315.92657500008073, 224.19136666015226 319.00614112134105 M212.51181396354158 319.2640639356364 C211.33468015185227 314.2374796378856, 217.79295104876948 326.70768382007446, 220.89132623670582 321.1502114215503 M228.72137819615983 324.2548677632857 C228.898905494102 284.47889942510153, 230.37408656858437 250.30067758760654, 228.1079955757055 230.12706567251908 M224.50799905144166 320.6185521099792 C227.47069808969493 294.2319950119416, 230.8209523180452 266.56058381570284, 226.52867368153528 230.37750300072145 M366.6547637792005 182.04235651915542 C367.83998203637225 230.9320899591445, 369.05220751070834 291.5034191280648, 372.324534777904 319.626539605347 M370.1068394549743 184.399546850344 C377.0669089780658 235.3396025716484, 374.8203923184818 281.852279384641, 371.97531576111516 312.12569719805964 M372 315 C374.83507960164013 365.5350652740375, 374.8425117216888 376.3691769960002, 361.1996800895614 397.29157725107945 M367.03298230258406 311.3707283382467 C368.86242662109737 362.53521137003355, 368.2509939716977 385.55319455951695, 354.8110857522387 401.1158427756664 M359 399 C349.50600998837683 421.38496722879677, 335.5581067376853 433.62666144082203, 312.14705811350984 446.0275945051679 M357.12458213482 393.8886762690162 C356.50888921386434 420.6807866665068, 339.9941505665279 434.0423341985217, 319.5363413035367 440.1362752595506 M310.51008124690594 437.3170046696149 C291.28245228349834 434.7595235401257, 272.5152363151896 428.5676480041081, 258.3781898533298 413.67212151346524 M311.0139588815045 441.55056992201213 C294.32100245063026 432.0100294227291, 281.48619322988867 424.27791205360893, 262.95635219816177 416.5429991242585 M261 416 C287.35594074863775 408.83244845540156, 296.8053314742179 390.81575948361575, 301.851520734999 383.92184390314776 M257.96417054727965 412.140850803956 C286.3127511413325 406.10358548081183, 294.7686459328667 387.7216802429032, 300.36858521059617 382.19314372085245 M305 379 C315.3331586420151 364.8362990178967, 311.6017668810959 348.5265702804807, 318.29676341716413 291.2923535754952 M310.6774068775914 379.3304935088023 C318.20447588854125 358.4565740626121, 314.91752971057844 351.75723717088493, 318.4163924409236 300.279853049527 M314.812226544511 291.98245119014774 C317.8531391631799 275.74480115797616, 311.0013433051775 253.28280900604878, 315.6933148709599 187.18135260294994 M314.3438026273887 293.7183044856385 C315.16214673262084 256.3285885103011, 316.19984971187324 217.4216638733102, 316.3055003451901 184.8001766662042 M318.4447260634678 180.8373653527084 C342.7439849097251 188.33152056295447, 362.30728261566145 181.65308929670707, 369.09910944784264 182.07644383928357 M315.28581091415145 183.12030206459588 C332.19351571461834 185.98783945800923, 346.06337575929115 185.6980322548358, 372.83675876443283 187.69737792611895 M312.959253060878 104.81018993687049 C325.17251481226265 107.70864727425698, 342.77345554100583 100.59219108711798, 371.3261351002552 100.42930946855712 M315.29480449400234 99.80176806131938 C338.1311468720346 102.47171774540863, 360.4807103029691 102.89190065126436, 374.831321599135 102.44300153202006 M370.3541310497992 97.7653840249674 C375.45988040073377 114.05053515249172, 366.75595472323846 130.06724715577045, 371.65611798070427 160.90580758919424 M373.8014852628824 99.97194231485476 C371.0336555919505 119.64684159392586, 370.2323226573952 138.18087274520676, 372.0588666944859 156.12904085019835 M371.6585126908106 158.97343716602578 C356.0745969275101 158.5287805421444, 346.8341224507113 156.48639860407582, 311.49020152676866 159.65984997933424 M373.6734117581848 157.39338420601868 C359.74707335121207 158.85058847909173, 348.00927434025635 158.50041513139672, 315.83845492114193 155.13306449060644 M311.66082257724275 157.7231839518759 C320.7001505735111 141.4371242985088, 310.490579700742 127.1337433651967, 312.75712893445655 97.99536199598151 M313.4464792797815 156.2502579653512 C316.0749419616871 137.0034901685493, 315.5811522084351 117.3459713608652, 318.5446788218577 102.12923382532712"
      stroke="#000" stroke-width="0" fill="none"></path>
  </g>
</svg>