<svg
  xmlns="http://www.w3.org/2000/svg"
  width="1024"
  height="1024"
  viewBox="0 0 256 256">
  <g>
    <path
      d="M12.589346882974287 63.94427201709006 C12.589346882974287 63.94427201709006, 12.589346882974287 63.94427201709006, 12.589346882974287 63.94427201709006 M12.589346882974287 63.94427201709006 C12.589346882974287 63.94427201709006, 12.589346882974287 63.94427201709006, 12.589346882974287 63.94427201709006 M10.012165133688667 74.3078003058602 C14.080739182791358 69.26634915698475, 18.981904996817153 62.8256634907136, 22.161552629896573 60.43929572849218 M9.924143300659432 73.44154416206561 C14.501825012941577 67.49704505966032, 18.009469645009425 63.28409146287489, 21.423502631819304 59.12097809041987 M10.183811361901459 78.84233778267644 C17.76347603577557 72.4192499891546, 21.159859249229985 67.60013719181002, 26.764546646318898 59.47454603226084 M10.807350623795113 79.04517809025833 C16.482780700769712 71.98502422361712, 22.61441335741918 64.1138291149261, 27.841784835782715 59.01626739563022 M8.870422511371 83.59743496334222 C16.302254016262026 74.7344012155057, 24.051735772941917 66.2640879534072, 31.064393776632443 58.13893901768665 M9.993854119372884 85.5733522030921 C15.771796363661991 77.96578326044673, 22.53162392530732 71.03805230159483, 33.168788999455664 59.163279161814266 M9.357013825147979 90.57410716706312 C13.144670249185566 86.4697575336485, 18.216290473119003 83.87187121249927, 23.512132874619223 74.78178029257082 M9.512194378105672 90.27026596554029 C13.819171576152455 86.29841977032551, 17.488305416696118 83.14708808393716, 24.6948620519356 73.63821859870694 M26.785429597225892 72.93548304213796 C30.05587285900108 67.53236476496686, 33.59432436278986 64.67465990243656, 39.01470525560224 59.12714165372698 M26.493935878922944 71.54421762178292 C30.209699559765404 69.13550342528426, 33.24583443787909 64.47499134379864, 38.00392407017626 59.85789705482709 M10.39530781974992 96.3422642561808 C14.759137170482312 88.90420435484786, 22.602631860355125 85.75589387464828, 24.605967642496154 80.9501034605539 M11.37766062759854 97.56811265700674 C16.419716544934484 90.60758190949838, 21.104919728100313 84.39768622076437, 25.08460739099334 80.62677119712494 M30.195262144706778 71.31273384685275 C36.356984665370916 68.87909811320019, 40.47901768610748 65.02328267355915, 45.07714587404819 58.89160052942336 M31.1282073072075 72.20335462950273 C35.18194623890099 68.9583744987185, 39.478282770107626 62.96361438638222, 43.12212390293565 58.88723493960582 M10.50671832067505 101.83246357471403 C12.324077041178548 100.77949566973275, 18.394194298889566 96.24828887385868, 24.70270041714765 88.34876148762025 M11.326887890405402 102.4658306751971 C12.81891073829206 99.1766200307794, 16.82397328618093 96.25517878806139, 23.885449797018694 85.82586340559767 M38.33264075283612 72.41271103265646 C39.42116678801635 68.36744446260917, 42.4360314886561 65.8495386280105, 47.020440578806316 59.5597443197586 M38.023829023210304 71.57521143658366 C40.85735555462992 67.75851146568293, 43.68028620642256 63.50616159296247, 48.40495511568215 59.283753562019164 M11.68135299020253 110.02580831523497 C16.21529806784358 103.70916111373373, 22.487779542945148 97.92090421284077, 23.234230926167367 93.15362663946557 M10.12809462815794 108.32995463350895 C15.533614876447448 104.31155346262041, 20.587106310441786 98.14281073447921, 25.188138441528384 92.57510299224502 M41.25874947848984 73.3209809945639 C46.57396456060233 66.7334673935799, 49.58531121995213 61.773093648661416, 55.35432002841607 59.17345321240487 M43.11757390773649 71.70124127714999 C46.78088276062571 68.60963954492988, 49.1042954159829 63.205803411802044, 54.464099504237836 58.96324969040024 M11.315699321142002 115.71250535938401 C13.741505601922302 109.09989472398642, 18.395224263960984 101.99645609605952, 26.18454233635064 97.84307971623934 M10.8711371839768 115.167494722753 C15.021870903890036 110.28187794770827, 19.130002005641764 104.54477217259662, 25.255026456560856 98.44447141319543 M46.58781363822059 70.47665878930982 C50.92473748414936 69.75189907641708, 53.31899391156295 67.65246818554698, 60.39840465663663 59.011777235576986 M47.92304201910774 71.83688261142498 C50.644411006129616 69.51192710567236, 52.4703163472113 65.96825898723381, 58.22894566191658 60.02645642841582 M10.321662486280617 122.27468797616106 C14.092106396277515 118.17026059257796, 18.00492618120566 113.26215447445522, 25.465626226046407 103.44356973925598 M10.21397438664654 120.2952258182101 C15.67802314829994 116.67755644068829, 19.043369465083792 110.51044224026157, 25.398538424379964 104.93475095283856 M54.30810542419751 72.39950364228599 C57.76040114230815 67.36466356065846, 59.551033833667866 66.61241343637923, 63.7670867949596 57.80023465539699 M52.396052069998525 72.89530120906362 C56.47756530266166 69.7641860767741, 58.033920050040805 64.78618946210362, 64.76093042060072 59.264354143349365 M9.192446552082984 128.9601997992385 C14.870902338971351 121.65894243359412, 18.116994158619267 121.17924996122397, 23.947461308042165 111.88810399741857 M10.15732795156905 126.47405164596759 C15.17883459145093 123.42789260467545, 17.760044883326767 118.21166695903435, 25.314584190794527 110.5821415471582 M59.30667628737163 70.51981465220572 C61.4549471507447 66.95972201941765, 65.84111952719503 63.19131409186042, 68.34744032781262 60.91660498712558 M58.62335871375953 72.88621498138914 C61.46589518622153 67.9987935034844, 64.87132386162153 64.35474631818195, 70.03325291382241 58.701181956384374 M10.46159648560867 133.453334252419 C12.896422116211365 131.91363145498656, 15.347945090231914 128.68527130906398, 25.096905256766693 117.35457644158606 M10.95470474197709 134.1238434083485 C14.381937589913301 128.34153127346383, 20.36035537866329 122.90231326056936, 25.340994932725458 117.72698745297316 M61.845269170966596 73.36432343245325 C66.3120263505631 69.46742419680301, 69.15126533207217 64.33724663491212, 74.70536590430267 58.73566504059902 M64.25076937948197 71.89419937947774 C66.27973292748032 70.01256459474143, 68.79355945534842 66.99215762492433, 75.85969511631878 58.5439789699585 M9.546326387017317 137.6012608085098 C16.643323556035387 134.5565866531602, 22.49348087039977 127.26477725970692, 24.97848856514859 123.68597443654114 M10.699194842456249 139.8935213482608 C15.309353898763785 134.21901933983654, 19.115039530576336 129.50682706810576, 24.12468840227164 124.23507182069815 M68.28348017277102 71.08024449107393 C71.00826840366486 66.57166767276411, 74.58757544231435 65.22519333700153, 81.48112377070578 58.792239504361895 M68.32190952673629 71.5196486848951 C72.3450566114243 68.6354622075047, 74.48779447299839 66.04530801974558, 81.028719800715 58.84829384908013 M11.571977556752113 145.9598673586831 C12.080737259516987 143.62060853211105, 15.940466119434877 138.28959219052544, 24.344960400874406 128.59037659248222 M9.816336339021172 146.5137014613196 C15.647484243938337 141.26473343729046, 19.424348784637424 135.2288783597974, 24.543989314150966 128.72859282602565 M72.82609673676538 72.09039265134956 C80.04686622332437 67.08573783436671, 83.48605983463648 61.27279841121326, 86.58073077807552 60.03016260603752 M74.21014559256392 72.69936975066 C76.97431123705941 69.01096774787607, 79.93006441076099 66.09168972768141, 85.53301918838376 58.338102824888345 M10.40254938148024 150.00721171383907 C13.056550309557895 146.69256995663508, 15.323227114082435 143.44595598361715, 21.568450072191766 137.97379237550015 M11.16620000052145 150.92063211823515 C14.100376774080903 146.36715841047769, 17.903419554502083 142.75554545868883, 22.656461046268312 138.6685441162617 M79.48835040127494 72.86501382135052 C83.91607048449318 68.39760705351303, 86.8103596427624 62.1688893550696, 90.6328230910285 60.78250400732351 M79.232259501515 71.80149931625631 C82.55146804506943 69.2235476440895, 84.98587158596175 65.39000813914177, 91.3008155633676 58.325716744752995 M12.201737985599994 156.3929915687006 C18.456339966317664 149.8601166463066, 26.1143104643236 142.54699760279675, 28.62972785902861 136.57257887362988 M11.353005645015187 157.161660573619 C15.654691442150273 150.50546551266982, 22.231026038260936 144.7274249672002, 28.55554282023576 137.37737439558666 M84.9831438703918 71.98650780244694 C88.93511896499903 67.9604077726707, 89.02204723348709 64.65093191896798, 94.4316569766401 59.37544866168818 M85.32808037184365 71.52841271702182 C89.84679676265623 67.67428191038397, 94.39283049250282 62.889515058277595, 96.43658513072177 59.97672857862307 M11.011933002598767 162.90392110250372 C15.638678562956903 156.52741259195614, 20.310772573639127 154.24146454841622, 21.214198968169942 151.89487659346895 M10.587813625452785 163.55210386513252 C14.274686428826818 160.00552514845782, 15.084665020326073 157.68147586534025, 22.138791764933547 149.77586815767495 M23.112895654472872 150.14474232754932 C26.12718925517833 146.5043090649359, 27.700070899664986 145.09217222706866, 31.146898116767083 137.99435329214745 M22.440532941591623 149.94255237855117 C25.750502498555452 146.42333101143026, 29.963788797586776 141.65806417634423, 33.18567471667421 139.1075761641064 M89.49601546933631 73.66909775434459 C93.75974435984435 68.13825708025395, 97.84351441360764 66.33927098873787, 102.5056369913507 59.29677795918091 M89.77511636155386 71.42411817926416 C93.48487311423277 67.01967901983336, 97.15144447780142 62.61009960703157, 100.98544238959965 59.034060496191415 M11.165818564181128 171.45940764470146 C15.232988454616315 167.28817970347293, 16.133922951313128 162.02424205231605, 22.490783621152698 155.30859372942484 M10.688211973776852 169.08655528803195 C13.283084567021351 165.79662009072763, 16.52239190690535 163.2347980758215, 22.280008818664527 155.43928544644183 M28.350364896395213 150.3051150998194 C29.086097399777795 148.41336406026883, 31.885915331707025 145.00045235435925, 38.774099177120725 136.9422723767893 M27.550908706052844 150.23795565090242 C31.389241334266806 145.81211579604923, 35.32511005193694 140.25917418886124, 39.02584722871306 137.5044910976619 M93.94349676590326 71.1545742644775 C100.2100336540437 68.40811070270684, 103.70421312427179 63.14262537244441, 104.89483778515927 61.071892611772604 M95.67107365563609 72.64959457847961 C97.59308090430434 68.99997296539614, 100.89329085643944 66.87643893600175, 106.27155603288917 59.96293430946773 M8.85877902909962 174.56882077034763 C15.003806873560409 173.770265172647, 16.153038463163377 169.8844269938257, 24.11378558464686 160.884360377322 M9.905768132191522 176.76054021422246 C14.90736246154777 172.7527258116042, 17.303383542894057 168.1156763809335, 23.059041170815952 162.17877581908888 M33.88009870218561 150.4284913944786 C34.978712544271815 146.2360512402545, 41.11656429495911 143.13739666018137, 42.48559978642012 139.27945556184432 M32.016906702342624 150.53453134109603 C36.49785621634934 146.79900401164252, 38.95070004665794 142.30889329369418, 43.061436794149195 138.1087435834116 M100.84917989467199 70.81482443434868 C103.7110200747595 69.11223554960189, 108.60520620808406 64.0924805451691, 112.39730964987805 57.74110257213928 M101.8778250738057 71.16922670551938 C104.39524587940853 68.20700124324891, 108.28529971323731 64.37364554908117, 111.57961260976245 58.38620157072635 M10.760622903195495 182.61413926907898 C13.062320756438298 177.3329236548091, 16.760104983677493 177.1015381134756, 23.680400137445066 168.43918929328214 M10.843417757847085 181.73934986162323 C13.029236067046467 178.53161340179958, 16.610349059310295 175.9821408857884, 21.41755186023887 168.78465845427124 M36.87358709806851 149.36230435464338 C40.32806828824344 148.3724302680863, 43.72859571362332 143.79838700779567, 47.44412050682851 139.5202519747819 M39.04251478303766 150.52828938431716 C41.19033464702437 147.04883870615666, 44.64935760321812 142.4700171162827, 49.04496228261683 137.38312336585443 M106.42513088015954 70.70914349857424 C109.08100907579643 68.20097837400621, 113.6099934611121 64.04780634996627, 117.80281656008292 59.73464828160153 M105.85287556038135 72.20247491299563 C109.64048828765635 68.48030586685202, 113.27497411035223 63.52595135953351, 117.93779492832637 58.85402159185325 M10.3547880396844 186.81535594637387 C14.358794697339263 184.63828057192492, 17.21919555373042 180.5481536722155, 21.073538803231465 174.68091627769314 M11.497444561881956 187.3757275358494 C15.089990580397398 183.17580585347034, 19.925963010416915 176.57153671559362, 23.226837243950097 174.6840995252773 M44.01400138325202 150.42206949122843 C45.340952075399294 146.82005737470504, 49.918197795064984 145.31724382404033, 54.03067124736276 139.58489736486825 M43.95997389944598 150.65449087401763 C45.85118700176043 147.79997322763154, 47.63308020315018 144.9872526016306, 54.42054814011949 137.78129373342307 M111.52838362924572 72.11386292233992 C113.39058752586776 67.23549075642576, 117.48881728289706 66.34061300901158, 122.29795162752096 59.930385280693834 M112.26481626278346 71.50696722523013 C115.15046794397175 68.23657157170862, 117.1247756289029 66.23673725293496, 123.07600128045942 59.79232763571859 M12.373823054880472 191.34329695296557 C16.201411636764277 189.56213274266835, 17.40053725831449 184.01909189001594, 21.039222117544114 180.90940796822318 M12.359785990558317 192.2960687548044 C15.560701945676586 187.53019784732192, 19.963317485759916 184.29678782687589, 21.484880087395968 180.95120279517627 M48.47472372770019 150.66693803764358 C51.714613733785406 145.79490432957138, 54.45524849696424 143.80975337963423, 59.72380580974324 137.5159751477651 M49.065960717606906 150.5679287126255 C51.247823811973355 146.26651299763986, 55.396393591615464 143.9988295793333, 59.42487855155231 137.88930753163723 M116.56593968105362 72.2930972774633 C118.96466090738915 66.90315622954735, 123.17026416863891 64.09579252071435, 129.24624018541326 58.072705043967176 M116.83305519558742 72.40841333932114 C119.2474172029336 68.34159898591284, 122.12386062704842 66.20462435639459, 128.30317189952447 59.58548501263676 M14.490342175898288 194.9590334065402 C17.69776913349729 193.77351553634298, 19.119428247012106 191.3068043874373, 22.76653609364781 184.5775616388984 M15.447419605910198 195.36357286551376 C17.753037679158744 191.17111328141385, 21.10399438981209 187.7036997149032, 23.33336132747861 184.52118427498993 M52.65642598598938 149.7623357902628 C54.693454093389484 149.1820150475028, 56.89360453729634 144.6853893394173, 65.98574843297361 139.42693895213426 M53.700862489970284 150.229277747468 C57.98656712518765 146.68753563504083, 59.69232892900925 144.10108249009596, 65.20804742832429 137.56811215179917 M123.94048843430404 70.60235526006429 C125.60629368350487 68.79734472978032, 129.43933299418575 63.026410472677036, 132.57661517091526 59.57142714849761 M123.03369680573086 71.17074485029035 C125.03781454391125 68.8444181744637, 129.41696237419367 64.67310069688813, 133.68373026420298 58.36673080388076 M19.734834237242616 195.8411335859022 C22.06767614827038 194.20008505169545, 23.06551778567337 191.57453119559517, 25.889401061044605 189.13184488261436 M19.128208536438617 196.54754854079266 C21.7359341297769 193.56992253809864, 23.502306918077178 191.3340218210036, 26.679641786356513 187.9153194305927 M60.63630605611614 149.79494461534503 C63.117277502937434 144.2560408851538, 68.71947323733306 141.61655076736227, 69.96397520503747 137.53406759718803 M59.262113670308935 149.29879613494114 C64.04604588906275 146.00751338246536, 66.5259594630313 142.28040059638033, 69.47888000279782 137.93762916535835 M126.42242412342621 72.8269544154219 C130.40342687635237 65.92536578623744, 135.3702215235883 61.23480282025975, 139.535896151927 59.52314385852593 M126.98742395422997 71.58752570475052 C130.42595698833574 68.32656102022779, 132.15814691528897 66.29475648823903, 138.77889813191604 59.67991859758377 M23.617949378110325 197.07936631218305 C26.92722515059361 194.66191963761943, 29.247515326095396 190.81208095392017, 30.7482983423736 187.97424146930962 M23.86264261585148 196.98619780516407 C26.938208847120777 193.8107309388612, 29.227045362858338 191.0824395493184, 31.534259694274507 187.62801058674592 M65.47958184185556 150.9653883471981 C68.82634726794473 145.09935672740647, 73.25584260812995 140.94527364341508, 75.06264005687716 137.07027377060584 M64.11371229255785 150.0987156820408 C68.18355178921476 146.0243410383622, 71.55057797855123 142.96086517494436, 75.44173706320203 137.53780471210155 M130.9647265979197 71.45341471519825 C135.8282362955799 66.96721655176795, 141.74636073934397 63.708734208405225, 142.985444550501 59.75646141029414 M132.18964264967087 73.23130039376882 C136.35339034441728 67.5869117803817, 141.96033300988734 62.32633532957413, 143.20554071033442 59.175898134315325 M29.224175223938296 197.70929242355933 C30.229407628625587 195.12806172569657, 32.38291282132149 193.31415080264287, 38.0837953765066 189.128854472563 M28.470667381596513 196.92791217129596 C31.629535469232785 193.710625854049, 35.401530853393346 189.84018201406954, 37.22999105111504 188.81204008153128 M46.4659862601539 176.8733225407639 C49.70249551457248 172.81548301874972, 53.93936814032515 168.54259965437907, 54.495691310300465 166.20879670689007 M47.07473586196458 177.21170175071063 C48.890724125425635 175.4682462169406, 49.534848147990274 172.62690910696165, 54.662484168295336 166.66145291811887 M71.11156325656722 150.02848013848435 C72.9900122890603 147.24999868440472, 78.67634816067599 140.24859122645051, 82.27219147214676 137.91982678575147 M69.98125614975228 149.82162032199926 C74.36271831015269 146.12584704056604, 78.27149450334855 141.2168636850665, 80.90674888024054 137.0806084695585 M138.68109757662762 71.74738933547128 C141.75365899093669 68.9297945766994, 146.7714120736229 64.22837422550954, 150.0115326145557 60.88451759704039 M138.3790456112192 72.4666935892178 C141.8695357598333 67.50300391129898, 144.37786486820409 64.5264706453077, 148.89487316264865 59.00314305507947 M32.07882247652728 196.25130052473122 C40.03538105248904 188.28362689632425, 48.96751675319159 180.06875438487035, 63.63657450827662 165.4829680094221 M33.878724060989676 198.04589402836544 C44.36028629964158 186.34277313326336, 54.59040077199211 174.3321551912045, 63.676358390655 163.36141441700755 M75.97155447348686 148.86115719769754 C80.28964674925268 144.78032010088972, 84.48933559121794 140.85113543515794, 86.30898637684412 139.75337690076293 M75.32735744491535 150.86565748928902 C78.77111462489839 145.14811202513494, 83.59833577149173 140.89220474270041, 86.57382000242457 138.9155234653102 M142.12644523622166 71.53272844801724 C145.7351677275567 69.0467142227276, 146.9785563565074 65.54688247753232, 156.31580624781884 57.84306137989107 M142.58409049208956 72.64928051115949 C146.45685734103432 69.02454449573452, 148.30882017908766 66.86384032220565, 154.03456262824088 58.61682599074541 M37.57781796000524 196.57688531879134 C47.90634506163488 190.94208557751017, 50.688676006789535 183.05511308488556, 70.3031202676958 162.90234774630107 M39.36073323502787 198.78477222188033 C46.295482834104654 190.80070481676003, 52.073301965618064 184.02545413775653, 70.00086736446235 163.5834287113169 M79.28811922920299 149.1745568131389 C84.87329344400625 145.63033925300263, 87.6016362748795 144.1819942971354, 91.6758417712122 137.84014216346048 M80.75208132107102 150.3035496904904 C83.49180742840781 148.21317279825104, 85.16447549228513 145.48300276484736, 91.08450257818356 139.31936142954714 M147.6065211895885 72.82118523937386 C152.43201838369322 66.52728449307763, 157.29572605099824 64.11071504812378, 159.63254122906775 57.9753635743438 M148.026823713317 72.35526150129112 C150.29318234446728 69.74332530595201, 153.40025645700072 67.07691739471555, 159.96147943654526 58.9607239108574 M43.69023179289897 198.86469420368596 C48.55828730405181 195.94554333605294, 52.09611981572444 188.32517244423727, 57.88433420623937 182.17584430591535 M44.1341962152757 199.43283787538914 C49.09960559503864 194.0531837753121, 52.20243864403303 188.7357578643393, 57.780655572793194 182.9112700035751 M64.766708562274 175.61869142118343 C68.56930638440843 171.40162050486992, 69.09270551498004 167.61673286794493, 73.03398818822258 161.8625860170736 M62.19347391992608 176.16645210382177 C66.75517344889442 172.37905643073591, 70.5571773983376 167.45567488080394, 75.61896066183434 162.7842771249581 M85.4837042332733 150.51176078524185 C88.84100444955581 146.33096436322495, 93.73853328061413 141.26659993864152, 95.8430715994486 137.89000724602198 M86.63786169532821 151.01167728013237 C88.96647692845976 148.1824515189376, 89.86856350845053 144.83828096361452, 96.02077006298073 138.83312814496338 M153.74937538645847 73.06103598703231 C158.161008543695 67.82910228706282, 160.96998125051397 63.480904244345034, 164.28906306539758 58.47693637431117 M153.946475739826 72.5908417904978 C157.9584130368066 66.4865058973537, 162.49193242385746 60.9518123049008, 166.21030526061395 59.72382040222938 M44.67523941181104 203.4458878351381 C46.2532511970298 200.9442335543016, 49.82630385590246 197.6301045584002, 55.54345055321231 191.82382054712934 M45.15653179744441 203.53300438549803 C46.77140219612065 201.25361869374788, 49.589513370632766 199.1830888314557, 54.62516144598137 192.28452611956183 M69.05949120793538 173.6099571469251 C71.63495394768813 173.50778749922011, 75.08789622249485 168.43379257574728, 79.74216559608621 162.880324605874 M70.65485763652876 174.20218125003822 C72.09529151145296 172.12396558020995, 74.31294183045316 170.1668240106022, 79.09337795986256 162.91739062564338 M90.99673080585968 150.95537975568988 C93.00857365476087 145.920532544181, 97.03861104221001 144.84769209510407, 101.02437833639353 139.99471479128522 M91.50704580299747 150.54004329402957 C95.12501534596926 145.45185745590015, 98.28200502859221 141.91191310061924, 102.11275626143284 139.15042216355164 M160.29882775509614 73.47928619828922 C160.99079826579174 67.85265142992407, 164.99270946697743 63.424519149423624, 169.0306760008368 59.878148707959625 M158.64517360109195 72.70479286518783 C162.17674147387658 68.32444562421242, 165.70396640115493 64.8114974800546, 169.55295888950093 58.71920592796401 M47.23647940573741 208.621223819213 C49.14058048879293 204.59222883767072, 52.81801770848839 199.9707720021885, 54.23871945350505 198.1244528495188 M46.38909469514477 208.0802841076311 C49.71566697331178 204.75689555474824, 51.362280891554285 201.35400789886683, 55.78527791593106 197.6516277030696 M74.14342915409937 177.19312465288016 C77.12387666703333 172.44066325201067, 80.20345426850544 170.7936710195521, 82.6373391456942 164.94096410726843 M74.96717829097612 175.582526651024 C77.07616931359877 174.0115132044638, 78.52068069925348 170.98436080933865, 82.98034289985198 165.46974842957746 M95.6963116132998 151.29795915165823 C99.65457749539435 146.91468437836855, 103.78054984608059 141.2244514117397, 107.05204642879062 138.90288495453385 M96.74675282588544 150.6605797704502 C100.64091710118868 146.09562493175378, 103.65082205522259 142.89996195518134, 107.37424756977622 138.39939852894904 M165.78059099892639 73.82308549416548 C168.29672140965712 68.01132546761323, 174.17000084564526 62.70467146933947, 174.83526303123728 59.513475440160065 M163.2889768234862 71.8381608941635 C166.13276642867507 69.57945295257754, 169.08338624750925 66.11416780136331, 176.72268253499593 59.171353490039024 M50.83286819807036 209.7914947297693 C52.71531882953455 205.95907697939293, 55.551716619064415 203.92173077931844, 58.51713033501431 201.2790415446467 M49.358496922760075 210.40226037558355 C52.7194384986209 206.66954884074312, 55.07998763599538 204.40428686599282, 57.92960854720769 200.66253007790368 M78.26674572546348 177.28974579003494 C81.09174303281334 174.0219818024326, 83.02752779480636 174.08817139027718, 86.03339333988079 167.26068866874448 M78.8993467936676 177.34230933587253 C81.14357889762316 174.31612701991384, 82.71621382700069 172.08606045148895, 87.02509483509402 167.23275921296897 M100.47931852916551 149.84463137387164 C104.67015631030924 144.57792410893668, 111.07209006863766 140.14130761185115, 112.66189175481372 137.6253526919164 M100.84850748946107 151.1640052438189 C104.27183422162308 147.07523666770018, 107.30087982463421 143.9441258194466, 112.79565425785307 138.70393133120092 M171.2233529426235 70.61278901221152 C172.69236117871296 67.22864168580641, 175.27518281480255 66.21520062281039, 180.7895742487722 60.235419097834665 M171.40311603052788 70.85676557870782 C173.5649181480465 67.63089102157633, 177.10827332726666 63.76168010803024, 179.97620257519995 59.91911022038926 M51.83787676026361 213.1934502841445 C53.30584165506535 211.06840431710012, 56.094954701203584 208.59878663363153, 58.42079852030309 204.81889296105825 M52.41080366395359 213.65383205830895 C55.42438082337456 210.93026933622716, 57.15706672366878 207.23554770278156, 59.6004715648009 205.49465719678585 M83.99928581583228 177.24221195065448 C86.83717209304274 175.51362827087684, 89.8941317657051 170.6168113852031, 91.25377159382568 169.0362346966992 M83.01383919934202 178.46276753056537 C86.17410161653466 175.1985292766049, 88.61293783954471 171.1786212326699, 90.96064331754114 169.42230802353828 M108.42298857094923 151.7802560638852 C110.76595581216303 146.7471709484709, 112.38452952111211 144.47551905146003, 117.80413738198716 138.91242886401614 M107.02943803892718 149.41668263355584 C110.70205319809432 145.69912037900102, 114.37272156827665 140.83488472390223, 118.27586167334461 138.56968243645792 M170.50327529077464 75.82420829540058 C176.95124545515466 70.99258373128502, 179.64751941755623 66.17441654764012, 184.48433223576862 62.09184224052954 M170.09993678284454 76.46377168068346 C175.64115056560436 71.17087541066157, 178.7004895835491 66.98172009390265, 182.7341671816511 63.41369026806691 M55.14773661516894 215.9658029127373 C56.89578552899825 213.90731616222217, 58.326044826624965 213.24909625922507, 62.21545001862437 208.08808323574172 M54.124058825884816 217.4066726711114 C56.197261245352045 214.8173046679582, 58.46791188928268 212.65106184656307, 63.46836078213424 207.62799856054784 M87.14850956484825 181.35693119339317 C87.2458819303682 179.62666928400304, 88.7591525392355 177.9543421112422, 94.95097558830537 172.87353883714832 M85.93215020845086 180.8377916893634 C87.99043755655805 178.47045699507237, 90.0878151424261 175.23738619162188, 93.80225225526439 171.2002543058034 M113.55581131701025 150.93300213692564 C114.1441102846996 146.08134313289904, 118.67670750226316 142.3923010541267, 122.90829263421654 136.99701789085003 M112.5237735676156 150.92438769924215 C115.99598165719257 146.93611588926794, 118.9164686476032 142.39595114733928, 122.80510334750925 138.80195165148334 M172.22961596796378 82.19818851270591 C174.6295479534433 79.9633118866615, 175.91151657730484 77.27781664968543, 181.9838208248679 67.7370284025625 M171.25421328734262 84.20153620878388 C173.86346260427462 79.8353734532957, 176.2140927703096 77.00497514622298, 182.95444045703857 69.68668757803843 M58.709440477312384 218.2163223620491 C58.76778669634721 215.8211273470308, 62.38567888126034 214.59710395735513, 66.06463167221872 208.72371315260878 M57.90015429910989 218.92958347693008 C61.25529756279976 215.6915886621808, 63.727324255540445 212.60068393083557, 67.075736040363 208.70191387243437 M88.05618830386636 184.1173531778111 C91.49491948990881 181.88374675853748, 94.64528077586696 179.2871835913236, 97.58777533420344 173.80268161515366 M88.884394184889 183.60307223516566 C91.95471245502655 181.2263198050295, 94.30067683474017 176.98307413280705, 97.35352438420227 173.6594745161649 M118.73162284764545 149.95299170233136 C120.18774895079876 147.94624087629506, 121.74800126473184 145.6656078043924, 129.3976128736366 139.5004189189506 M117.49086172357542 150.19543592983848 C121.67480521564744 146.68277148100015, 124.21391655180368 142.24837162810246, 128.22184201776113 137.8407935794793 M171.9286215617675 89.10517490391595 C175.70673197357672 85.48429663511197, 178.68011324097492 82.02137206123095, 183.01613047262086 73.1768145592357 M170.94573173478068 88.42809865045659 C176.554142892748 83.19476549046219, 181.248744973814 76.9818273399287, 183.20474833765678 75.53223069096909 M62.68023916702494 220.09137576091626 C65.90308494538571 216.68019796309753, 68.77978704299964 213.95854007176374, 70.50344449236876 211.01015668137535 M61.74525664839228 220.83324795187784 C64.59320992457616 218.78538910019387, 66.56898370133229 215.94008395882204, 69.40234429291169 211.84460743096963 M90.5452952468552 188.2222984089972 C91.84179029672347 184.36344192359806, 97.1862588852661 180.18843228699623, 97.3521819178113 177.5163848086379 M90.5034191756684 187.78758708791491 C93.1694971040666 184.36918635582538, 96.31318734905786 180.9507070560437, 98.44138718757759 178.59917490698385 M124.05994615223624 149.9673614581836 C126.75298460636459 147.8812522473114, 128.34970766189073 144.0981149015155, 134.3476188378297 138.33513290484035 M122.59461511922873 150.3799181981963 C126.36269497681748 146.543820377136, 131.69437007239978 141.30278853323844, 134.01324482685084 138.90982067773894 M171.50559773379413 96.4836187459182 C177.77661153261954 90.3276971772069, 183.1479251696148 84.03749711185547, 186.9986316097737 74.68737324921898 M169.77891878631144 95.82796663410763 C174.96176075878773 90.03374133031068, 179.15100536643388 86.28646767167646, 188.2796398206734 74.2592341726322 M64.85932249567807 221.52280516139155 C69.74713410764035 219.87301009750763, 71.5841602524908 214.83372856362632, 73.58885152004979 212.19607477837997 M65.95357989430204 223.23195014593037 C67.97925642286748 219.86033225085797, 69.9056133428503 217.60408489700038, 74.89077602675718 211.82756149737847 M92.34981127057486 191.88070287839764 C94.52607130926218 189.20415259982826, 96.28312909825914 185.10856545499672, 100.52291682955426 183.71004669092136 M90.49941472672639 192.6648479405953 C93.55960492403173 190.96425155948242, 95.65053181906923 187.9981802953859, 100.90666217843854 182.92470456782468 M128.98746389383817 149.28024100110517 C133.2785301089709 146.65025631068238, 136.64514413354308 140.30867967770075, 139.86254230128745 137.98740357462478 M128.2617958593082 150.37738786488538 C131.06088252079422 146.7766394858273, 133.61156262823988 144.7245978186145, 139.0746251397407 137.83524457829185 M172.80245396740136 99.92762335089847 C174.65173406032284 96.2882296500011, 177.3900309229875 95.22138567103585, 183.1035290060727 86.76687418502839 M171.5213181346402 101.03690708963357 C176.10488999129726 96.6270634613385, 179.80299362454681 90.95893444428073, 182.04896996675345 86.59041260478863 M183.12647824727708 86.78429358929634 C184.8907232487138 84.48982038490756, 188.30495714423975 80.76554595411808, 193.86134017280324 75.66122599784633 M182.7649784902211 87.2331824385018 C186.4558337562252 83.93381935507648, 187.62672839695193 81.09673708093489, 194.32144909341875 75.3682425178789 M68.5655379394481 222.34064664205894 C83.36540199652316 208.88573670694677, 91.19175638217001 198.2700099589515, 103.5075433004078 185.32604773018423 M69.50269247718897 222.18924057209094 C79.7404030993069 212.1767469913692, 86.88108892185751 204.05207414221718, 102.32605764480026 186.18407909004267 M132.66543195469316 149.58882858422623 C136.31165661188177 147.1416733091961, 139.3673888884424 143.2407467287761, 143.83687716301426 138.36903741196537 M133.57960905009205 151.07851875677324 C136.40492213983637 146.18069036912084, 139.49839894062546 142.99068783462457, 143.6691306510469 138.95656371009193 M171.41811953401853 108.14274427650577 C173.0059822563288 104.2576479468414, 175.93298358908908 102.76936937808816, 181.93093286396072 94.48043278143501 M170.42102303743562 106.92501069989298 C174.0648204681478 103.43218629426127, 177.11442993019384 99.82953708006754, 183.32186931921257 93.2859537232327 M189.75406840777026 88.32088797519842 C189.67702214409888 84.97382630837092, 194.5282850940743 81.6998560732765, 199.49016506494507 74.21110170850125 M188.5934776594831 87.15319273603205 C190.09116966090693 84.20021803491079, 192.39589605752295 81.5820405755596, 198.946673227776 74.89690105763283 M75.28851255040802 220.65674178908463 C81.39674372413972 216.52775718814527, 88.64259668498326 205.6309641760611, 106.79063473273335 186.83399335398462 M76.83137252044517 222.09913997459194 C87.59857496087017 210.16528635617215, 97.23700993330525 197.55752447364657, 106.66154880547296 185.98623537675942 M139.1651634357409 150.1513906956245 C142.45402250507883 147.96561231671262, 145.26733916401182 143.56460258251997, 149.44266590974846 138.05559696946887 M138.9327895520602 149.91419346930397 C142.5038321567816 145.7283905142218, 147.49397094286724 140.06381387126584, 150.23833051820097 137.26448185515923 M169.34465007479847 114.72911307292178 C172.1572512716088 109.44992597379233, 176.13880319232354 104.5185980109662, 183.44181297876892 98.56601451455785 M171.46678592851916 113.94631351223056 C174.67747904426494 109.19052140925598, 178.86173672305273 105.46080424851888, 183.0087914563596 99.85600575571601 M192.696111308264 87.78712856679947 C198.20140887352105 83.64730060297077, 200.46949212512695 79.16878688571798, 205.0663949433242 75.9765090195102 M193.51775254029093 87.0841563309621 C197.11044795191077 84.75228126649245, 199.41889142640824 80.15938519314231, 203.89736246120043 75.15919088562143 M81.59122046913878 220.11829455322146 C85.59163846255753 215.97013413724238, 91.6066120609722 208.7797043337575, 100.78604683448748 199.62985263528225 M83.12580725250172 221.57689666350808 C87.92208489959557 214.0956208758546, 93.65788118682045 207.82284928264428, 101.2247879336986 198.99977347462206 M103.45629114988927 197.14700257211797 C104.96687108247258 196.24623641641068, 109.82143258105214 190.34347394387163, 111.6927248986455 186.6896443545312 M101.87640691601963 198.29115305296824 C105.9677842207825 195.40334028737234, 107.89603480476812 192.14095323986638, 112.30361845956719 186.74235506331988 M143.10891138450097 150.00351335978286 C147.44515102676448 147.3401513793096, 148.41552442025846 143.26316721496045, 154.7155105551634 139.65749766928218 M144.28825770795413 150.881362285636 C147.33587603135408 146.59493564724974, 150.3885629010487 142.3879044884318, 154.5003969974972 138.5447651774515 M172.2162279966718 118.98801247611604 C173.48242485236213 115.01515058366935, 177.73655767824638 112.89145003146491, 181.97746258378191 106.06204374123841 M170.7708828902831 119.9795556136197 C176.20993908751245 114.16310595500232, 179.63572518836355 108.65262091651061, 183.4664007793884 104.38664711508589 M199.7678864736366 85.98911046806727 C200.99098055675427 82.16904922193322, 206.65329049461866 79.59913963752663, 208.858210656044 75.25857129266018 M198.64305812499728 87.04306221272337 C202.6274676578214 82.10362935007744, 206.51812721564679 78.66609772691142, 210.02485898870125 74.57053084816724 M107.77559747132094 198.13388051993758 C111.00588822162983 192.59302358081294, 115.03709029660443 188.62900429856728, 119.3446882743948 185.6918913075416 M107.28087373696249 198.28933245796003 C112.24348940908841 193.06214350413703, 116.55122236636444 188.35561050557754, 117.47005848672997 185.6212993075935 M148.65391973031794 148.71353154434297 C153.30025251834527 146.1305904423956, 155.33173804819816 140.6369556951404, 160.77464703937954 139.3349119623725 M149.47003307333333 150.1865626986086 C154.12061500272938 145.69334048628102, 156.28335125286702 141.9391505835864, 160.35922731495845 137.42622309684793 M171.4545026070352 125.17884716368405 C175.90205800087747 120.9717154662491, 176.19266619051 119.14441634105656, 182.81406834511304 109.94300142697324 M171.56951548822528 126.29209132818572 C175.80406948406167 119.95268857023328, 180.4748082402693 115.68440659244968, 183.22084383450243 110.75358018500673 M203.38840272621164 86.03233218955648 C206.2187612216255 84.12666589589529, 207.66250414862134 81.96677608143118, 215.0322391027361 75.16658724776063 M203.80564687794458 87.21994893980998 C206.941276032196 84.69374369452294, 208.3584499765753 82.8396214078989, 214.1641017100314 75.9333550067782 M112.12135121864063 199.1506682591777 C117.387823936135 193.5178525066585, 119.28332624001767 192.10088532410643, 124.75377953247805 187.18012203025108 M112.13544441627717 199.32613979660238 C115.28746895434793 195.87452882917347, 116.25079839657128 193.49806624458822, 122.51083972936635 186.82053201099305 M153.73875327434504 150.4462233635829 C158.09663211370804 146.00175986357644, 163.5269995560776 140.89109024626285, 165.71204113852966 137.6819262639245 M154.5390515631145 150.2917703564152 C157.29778013400824 147.51706983592558, 160.26583947016132 144.24962878527435, 165.68206277433652 138.530318053366 M170.93714410624975 130.89295045696022 C175.3070634479045 128.29940679986757, 177.01289691675504 125.35054824649647, 184.27673129314275 117.29804474501604 M170.35853539643665 132.08539668265826 C176.1719057377499 125.48122285679197, 181.75393149457236 120.59651658558546, 183.70874681797892 115.63008432597668 M210.66424420961837 87.75558085382518 C213.69131198640503 83.00015510095102, 216.55557481510562 80.43914393782023, 220.11740339204783 76.00832114035829 M209.2107634281034 87.12902406725689 C212.00027511643498 84.42217567259863, 214.44313497287783 81.20228366445028, 219.61569624403984 74.166836187873 M118.62121649777133 198.24141334834414 C120.68980543887942 195.67896562547853, 124.23373461442013 190.2643816534218, 130.4176111108496 185.2770699038741 M118.67814850138421 198.3029815099235 C120.56386081987692 195.27860182242267, 123.99832350061865 191.3802133147879, 129.37081262757448 186.24649033480105 M159.15557326745528 150.27937449760145 C171.7875356750678 139.68427055037108, 183.74880755356384 126.45851436018508, 190.35284007105983 116.33975465502351 M160.2300671800483 149.7379846070186 C169.24453227768325 140.3716392831973, 177.19431959460002 132.47963020705834, 189.95283376861863 115.54082064021785 M213.7181511671076 87.39285208783232 C217.62634949017072 83.287277186776, 219.41063744548666 80.91721359869035, 222.71439241036526 77.06096191034518 M215.24601457789137 86.85050360301761 C216.75336392256582 85.51855331020755, 218.32989392524803 82.60304244935628, 224.47948617155257 76.27393795116288 M123.40414708272718 197.9152316725001 C125.90676977720621 195.29188244747507, 128.31851588727886 194.22461061849341, 133.25459386070102 187.62559571532537 M123.19493896815408 198.7606952114545 C127.46039456120249 194.33309497145737, 130.4050997566597 191.60249148697375, 133.9909950742756 187.2667813087477 M167.3124964925722 151.1375792485413 C170.57345098079696 144.86636998378668, 177.10918134980446 138.9185499589501, 182.50972135115708 129.00106415237636 M164.97376287024593 149.49524045876052 C173.0161219458238 141.66096494202003, 179.69604624788363 133.73447827233431, 183.63364679402937 128.73579787481663 M183.713752039466 126.96356011486704 C186.55348847548024 126.87178149713674, 189.89765183473145 121.92054051283397, 195.26678725763145 116.04251817916041 M184.79475479236976 129.26928129800413 C187.1443307173052 126.01419579349712, 188.94716406464923 123.17979780558993, 194.93816828233156 116.71453582442382 M219.54458164483117 86.61625088887791 C224.15145360431202 83.4981715221142, 225.33650490113496 79.30668199224226, 229.00540590729153 77.56493649371181 M219.94247692925177 87.47053809379025 C223.02455364638544 84.04532769155149, 225.29937225549057 81.57349045774217, 228.5061081757235 77.38442297478426 M127.21184289875734 200.21188955092143 C130.90225856487532 197.54073797159236, 133.79875073887933 194.29372934510872, 138.5876671136977 187.42162528857432 M127.65845058038973 199.08011857360938 C131.06752144638176 196.77571149023143, 132.96410233587338 193.858855096917, 139.50244005429954 187.63542730574312 M171.69458752438328 150.6557520998714 C174.33315436763715 147.3066746006724, 180.00816840429175 140.45264893924406, 184.9755246472532 135.00041524614275 M170.65887883619672 149.99438856262523 C175.71257707248526 145.42837441434145, 181.2280007089833 138.75479666698578, 183.84715083861656 135.07964048132143 M190.04998978907625 128.7352399230272 C192.71438726332718 123.88857138065697, 196.90425940274153 119.619044013675, 201.35799274359795 114.98961753898877 M190.54583269626212 127.99763400239202 C194.5811054530751 124.00656322512839, 197.5753232689793 119.12240886369077, 200.8890077817398 116.36771300741205 M223.42747214756568 90.37003707816598 C223.83113752718563 88.75133721434445, 228.1542683942108 84.98185941267403, 231.53350411690775 80.7840565522263 M222.34316862620307 91.05557103928703 C225.21376317576818 87.75950658376797, 228.04483229804652 83.63360012170652, 231.35571158409965 81.40526770704543 M132.59335247974437 198.83617034554754 C139.0281288435784 193.79234867304322, 140.42657258697255 189.8742950143851, 144.45818103401785 187.45148127006294 M133.87273260076685 198.06413041397056 C136.6009246564139 194.5687253079926, 139.68684079222788 191.8364516753211, 144.5086992341093 185.86009955863122 M170.4248515155031 155.06252573175473 C175.1033296485959 151.49523270157778, 177.0824671253877 147.34288782402024, 182.90919486861975 142.05431923312742 M171.52161323547563 157.0024774146305 C175.6770464366368 151.17859921804126, 181.81899006829696 143.68554377536466, 184.36735298478192 140.23124205721297 M196.25349130229472 128.96536772990893 C198.33557208415652 124.83788962807891, 201.15175416077582 120.25869450984948, 206.58038935700836 115.87658016331578 M195.05635118131428 128.75841339489028 C198.5422906173226 124.1320297054237, 201.54768426200664 121.15708707410869, 205.44515849987616 116.11284550369189 M224.798731833744 95.30664560312917 C228.36376467573584 92.12171895176247, 231.3334141864472 85.86109968932544, 233.14514909728405 83.65289725095407 M224.55377258665183 95.67444975808039 C226.18627416314985 93.16512855883977, 228.2629621054666 89.16685870578446, 233.17747921214922 84.13236153655562 M138.44071107269625 198.5127477227743 C141.60048492698084 195.4372650828507, 142.3300741013934 193.80476715446594, 150.42039792784064 187.5426647651061 M138.66059688836444 199.75616396305102 C142.43052156119978 194.0511800983826, 146.75228247777451 189.5240924822346, 149.36141301024426 187.0741554881898 M160.64073604983145 174.0931992282246 C160.64073604983145 174.0931992282246, 160.64073604983145 174.0931992282246, 160.64073604983145 174.0931992282246 M160.64073604983145 174.0931992282246 C160.64073604983145 174.0931992282246, 160.64073604983145 174.0931992282246, 160.64073604983145 174.0931992282246 M170.43907913877246 160.98720497579814 C173.9366461871287 156.61113240961544, 178.38110597728385 152.12381884394824, 185.1921743006986 144.61213109016094 M170.32848378977548 161.99186903106317 C175.31996039934413 157.80666046029123, 179.70345127132475 151.14187651597453, 184.41243924777208 145.28151029241835 M199.21164023744413 129.2312409191839 C204.3314450837939 124.65628395862755, 206.89285822279462 120.81785655045074, 210.80761757790972 114.8341958028078 M201.43339882680775 127.54692937349814 C204.53803043241774 123.77712158138345, 207.62302724454835 120.06212864605108, 211.58022521710595 116.17419986236244 M225.97906678315871 99.74903855583499 C228.3712668297513 97.75639294618296, 230.64526393676724 94.81997781269847, 235.81448606771622 89.73768405098893 M225.41621201890325 99.47973795440988 C228.59235643429597 95.5337466402641, 231.26509196746045 92.3389905340767, 235.29654074796824 88.36982625023055 M142.9349241071181 199.91643841820806 C155.42549305587428 185.6754048749713, 167.45329715944703 169.29472311743928, 186.22054182228644 152.7480329839063 M144.31589879997324 199.5370167599804 C160.9643085380192 181.23645197954656, 176.40578332063555 162.72507703203752, 184.99647737257428 152.46249517410976 M205.42973636038312 127.88920937955693 C210.54153241206987 123.41624393261456, 214.8723234726119 118.14226597755442, 216.7933221128079 117.03127840204692 M205.7818172059763 128.2195388553453 C208.63022705023823 124.82287653630382, 211.38115597334814 122.1762868172636, 215.72607678349158 116.71246041414527 M227.29703012497728 103.69149116694173 C229.76971898091665 99.8136714270952, 235.1363916802932 94.15818183827956, 236.19635262865674 94.3049198812316 M227.7492703278154 103.75960100214233 C230.80771589367964 99.19660154598591, 232.94281340357588 96.81139339185178, 236.16624336302158 93.29156307434769 M147.6957944882873 198.21719287019144 C159.25124618756928 188.3836278172107, 165.84091213323646 178.72999594488405, 183.28759929886334 157.80028871823677 M149.13381138246854 198.85869775348434 C157.3595880099773 189.0886473299608, 165.864317748022 180.91806475954567, 184.8882062778668 158.08623846711723 M211.95232952090214 127.53671429383205 C215.82767987291464 124.05063119335118, 219.23700032665283 118.90151489031214, 221.83887621129017 114.37219574261876 M211.04748906686612 127.22585353072785 C214.3608395188661 126.14148899509576, 215.51896647535278 122.38683484051906, 221.50204822126386 115.25746645259507 M229.97877893078623 108.54779558401621 C232.84954928420922 103.19275200531968, 237.18770235633954 99.83935604274673, 237.31809978550365 96.3317011980321 M229.08838461472152 107.12367046586826 C232.06874680761058 104.33091476001314, 235.05857297085376 100.85908252367696, 238.47124529370345 96.39658835523231 M154.37295677961257 198.09491303056924 C157.15214893724138 194.36072365568148, 163.09334696946428 188.47085202555868, 169.5193909408049 184.58965560704115 M156.09669135973078 199.04385504815704 C159.42019040429122 194.78804479103337, 163.1190203060194 191.48083277832922, 168.6546512175008 182.7507150629832 M172.87628076658103 181.5857325509524 C177.48274416152663 177.09860763135435, 177.73459578014547 172.11104357984308, 185.23934523391947 163.4017955089631 M171.96159016354292 179.58933269306596 C174.12135251547167 175.17317237345986, 177.36177485818968 171.45306848730547, 185.7418076391967 163.9330204835033 M217.00516926290462 129.50966216165648 C218.58020078981684 124.44292943482553, 224.48937832067816 120.60646654933434, 228.32244583689186 116.09116481853778 M216.55442143678212 128.20182014736517 C219.07218765316293 124.40583639073853, 223.41189273435813 119.77358469041907, 227.55854938589715 116.89983294632444 M229.61315424716693 110.47866400159887 C233.7056957749791 107.769708847662, 235.49784348718043 104.8944933698843, 240.6927377973222 101.79838021041445 M230.86979958439224 112.36857289996053 C233.62638147640808 107.91229669943561, 235.96322691341638 105.22197020727168, 240.4941464951647 100.66409504222437 M157.46661887035535 202.37438314640028 C160.5127597388512 198.31952793128536, 162.57636460351046 193.5823086704718, 165.0763274888292 191.8881134566006 M156.81909690326398 202.03385444909037 C158.74337686155354 200.16818274260092, 161.46376196668683 197.4652966973482, 165.86784688871407 191.58721037430206 M178.23046033933952 178.72463384957592 C183.46766665029367 173.2842398384872, 188.0560409149967 170.7436891127919, 188.5665180982899 164.32213217953415 M177.7815821513784 178.08769537779932 C180.97040514241027 175.06670117161877, 183.74177711843603 172.464118567976, 189.99422957592841 165.24680837221226 M223.16499707724145 128.32081998735956 C228.4096465252523 118.84620046675819, 238.45909440678741 108.77440567540519, 243.39863471929908 106.04833762654758 M221.76493252811954 128.14231563819675 C228.8037076088567 119.5279760316301, 236.20023651020384 111.33745543746448, 242.3985051198274 106.2873811634315 M158.57507602654252 207.3398743774373 C162.00374370703835 202.97023351209762, 164.74423821380685 199.81569656860134, 165.91562997560743 196.44982327637646 M158.31642181982053 206.81857457465554 C161.67558042929915 203.86628036775738, 164.85855566927071 199.6612740718725, 167.6632362889877 197.4849205856728 M186.8910620368506 174.9721487238352 C188.16982705269413 172.3723471382064, 194.55890615052172 166.55818974125668, 195.96478153520735 163.90599902341202 M185.56854537880113 175.96520604169166 C188.4279474602939 172.01214726286895, 192.5046473810391 168.34504609021408, 195.42096703824402 164.0217699834191 M228.32207339161732 129.45877571227086 C233.49158707635073 121.32311346319084, 237.04159963296823 114.54083066219951, 243.2257928884332 110.04964314276988 M226.40240374503188 127.62631940123383 C230.56110787162623 124.04639803358407, 235.10115615297508 118.71459417101592, 242.49418779476775 108.69711055325119 M160.4499495461788 210.04783750036086 C163.4578779747818 207.2727611986249, 166.25006124240142 202.65035231867824, 168.43162617949994 201.17377297089686 M161.00839271075637 209.8557211914997 C164.46683929572112 207.12103738104233, 166.64427610869032 203.84300091963908, 168.96050577164024 201.05560897205766 M189.01915733896584 176.23509946617912 C191.96668243580396 174.26098361846903, 197.7853716737511 168.56304460318572, 199.2860740892443 166.48290459441975 M190.304677992718 177.03389822470297 C193.0643060735339 172.20322042956772, 197.3783158113028 167.96867672256136, 198.44190272195956 166.9431542186839 M232.61365003782785 126.00522370418794 C237.934348476697 124.81406936656286, 238.4072156750613 120.25055774584945, 245.26932595961162 114.645923482206 M233.38022253716136 126.46609493956001 C236.16499663365585 122.32955523594926, 239.56799474093185 119.90503342961777, 245.66822790580625 113.27405413701048 M163.25230570795694 213.46943741853633 C165.92410506624583 211.5769584944761, 167.37843814784284 209.65893278417494, 171.03298753261745 203.59674310980304 M163.0803864530135 213.54643697399123 C164.6388625748317 211.2162517528445, 167.11053944054916 209.48537512091863, 170.9901209597464 204.3829185013629 M194.18521747579922 178.74884851845948 C195.38125539796044 175.17400804682708, 196.428959118933 173.67415684800946, 201.66102330113753 169.91653504111693 M194.09869971114776 178.70163520087831 C196.11580196809044 175.71926364944028, 197.75104204821878 174.0465674597979, 201.63229940323436 169.5772879847629 M235.7285937831364 130.4174485307653 C238.80408383124444 126.97533660651196, 242.77110965788 123.42700051873936, 247.1738105625826 120.13671418116039 M233.85706210084874 131.28220483931798 C237.92505144708767 129.12178972465478, 240.76201685206425 124.9451251302175, 246.3101477544954 118.58149891382642 M165.21674425475157 215.49343560593644 C169.11819952115067 212.52363876315272, 172.71752908419066 211.01235340021898, 175.44896099866247 205.43098008178885 M166.04481074723003 216.5132940412573 C169.0277733257824 213.33953496712897, 170.80871841115496 210.0385665667058, 174.84125946718243 206.60160717621716 M199.030913708429 178.82367322684036 C198.98302227570102 178.04243225087208, 201.39151563472987 176.15260118261116, 206.00849119459727 171.45728107070613 M198.46572193069602 179.57510088743993 C201.08067011286974 176.8105078906344, 203.69837475230523 172.53582512865395, 205.9464620373669 171.4303919046376 M234.7148659488389 137.54764842792443 C238.19497724198268 133.10530260633703, 242.42581029083544 127.06400435278788, 245.60418840841052 125.75572404171213 M233.56014374992498 138.00720984425033 C238.47737979937992 134.21251877928776, 241.8305491062842 131.26301583621313, 245.77183510660134 123.20571883607028 M168.69267725146068 219.6417727575296 C171.6695790703816 215.91265673147964, 173.68791154593308 214.648073709092, 178.53337408589493 208.77407598005712 M169.72700389036385 218.63161111078054 C171.7377184001108 216.83925212981526, 173.51449938301334 214.98269990778255, 178.52647293390086 208.5763412493768 M199.7528005718205 182.23734831819306 C201.20674877841984 180.17233666458563, 203.3235607283725 179.33075300642898, 208.57498838609743 175.39635077471016 M200.62009203049647 183.327223973869 C202.847514830348 179.3251291739814, 206.88018764266963 176.6554874229769, 207.6133629611378 173.89220310317666 M234.76404079418947 145.04072330205358 C238.0478866894006 139.41437926062218, 241.70547352303396 132.90997607764865, 246.95230766770092 130.85849251173994 M234.36429016031832 143.68225426820075 C238.3376370907265 140.86648622141692, 240.4992042182464 136.33008528217303, 246.61782825576498 130.6851083817988 M174.71154763968417 219.65615593498694 C176.30351045334805 217.1814698186426, 177.47677559463392 214.9123922966752, 181.57488379948845 212.13454744271152 M173.53073952288284 220.24291007014693 C176.0168529710288 218.0201752700548, 177.34456157779792 215.76662450193496, 180.72743518141402 211.35254329244069 M201.00416344853448 188.39430077439548 C205.16983911554834 185.89794439495935, 207.4316610162552 180.49577365287402, 209.9584487265938 178.37443227043218 M201.11032404831744 187.90570694647167 C203.7494306099431 184.68883665027056, 207.34991409906144 182.129737587849, 210.5143825091415 177.99257179047314 M233.1256326639561 152.01254677019057 C238.95004134363882 147.33121794511905, 240.92089571769515 142.70758737712717, 245.48727666791902 136.09345186528162 M234.92820498424766 151.35505964267892 C237.99445858989748 145.69348938069115, 243.7677574064155 140.86677054410222, 246.77292913504922 135.28422966288306 M177.15959813782672 221.6117956117553 C179.7546221025861 217.7779881163898, 183.71578570721266 215.9367879467823, 184.92858955668362 213.02517511910085 M177.80585000497365 221.93034803715358 C179.54817194428153 218.49254139047312, 182.70963654917574 216.62554459323326, 185.33042132686964 212.13094124053976 M201.75147687690347 193.52470652217926 C204.69819589921985 188.45049800912918, 208.52905424052582 186.74474469916234, 211.49441313009245 183.1905042401366 M202.58467835620635 192.5274996994465 C206.62970614892623 187.57644542150658, 209.705459778717 184.29631604080575, 212.48414686815028 181.52013156610866 M232.31040946324916 156.75984991151046 C238.51749929949904 153.5816744341102, 239.0088105812823 149.28318028958336, 244.91302648360553 142.32199053967233 M233.85228837788273 156.48243908236844 C238.69197262497337 152.04825852003404, 242.6248511553858 146.166104514718, 245.61956013941105 143.03974701499646 M182.1296715441593 223.04351308984374 C190.85057428824095 214.9337073240182, 198.99188900407347 203.15991139917696, 214.43666905821928 185.20163227624133 M182.73941343574904 222.72143276826603 C192.8311747507201 208.28482833411297, 204.28441121914068 196.42096595554375, 213.43389645461605 186.69838540777164 M234.24186785368724 163.69275817175057 C236.81269459562057 156.7558769837974, 241.52073687607088 153.32012900932014, 246.8136393695053 148.88339460738356 M233.86848211164036 163.17738230504807 C237.69349408974927 159.81643189527733, 239.08820434920165 156.65658373223337, 247.07712294478415 148.08585433265029 M187.10197216828504 221.34580968133363 C193.70630261651425 214.5234424506306, 201.46204410030927 207.06185566526284, 220.6454501750381 184.63988120836774 M188.4628781592501 221.9341690480389 C196.2355844885194 213.8459713513019, 203.25583089628486 204.28852676376349, 218.77305052641736 186.69077587462067 M232.95031735812879 167.47923859352278 C239.02584459539423 164.5399527550102, 239.89622561488673 161.48083973311364, 247.7221160089876 153.06115910772013 M233.1927346528778 169.35160472127401 C237.5764590390167 163.7697891925889, 243.02880432781262 159.13924497866375, 247.2820538988621 155.18417214165137 M194.7091545634563 221.65822622000067 C198.55373775987337 216.24442567183604, 203.6001242881378 209.9206651900364, 215.66979975580665 198.93472500053386 M193.29920043691746 222.05197638541765 C198.69058388056948 216.54085098613044, 204.08041795426598 210.67664591699634, 213.81889679065512 197.8928635529381 M215.01737690550826 197.48354525960588 C217.41099726609045 194.13055378212943, 220.79875126288437 189.77886134529342, 224.45510703908155 185.89895324742457 M214.22483550151648 198.62362449709465 C217.34908856639092 195.10878686657995, 220.4606415728614 191.78457268479175, 224.68697645716253 185.99905712827496 M233.17088996850856 174.0251495494151 C236.4960614088514 171.2966434113265, 240.09370003527542 168.891059068146, 247.42333589194914 160.2217121865918 M233.56775390974977 174.37925291294022 C238.5340220158286 171.0640519486324, 241.4360546799437 166.93275440781295, 245.98071114320496 160.938491364671 M220.14929788004895 199.5866943770813 C223.78748802918543 194.159856101431, 226.70686217250918 188.36635771832073, 228.05366681312685 186.3197921009756 M219.08466019127914 198.83981813382053 C222.90947634111672 194.26771596634987, 226.3171165935732 189.75876921837312, 228.89364175110265 185.89519815991113 M235.7406969380879 182.71278413751318 C235.77053571272927 178.6134041769873, 239.8671448718385 173.83151511677073, 247.6712140757736 165.65922816774827 M234.52340698255713 180.4712373478992 C239.002941013799 175.39994867837137, 243.5170104174922 170.79355384538627, 245.7913764464064 165.79518906659456 M224.3328417521689 197.5588199382872 C233.79172154622756 187.7613130699819, 243.34339601992593 176.74841713788123, 246.35291590729364 173.7393742940939 M225.3940969267704 198.5341699016519 C231.70584493020652 189.90823374793672, 240.02270610636944 180.7280033174621, 246.57490372043887 173.26574457075225 M227.78996597667637 197.52133244480453 C233.7448459525345 191.45446501648422, 242.7742436322749 183.9572035688559, 248.31180554779314 180.07343240898913 M229.61831053117854 198.27203556184844 C236.34964216858344 191.57767982281132, 241.769061821351 184.29211080586666, 246.35214641358658 178.02748729571096 M236.81610075653458 197.8831176875846 C239.77899117091843 191.56198504894797, 244.40230503617278 189.71567442407684, 248.4178262573575 182.6273523581722 M235.03120811331755 198.7415622305799 C237.3250057945669 195.343012781506, 241.23296058086933 190.69801182408818, 247.46982643003324 184.15200379149957"
      stroke="blue"
      stroke-width="0.5"
      fill="none"></path>
    <path
      d="M245.49086761714383 119.58175361100915 C240.53968797643014 106.12114351914369, 236.9519613440061 93.92055410356012, 230.35991659747003 81.74636905781352 M245.56020732677064 117.90009278356673 C239.78697869139685 105.43516079701025, 236.33294616444783 93.28495111533935, 231.7473178766272 83.28784525847949 M231.57 82.78 C230.63077582561493 77.09034112870013, 224.9564876457791 75.80893664130222, 219.23607999256254 73.34861049424245 M233.46004833869748 84.09383078303912 C227.80283690604125 77.26091361304938, 223.98975414494552 72.620277804603, 220.10933862202074 74.33576818365557 M219.68608587434545 74.83027673980258 C206.94847892525763 74.69618261388634, 199.22960028105163 75.26320008639341, 180.67160430769982 72.47286935722768 M218.96799163129518 73.77608450508956 C209.14648478851493 73.66447985070145, 201.2012498867913 74.68111480293824, 181.20716221601938 74.82549122052284 M181.3565362652167 74.2564828784583 C181.0735154296825 70.92090494649626, 181.2921156536299 68.99827472302513, 181.68942068067173 64.5019194805994 M181.81142837701714 73.83272450044673 C181.60607452251898 70.96895120206587, 182.30383668795898 67.42746192004205, 182.4955629486532 64.25049830091899 M182 64 C181.516159924305 59.83709118812931, 177.44936300805924 56.65297861538709, 175.08440135833396 59.83025524024557 M182.7517817345931 65.46583617483957 C183.91870483718324 60.22179346713668, 177.69211471834885 55.95386908025772, 177.26541865872903 55.79402562958896 M174.33415009399076 59.990527704369406 C144.18614667405166 57.408096751862104, 113.47765801496881 57.22684940526238, 25.58399277121694 57.57398205536953 M176.69639517552073 57.71191731983168 C143.2237771015395 56.69969531628368, 110.81845548731118 57.02540138866488, 23.679187679978792 57.62947428774421 M24 58 C17.61555046794586 59.398284136120154, 10.808952205863076 64.57378197946733, 9.276389762390856 71.2524372656275 M25.25553175817809 59.312967583163214 C17.970387651952386 57.84021727039577, 8.48523110976286 62.723894500192124, 11.011149475558318 70.37619008156288 M8.892931684681423 70.68752503949611 C12.24572608812935 116.66729782627925, 11.68399617931827 160.64441057799266, 9.991342745023259 182.43636359582942 M9.44545124560664 72.4973372519559 C11.4090447886919 116.1325535412696, 11.42619584068403 158.82613436031755, 10.92980429356955 183.4946726194447 M10 184 C10.196209379594658 190.84502666218225, 18.152060629049316 197.5464433977651, 25.18072319730803 198.55557934811395 M9.306739229338046 183.24549793998688 C10.794275920111755 190.96614622498896, 15.163683746569715 198.85314971404773, 22.305982078118564 197.2575953981389 M23.41824274123451 197.25738894496644 C31.156119357175314 197.9143697083948, 36.09550222522119 196.34107092804086, 42.818950714100104 198.0233135107851 M23.494900953349127 198.68385095063985 C29.152140228023967 197.66332771161746, 33.8464232479691 198.60680751991728, 42.53199793455193 198.00204395076872 M42.6 198 C48.520856191947125 220.91856387503987, 76.37151863467 230.49750678850967, 90.6728382544524 214.2666930306229 M40.783214345326286 197.0858354023177 C45.06339948134283 221.24749103849032, 72.58129973805295 229.353919242206, 93.82544703332842 214.06977681341704 M91.87010637222122 214.50625994584556 C97.00311891618612 208.48909721094583, 102.08778149332304 205.87169907369247, 99.7987199961583 196.6170226819056 M92.09763193273591 213.7408843898593 C97.87763976654779 209.140322412284, 101.37897127524624 204.36659333243313, 102.22713522955993 200.16444094869027 M99.6153235766013 196.0007645765982 C116.09227925719611 199.40543246383274, 131.61297514141458 198.50061032127786, 155.98641199730872 198.2472008750043 M100.93178286726814 198.46739671103145 C117.17679665634921 198.55017897227168, 133.98305687859923 198.53550702042762, 154.96549145459787 197.54919466955118 M154.60000000000002 198 C158.4430739668239 222.16515708644718, 185.4371672274664 230.17156591481165, 202.798317979055 212.59533525897368 M155.30245411426495 199.50078909724485 C157.05977228238496 220.0818277468772, 185.93206272592275 227.6290368114849, 203.98844787030217 214.04972384366044 M203.87010637222124 214.50625994584556 C210.61107744093673 210.06511732402595, 211.64932791767458 204.88188610313034, 212.14282810856966 199.9038681115447 M202.03435815952136 215.37736377297253 C210.60657160185175 208.8430310221719, 209.87597015617425 204.37928207348133, 215.6254771075921 198.12056072259298 M214.35781831326284 196.97827155015148 C218.78469930577188 197.6460606652806, 224.7865349299563 197.35572952443042, 233.21157379407614 198.19955768778075 M212.84103238497374 198.73786749780967 C218.67490607424142 197.29490610584529, 221.5959810228917 197.27365892780583, 232.7026287901883 198.7816937150723 M232 198 C239.89065650426784 197.77770059698858, 247.8089614066122 191.3494543285712, 244.78385172976834 184.61174034812234 M233.79330368066186 197.50212285926244 C238.05329937720177 196.6803614921283, 244.15801342015914 192.11546901985292, 247.7680247809527 183.54099236732154 M246.8548056204821 183.67594419179756 C245.86869195247306 164.46005064192178, 247.3589358024419 146.70293645575146, 246.96557109665176 121.66926403815216 M245.66786286705502 184.82702384231263 C247.09803002322573 162.4943115771954, 245.16533570724974 141.04560525385446, 246.8940969302402 119.5148570744226 M246 120 C244.9689533681479 120.33851820510795, 246.75666765773718 117.88322900881684, 244.49040564388042 116.24309824033507 M245.47990405190217 118.22928048939107 C245.32083807615487 117.918562256638, 246.68811057008747 117.78266029199528, 247.78140359324075 118.09917584011005 M180.41673993615805 85.9499417983383 C190.1115413556738 85.72607936558151, 201.119221154667 87.42820541340734, 216.8271180237486 84.81960437918083 M182.96765758870438 85.22676988242742 C192.802938226604 87.18286647130952, 204.34215566819944 86.15748085039823, 218.9165831876623 85.87860885490086 M218.57999999999998 86 C220.58181654243418 87.02809965589043, 221.26870221309963 87.93502040652601, 221.47172879180684 89.23956194868963 M216.93592080159118 85.46091726486077 C218.68579280498358 86.56936349788813, 222.2494981537936 84.8267615659016, 219.46032256717515 85.22170397730659 M219.3228617657965 89.0515509778112 C224.21434908931568 94.825948780178, 223.29545378436893 100.47838393550522, 229.36833340428717 115.16756803385343 M220.29763709070696 86.4530778182491 C223.35625366994122 95.91502450952765, 226.9778235949244 103.33658688901912, 231.31814370755097 113.36625274324872 M231.33072167901926 112.96987672607125 C221.6224174957492 113.96216830340003, 210.89683297382075 113.98598453156686, 183.06518610916075 113.73523671174355 M231.72916954443753 114.25453544040549 C219.13863953664455 112.99315169526804, 205.22773609472583 113.92368766542455, 181.99141890179135 113.30754331466231 M180.5106847396957 112.14736132101584 C183.56036201100784 104.93203860184579, 181.6683297203565 98.37710416473118, 182.46438300754428 87.81811540374687 M181.0304120639135 114.7974314895437 C182.3904837363418 103.87113633350411, 181.01453384054184 93.65873038940903, 181.69405345260557 86.25971354453529 M22 72 C20.704399254280325 69.3844716296364, 21.1947102525253 68.30221515751639, 25.067734356484262 70.61423814695509 M20.31632379499747 73.26644651292503 C20.56350109996632 71.59041740390425, 21.54005419886029 68.17431760431705, 23.531281533765238 71.29690069058758 M22.595513297098094 69.17928101528452 C80.48199287811354 70.72356049390216, 138.76823456319738 68.23484023397445, 170.88757500212773 68.85713521480382 M23.602725307334964 69.10181800951489 C70.35948611604778 68.88902199106052, 118.6374034317177 68.98581092470957, 170.74331635070195 69.5035274622182 M169.07674510481138 69.66820957077111 C169.93887286946003 86.91930240032346, 170.45263609479417 104.46034380788149, 169.97588027858347 136.82403171541065 M169.87284946691946 69.47922633106745 C170.80432533313635 91.11304512372591, 169.73987118790302 113.3561385501252, 169.9987276039056 137.22963287562047 M169.9289949274157 138.4930375636737 C112.80169572239475 137.5959301311856, 53.27485310494136 138.22164659871908, 21.291450956510197 138.9636708513935 M169.08352852581692 137.72085917597383 C116.86115375783884 136.29646897380496, 62.1519556308403 136.32636653097464, 22.37025899378611 138.52199507624917 M23.75345066831933 137.16471596164638 C22.021434750480946 110.38852999921629, 23.72655496940431 86.15546265739182, 21.0086060401601 71.65112911884043 M22.566568937253713 137.0581939230085 C21.54382615342082 116.6700634464512, 21.907264940555372 93.36008078368603, 22.745067757048457 72.72609571719727 M72 210 C59.67148452960385 209.52060628766793, 48.45500190136102 193.7857730038531, 55.41886087812459 181.07697229164484 M71.99083254309083 210.5028757696049 C60.12977932461559 209.40865000163998, 48.142348884973394 195.3893715379161, 57.425950945296094 182.01959779960114 M56.411542731880104 183 C63.28115260769868 172.70249620372988, 80.9912014474304 172.61728030136297, 87.23274856805304 184.01802122162525 M55.02534770908605 184.53533894297698 C64.55359561698077 172.55240883652615, 79.69093318308724 170.050465973379, 88.88196873667874 184.7590652618733 M87.5884572681199 183 C91.03044328675915 183.8960145465985, 89.82581211964107 187.02973951448763, 91.50670856478833 191.2625899231934 M86.3740054722266 181.0165577675337 C90.6688010665105 185.46942854907715, 88.09620397641365 190.69953072536833, 88.42420900887325 191.2724413725789 M90 192 C91.46201643626816 203.39403159878634, 81.82753405291002 211.14044305073793, 72.03827927081278 211.72834756151065 M88.06949696728468 192.75531982788314 C88.16245784145886 203.13892577688958, 83.40050299821459 208.79028449632503, 70.39087648744082 211.3981381716288 M156.19879673634614 184.37137249551958 C135.54763796313236 185.24479871211918, 120.12458123252414 186.34822802241646, 100.99195446097579 184.43616861805407 M155.01293753604725 186.27043349769318 C140.418193662138 186.6746950091364, 124.84960321962677 185.22661128775832, 100.57041077587024 185.63114081845933 M101.39999999999999 186 C97.60412966959595 162.4656055306052, 69.97704020489074 154.70093380203508, 53.76905553853207 169.89337352451682 M103.19080340319178 184.71571898348637 C96.33922338814541 164.97476249869914, 70.70812262003064 152.5173575052286, 51.5048278412931 168.61616898953218 M52.1298936277788 169.49374005415447 C46.95610880432318 172.50084471706805, 45.36046975322705 180.86616892587932, 42.56540431807349 186.80789991472741 M53.78225571714205 170.85020044077643 C46.19842364808044 172.0451031263375, 45.907213010408974 180.52621700136044, 43.11160906985463 188.17308840792535 M41.19396797267277 184.5757980104753 C35.42502335401349 185.48905583241492, 30.544446506638106 187.47317134841623, 24.212411281011935 187.32336135465118 M41.76787086048809 186.0320448727405 C36.44698332527187 186.36680173356868, 29.321062314719512 185.78520599722694, 23.10186058397312 186.51593625489588 M24 186 C23.271670359425112 187.50672355989462, 20.749904318742956 184.8943914766634, 22.49334591058667 182.68369410060242 M24.278219604372932 184.5955475668828 C24.838582172570074 185.34093872255355, 21.55149895503553 185.57273289325715, 19.898314689806824 183.090212694432 M21.236411608879386 182.9541058392234 C22.280702788189842 173.9462085235916, 19.99177652196547 167.64044473931875, 22.26619019101969 149.94420444164612 M21.912729601061912 184.11735704076779 C22.11920774255261 176.2570728354134, 22.367007789678535 167.23294335513157, 22.502185323607268 150.07365070420926 M22.104541579849066 150.90924034450484 C52.58303356846813 150.51530134980075, 84.93632995827203 152.36792000675115, 171.59141419508416 151.44698787917676 M21.73017459344418 149.5968014998174 C77.00263287541627 147.88051571679122, 133.09924321106527 148.53856119648412, 170.94206789496226 150.24903752950976 M169.54973658826896 151.44796625002405 C170.77672408732028 152.45302439228414, 168.84594204973368 159.39559966463779, 169.35252697387054 166.00426860072398 M169.88997740463677 149.30330892025978 C169.8062351268102 153.92294769857853, 169.3933385135189 159.07296131512942, 169.77396184189465 165.70698817758645 M170 165.48 C160.442276445399 170.85608411207613, 158.09672058788075 176.25209182346455, 152.72735698966812 184.9385893675413 M169.58872594906788 166.46066119930248 C160.146021661414 168.33332541849833, 158.4708077419488 178.0987169816665, 153.85610567938562 185.10789315496186 M184 210 C169.14098310739595 210.5593178887194, 159.98829253134497 195.8840312354559, 168.4778740139316 181.95490361862358 M185.08817451707898 211.35133107620172 C170.7575662590726 209.80434640201116, 163.39330841478542 193.39512528677776, 168.22105928649745 184.61114261207595 M168.4115427318801 183 C176.9477640989379 169.23809353552048, 192.9680888910792 169.31934382207018, 198.2316275760742 183.94307885294052 M166.70156109163483 181.86373290740394 C173.2557715581203 169.4886219359899, 191.7046494086233 169.6854469513151, 200.11010800216224 181.11191129568144 M199.5884572681199 183 C199.26398911590803 185.38086828424102, 200.88521878333617 187.44032301990393, 202.54368966595138 193.07887855370257 M201.2837582993386 181.24120749060438 C203.42469394538142 183.7980694084828, 200.78362060131403 187.83119549036283, 200.7368704949295 190.07074153655898 M202 192 C203.67148951212044 203.30036969299928, 193.6758554184121 211.31951924701093, 185.67296055059336 210.29962742312836 M202.7794332701356 193.88750582442967 C201.22790096923418 202.20665743756, 196.0048103107539 212.0263645566742, 183.87517355263057 207.88987637797328 M234 184 C232.3096627457503 183.99246687213883, 234.5238962554975 185.98529940292167, 230.50718456955684 187.67366801887127 M234.50559331013153 184.22540250647626 C232.01107490854554 183.81667846100018, 235.36141677039058 184.52006897187147, 230.81141559577506 185.4175531915527 M233.6733728371405 187.60766330250829 C223.8947996221812 184.3618750908255, 218.1610293682106 186.32750454992865, 214.98691394779866 186.75248742306252 M231.74451674327506 186.42058263432114 C224.61184701277193 186.4126005181044, 218.25379280120535 186.82108052165026, 213.64197271254946 185.15624055548685 M213.4 186 C210.80206488548592 172.139908647893, 198.76324815510193 162.3675664884026, 183.1662921313524 161.89841376249097 M214.77584730740773 184.11460842402275 C209.0299091932816 173.8192202506509, 197.14147067519608 164.16163017704645, 185.71735747030516 161.1608874167854 M184 162 C182.8792262142607 163.93290705966334, 181.33590508575406 160.73146533621556, 183.106523729025 162.0620007266333 M182.48724179479672 162.9133331990651 C184.67441351449025 160.89053522209105, 180.52547092551998 162.15834728682552, 182.96979433284838 164.30994986641352 M183.1940329409797 160.83810284492804 C180.04543463352638 154.62645902034535, 182.34920482620203 147.50804251473085, 180.73141769418714 124.60293129393278 M182.03267135734916 161.28031993040614 C182.82418660312126 152.64853680917497, 182.63576051289394 143.84329599013074, 182.44825281407185 126.77321476418881 M182.86179997455352 125.88363518774236 C197.6650193345815 127.00415185751342, 210.66878828496587 127.39787635529828, 232.66442290246087 124.35663695351383 M181.1355695529643 125.2191770610394 C194.94860795904236 125.96575188320021, 210.53871246278726 126.66459861852992, 234.30345367282462 126.40723818487267 M233.1033439125072 127.47626300950343 C234.14031647087566 145.25015809851098, 235.45178904120274 161.59721429127103, 235.0670903134785 182.32848179906296 M233.37853733473568 126.9131232182273 C233.88091390873225 147.0495152708117, 233.90045423421634 166.98297711611107, 234.65814672009645 184.1417930771754"
      stroke="#000"
      stroke-width="1"
      fill="none"></path>
  </g>
</svg>
