<svg
  xmlns="http://www.w3.org/2000/svg"
  width="1024"
  height="1024"
  viewBox="0 0 256 256">
  <g>
    <path
      d="M246.1231772995848 121.7016746718241 L228.78102169920766 84.51044912844947 L226.5289374556002 78.01002773790029 L220.64274432935954 73.07336670104631 L181.21080853815636 74.21458434553462 L184.0165352101353 57.89295626793869 L178.765286322649 57.04877247532915 L19.456734337099725 56.43013295433592 L12.940663327920577 61.68604423300829 L7.45540290853757 72.28010996447429 L7.980319297515974 189.67098457714397 L14.096341831599917 194.76073652944538 L17.702006967451176 196.22270739216998 L42.221699800384485 198.77298403178568 L43.85806402619302 206.07260806091728 L55.285900109792045 218.33336798837183 L69.7129184958344 222.7083018401548 L81.57982107497116 218.47009876184111 L85.44186079958821 216.2717066908917 L100.73413680974481 203.46331692995767 L98.18866748875688 194.62301733737823 L157.89443634951903 197.91619923644222 L159.7783450852014 211.49573914986354 L166.9893339521803 216.5942685099987 L179.94675946571653 224.4419309507908 L195.68711312218173 217.9616301464799 L205.8476497703463 207.69839825243443 L213.09215221556587 201.69813212119422 L231.86224609075788 199.12175823141803 L241.49295959536798 198.47254503727692 L244.03736862391824 187.98280461877735 L248.26061840858299 115.33236884447611 M184.39721600340312 87.27382787264214 L220.88748158794456 87.95245281332947 L233.87478103089018 112.641214551181 L178.8697486848576 115.97943109284773 L184.82838296147804 89.14488173077636 M25.417780697527604 69.41787009150306 L20.75242981341961 70.73236430487732 L170.95233351372937 73.62639521477708 L173.46854354645734 138.02358398662344 L19.281510618477654 138.58534262877066 L21.756709827338028 69.50800881831998 M72.82033331027762 207.248408846369 L62.016534494573754 208.30566219138223 L51.99200766149962 190.56963347029054 L57.71445478240503 182.52292150169194 L69.86351071801045 175.98272267880705 L88.5025859816998 181.72674806645603 L92.96526523325804 188.4218311565541 L86.63129142645556 207.6382408409832 L74.08139575767254 209.75031414524724 M151.31697013233548 184.4555913225046 L99.04928381383093 184.68163412665433 L100.59318947782575 174.33063237327295 L89.20497276108037 168.38927593749133 L70.73252036921207 158.7442189507159 L61.990058281675175 162.97008506810786 L53.8971618582522 164.2417147016554 L49.866485595342425 175.2297566178892 L41.48486665156451 184.9861205054639 L25.18365635813268 188.37555714851092 L18.08022443748025 186.86702354688066 L23.716711460623316 147.13286617796456 L168.1047552300926 153.24117803826627 L168.8632278421756 167.97416871357697 L160.86891061829164 173.4488411385163 L153.9691145096374 185.8817963382651 M181.0923378059524 212.63172201423714 L172.3233243324633 206.2242951714292 L162.2855845615711 194.7268738333203 L167.91418997320835 179.23376109288367 L186.98088582119001 175.36118692752513 L192.96064624345328 182.81938397465825 L203.51043917697248 195.812136357894 L196.2466743724993 203.2028335363102 L180.17851469708856 206.6078647150366 M236.57966210054792 182.98022138564096 L228.8749023310099 184.57845028536772 L217.05186857294834 188.1890052569028 L208.98527883916475 175.79333779974405 L204.17733116805343 172.04292335263722 L194.11761594429353 162.3438396040841 L184.27090634583956 159.94002051955218 L181.81574872657905 129.4725453213705 L235.90583149334012 127.09274667903692 L233.8907150125 186.65427307261928"
      stroke="none"
      stroke-width="0"
      fill="currentColor"></path>
    <path
      d="M242.33473259070448 115.7081649048574 C239.40358701977684 105.11833086692224, 235.90628309574015 90.55967075163575, 233.2388809095211 82.62583426316066 M243.9469768949996 116.8571933319936 C242.6841963746283 106.59787531571607, 235.57341358324103 97.87481971729966, 232.26309669791138 83.09237347448932 M231.57 82.78 C233.35656657173223 80.03900850530005, 225.42654038184577 71.48562833129823, 221.49915905310536 73.87970702881736 M233.40554666645394 82.30117727235249 C229.43904006172033 77.3402809478065, 222.19850882076713 74.84060951510823, 217.07314150053207 77.89669045216164 M221.4591005734875 77.42053290107741 C208.59522648383322 72.82947751040832, 206.5571782445734 74.18811853358925, 180.85836427483756 74.67305545778201 M218.96040891939782 73.46450357298517 C207.48419620428925 75.04325793220771, 195.65107709500424 72.87564712180415, 182.17554944901752 74.36384452572757 M181.78172968342483 75.3985593501302 C180.56277404398003 68.36461525590728, 182.62854761246513 67.97711132676223, 180.38884576282535 62.22539093856635 M182.5594866696851 74.95936256693604 C181.83420720203895 70.95160755716961, 182.76590404734026 66.04646760622904, 181.0292812009872 64.49067241417328 M182 64 C182.3519681416688 59.964472393397756, 177.3377378856967 55.40339662429635, 179.96284605328142 55.409134317985334 M179.63816484913104 66.21595179444417 C180.82788977805708 59.32551584056521, 178.9053739687403 59.43501431216587, 173.33462347553413 59.237764706826475 M173.55373174816475 60.797674728999596 C143.22322872186152 58.369443606448826, 106.1003765823629 55.145297981846895, 23.62581553578075 59.885361610601294 M176.6311458140209 56.05083491165019 C144.45810828779977 57.557374851080866, 111.53575773921047 55.72544284101867, 25.247468702657624 59.95819726283768 M24 58 C14.75979479881783 60.65924879691696, 13.17562341403057 67.60087526161685, 11.590157987187359 75.4314676616229 M23.571705331837965 61.796620732406375 C19.45055970787237 61.44268530883602, 6.189930063368891 63.18429205455714, 10.538049150540171 71.22506597938047 M13.529392984528192 75.95141228830884 C4.932865769122831 115.07414475308455, 11.381717022581629 156.2038081695214, 13.952142809727649 187.67254372983024 M8.175664811407142 71.85969391563671 C8.535791954094758 107.03059844967868, 9.695733481533278 144.6095007238071, 10.188018201228823 183.80602803055714 M10 184 C10.11378656359573 187.77512910273927, 17.616477670563267 194.30839313418235, 24.549381666023514 200.44206540339525 M7.521351405746673 186.79935062264718 C12.63826139959608 196.0429073765147, 15.611632442180252 196.2560867859884, 22.403705919839098 194.2872087564109 M24.90948824777496 197.83253737015306 C29.488201373373716 198.19969092511877, 32.54653528670949 195.3127881642736, 45.451363081419146 201.3938034430508 M22.919442593049975 199.77955125403545 C30.423007782787604 196.55296338144498, 37.934922419693315 198.92193976017305, 40.923705989996826 197.22659981527156 M42.6 198 C46.55269016690071 218.39583957969776, 73.00835551805639 230.40731422551085, 91.364935705481 215.74439958472243 M45.81825526538419 201.56509545333307 C51.00193173067747 220.9749007831313, 74.29885213177303 233.18736217854132, 90.36841531718581 217.33622337140395 M91.87010637222122 214.50625994584556 C98.26945026949163 206.3349006870488, 97.65715684307035 204.54123098641492, 101.95000611830233 199.0963019607151 M88.54913452821 212.40987368304815 C96.70846805505154 213.4644929701388, 95.97110250469382 203.89674808032814, 101.59625427564535 197.34964161348697 M98.83170848332595 197.11268519999174 C117.28699058473521 194.4862372158034, 133.5850611421107 198.47226444560056, 158.56334238729704 197.37273314979794 M103.0970967036414 199.95683825953628 C112.26136823962725 200.29957984661192, 123.42906949596767 199.86939209814716, 154.79855940949767 197.4848109244467 M154.60000000000002 198 C156.22294406530762 218.49942427144472, 185.36061145778518 230.08535689520977, 204.4241599247965 214.36267351087145 M152.4990592233584 194.90045515114318 C160.58986193633888 224.28191463750022, 184.67732043041278 226.69627225887695, 202.155340398905 213.6483641566582 M203.87010637222124 214.50625994584556 C205.58508628583525 208.84460811284373, 208.16824981177558 201.55347514299768, 214.17495954270797 196.95528501202236 M204.59202322720293 212.62327859162335 C209.53413293515518 214.03143702970684, 208.15944291378906 201.13866474599462, 214.49667971900843 194.94457107824954 M211.49607866825957 201.2875944880936 C223.5565589879227 200.34061540642787, 228.78839729824185 194.28732770406916, 235.52292282798464 197.151915307303 M213.4495690247304 198.52871859956096 C217.28871423729348 197.38963032025305, 222.75423944053398 196.87838970011177, 230.49615111803763 197.54152029240745 M232 198 C236.49978780918875 199.32260142092957, 242.92952698279817 188.63856805938912, 247.71746139982045 185.2905116073686 M235.04665935694558 195.30831225823584 C241.38089725114745 198.56221775137934, 245.9197464266076 195.62962060820018, 250.2422681631754 181.3585618492673 M247.33765516258504 181.5667833152732 C247.80418382069556 161.15472890831674, 247.96078681625158 144.04391825314286, 247.7973821287685 121.30152872039875 M246.67519229934464 182.52229995050044 C244.02513403137564 170.70748958369, 247.15423143155996 155.74446600238338, 244.0730036801578 121.35662596150124 M246 120 C244.0178335032381 123.05354467703975, 244.1177848498071 115.26541455391481, 244.57073308673077 119.48536804302262 M246.16209681944073 121.4790355657981 C250.17320660676967 122.01523289380485, 247.89632544592786 117.67800058623219, 249.4780021790623 113.79906130033967 M182.35498670934248 82.4998288175873 C194.77138620699685 86.2807646707534, 206.9851145042259 87.15058877584617, 215.52480770780707 82.24940547318238 M183.47786019581832 86.2056864488717 C192.07644310351677 86.93306450016492, 206.81812680242348 84.61748016202743, 216.87915519157804 84.46840966035136 M218.57999999999998 86 C218.6659904103961 82.30627055732643, 221.64238131634843 85.37532944234684, 219.71393855939107 84.71154319443501 M221.54555251914923 86.4939051164128 C217.45274243318167 88.18538270738873, 218.42540569869163 90.22664994875085, 218.8457702649875 90.38198700719471 M222.78811683051336 90.46722309538077 C226.74252250929237 101.3213941794612, 230.96672255211257 112.15704436490796, 232.91306233453548 113.01731376891156 M221.64914892710524 88.8856200875397 C224.3792120772133 93.66596761307181, 226.63526210651864 101.30915454147902, 232.09285585634223 113.78748573079172 M232.66963851610106 117.60685186576801 C214.0965301428731 113.6919500470713, 200.6859849341329 112.18885766222206, 181.0617995159634 115.51716488855655 M229.7043300434865 113.53569571118575 C220.77205426132923 112.10063196103758, 208.24019018946214 114.43245476672293, 181.1197014186403 114.27812911465803 M179.46461586664182 111.10787625911783 C178.54428135317923 102.79307727074747, 179.66431564644236 94.20732377791357, 178.92249204890848 82.31364560094022 M181.71799767848898 115.38727554221164 C184.10958170044717 103.2553735679079, 183.46863901044551 96.06907958477355, 182.85040746242393 87.6521776239347 M22 72 C18.386530461696488 70.14596288756151, 21.318999381804197 70.8061463693501, 26.22278747313844 68.86735864491706 M25.155293646244175 70.2304088861623 C21.296824670713956 74.10051817102541, 26.19271085619295 66.79458309392803, 22.87729013014048 66.41674569438737 M27.27746235908183 66.96591292766706 C76.54914654857832 67.58552506843782, 130.17197518144522 69.33983150873435, 166.10059635175767 71.12275323998655 M25.491009856171384 69.96172816229469 C56.85022460689062 70.092235889868, 85.3713845235855 68.03278949393307, 171.14235957182277 70.96340534195755 M172.06414035236486 71.51409615377867 C173.61251625831352 90.40195880185549, 172.16096080408602 112.9773829949036, 170.59701250185046 134.60641310072745 M169.95506165413516 71.64215930912134 C168.74804027863337 93.14201607554448, 169.81954560661023 115.99343533624697, 169.15123616827657 139.66458104677986 M173.91970264461065 140.52465648350181 C136.1629975876387 138.05328607189531, 110.48628205109495 138.47306645190682, 25.39170984793186 141.5368135422389 M168.34263665800688 137.53052842531238 C139.87804169987754 137.6677403370408, 108.51662227896477 137.93960611314458, 22.038425972424676 138.71495053156596 M20.99946136626386 135.90248388616584 C21.39266317228413 119.70347284526159, 21.693142068272586 97.92405249522245, 21.700197338603882 74.36991544117508 M22.03264299943838 138.48249286793515 C24.245890331313223 116.91291782889569, 22.547684816385644 97.67779913476821, 21.781098383771614 70.46435665537213 M72 210 C57.66849836767006 206.15537332219307, 51.77084344829112 197.73615846883428, 53.49023355413205 185.2699432061039 M72.9888567965408 212.59815559929257 C57.708565841908865 207.01701622621636, 47.88829494237589 191.34068270216838, 56.47714643859239 183.4295608757834 M56.411542731880104 183 C67.28570557788446 171.33352481058733, 81.9945282045021 167.20450415679443, 84.43171929719624 182.26455059891833 M57.37214281936437 186.62580530416227 C65.62593064643214 169.5599110074209, 83.94151865785923 167.88228110691975, 84.11159677350082 185.28689668785177 M87.5884572681199 183 C90.32844155569313 185.9005513367724, 88.60465855535011 188.71320733652058, 89.99917655266125 189.065677124506 M85.33768645272056 181.76402662301248 C90.58991082341011 183.9526453411967, 91.60069523957905 185.5461110194198, 86.6089109431338 190.09727366302397 M90 192 C89.97293175069345 198.02585202657502, 84.45397309183224 212.26267729223176, 74.62647186527373 208.28240940464687 M88.82770181613715 190.95142822120408 C91.2977361445509 204.75323066179428, 79.71814321413551 208.0457073567466, 71.46559689180556 207.82164486506326 M156.01002863965672 189.3874744166407 C136.38782092497956 189.17296765724768, 122.00445699726237 185.02314888383077, 98.48653927204111 187.97754278439973 M155.6543049249148 185.4476086863296 C141.21938671229918 188.8730668430726, 128.4120592794348 187.75110278457188, 102.19503665020899 186.4439805016708 M101.39999999999999 186 C96.73228458442046 164.26026477763847, 65.9872490694145 154.74864181654274, 54.237447042703344 171.0847386364984 M100.5547602586014 182.72601784173665 C99.82004056980674 162.38687019220444, 67.04242283115569 153.23551540200836, 55.35658898766951 169.08020406631292 M52.1298936277788 169.49374005415447 C43.609063955577106 173.03386954840653, 47.69279690981651 181.97003384341272, 42.91756384137443 189.31803991363032 M53.22166537018589 167.53712406477382 C49.711631455823365 177.74007971640359, 43.99176697486407 176.09382112829473, 38.18439344048022 181.6726352736586 M40.720441636034664 188.98149469459187 C42.49974984147786 189.63688342057998, 34.98094374706699 189.56111459712776, 25.84746093937084 187.1169336865054 M41.51324483402833 186.58499869253689 C35.45374790486788 188.08262731075843, 30.441697181481725 184.8183392581936, 23.389127581913215 186.12207339326207 M24 186 C21.457269008333263 186.5282266043315, 24.33951763716476 188.4819886963358, 20.424688875789258 183.88989803771182 M26.152548678906662 189.0695865555957 C19.428833496466975 187.97312625720113, 26.597577704034684 181.9794167032063, 23.359016693759948 183.77320950518353 M25.45862664430043 180.0487948924909 C21.864468371966076 174.64598331892648, 19.22513928219438 161.99347925124502, 21.94308349078686 150.45231727531342 M21.112106361206905 185.4667185534265 C23.049441343655356 175.3582472722636, 20.53812149143376 169.27683895875649, 21.794289964272437 149.1792221254822 M23.30339255059175 146.61472724174283 C82.53824388788831 148.46031995279125, 139.93268758165996 149.50296389593979, 171.44844061775942 147.43655199754548 M20.961717592975454 148.44809906286974 C53.5078687106575 146.13682965731522, 85.41764992050744 149.17877868161838, 171.8458610026433 148.60605296386004 M172.42037549238995 152.85550628998487 C167.80961538915804 155.2406527508789, 169.00691394680732 157.75112608945594, 169.11501468167438 167.06615992949378 M169.21276165245501 150.06732916556456 C169.9490295838141 152.90638160058174, 169.9726481975012 155.53975696860292, 170.8698529824798 165.2653210260193 M170 165.48 C164.0464479200491 166.66352267560873, 158.28245724182918 181.073047268034, 158.55193323360243 186.32885942910613 M171.15741052273682 167.87639908965494 C157.73077250834095 167.6100294129007, 156.96674681024652 174.32972195379122, 153.36244753318118 185.05614156569968 M184 210 C170.4651686070871 210.41024914545466, 157.99135562206666 191.16957551389334, 164.43166967070087 182.46947407858713 M181.59231868329235 213.27301299254677 C172.81160073454492 206.26926464189467, 157.26222836866472 192.6883759999611, 172.45261323101818 186.2755359460009 M168.4115427318801 183 C175.54502550644017 170.26675408951354, 192.36746514756072 173.41330320786153, 201.18837041103725 179.0527749552764 M168.93856239381472 180.39631981137927 C179.51875775044059 170.9019807664197, 195.20455107331247 169.94875667168375, 196.74567089074077 178.54894638992062 M199.5884572681199 183 C201.8332037374057 185.80504581717383, 205.67981041486559 187.74633749460156, 204.4928287703998 189.05910735062747 M203.4836754825054 185.78339621904217 C196.85705003017014 181.78003603552364, 202.9386220864933 190.81112088314703, 200.57982441440691 189.52662933996186 M202 192 C205.24866969732244 198.41373110605588, 195.76269047914434 211.8549433278131, 187.83306487790745 206.46155477588124 M203.18616070186496 190.57886914968017 C203.74675350724468 199.81006242250285, 196.7379972167452 206.82499478829112, 180.67113862337382 209.06033338536062 M234 184 C236.62007355016073 187.12699428923827, 232.2643456750123 188.49288598609184, 235.19077305657595 182.37474230772523 M234.3862182144499 186.63443526560448 C234.39752077885248 182.2420160652955, 233.01097232822963 189.97096661813126, 230.9437933091923 185.30734971154857 M228.28865706561163 186.93916664265458 C224.0291008088416 182.91196995990168, 221.60461520855904 185.7640747446665, 212.40584626734883 189.46015887486644 M232.35263827714803 185.08663849365058 C225.62824722846474 185.51470375721698, 216.76581139763425 187.44328366759305, 212.6678746339015 185.5469063434935 M213.4 186 C210.06806943931258 172.3703566319472, 195.3827988737288 164.4031333341236, 185.64444599235716 158.35428797862124 M214.4562870861719 185.76782997325827 C206.30713597327914 168.2872451926767, 199.3849347350321 157.5803516235638, 183.9139954949974 162.378663725502 M184 162 C181.84301773237186 161.76932104897892, 184.3630750458853 164.52910053007983, 185.8404706787339 164.019618578096 M181.73613006295096 164.653015328658 C181.8272006265654 160.6819036254536, 182.17790196858002 163.256353354746, 179.22767523953675 165.0974604078482 M185.6878175074703 161.02853132819916 C182.8647118391327 153.05979665063722, 182.39898663270148 137.3683500587142, 185.90871054122778 124.74944188730586 M182.65343049237782 161.5961451636719 C184.19636287515158 148.4049176282896, 184.2088627357995 135.3744530893784, 180.57172296920828 125.8267390243859 M184.66042197045465 128.7626921647462 C188.80693780416348 128.1464147984071, 205.95218511152927 126.8273073717699, 234.5733049943774 124.82689131239374 M183.10067331797796 125.66523359207825 C197.1503625377067 124.81722270155053, 209.81839058356763 128.28371580935516, 234.77602064655716 124.86990092731065 M230.85736088261308 126.89818067246358 C237.07458103378647 144.55217533790346, 236.7850117879854 169.914953564598, 237.20093671166467 183.0543718160637 M234.6158561762126 124.7995496539533 C231.23234015721778 139.21824589400077, 232.8513319576713 156.89430140629736, 233.95355543038892 184.43929636901296"
      stroke="#000"
      stroke-width="1"
      fill="none"></path>
  </g>
</svg>
