<svg
  xmlns="http://www.w3.org/2000/svg"
  width="1024"
  height="1024"
  viewBox="0 0 256 256">
  <g>
    <path
      d="M12.589346882974287 63.94427201709006 C12.589346882974287 63.94427201709006, 12.589346882974287 63.94427201709006, 12.589346882974287 63.94427201709006 M12.589346882974287 63.94427201709006 C12.589346882974287 63.94427201709006, 12.589346882974287 63.94427201709006, 12.589346882974287 63.94427201709006 M11.403071802278134 73.41787499779623 C15.114744901208233 67.92443917002183, 16.92049113047672 62.25662020643206, 22.271829667516727 58.64667847480506 M10.526702628567218 72.89419216792291 C14.003077789879955 68.08169025754863, 17.512099435064737 63.74736398823971, 22.177104422907224 58.665793380203816 M12.198815488250206 80.05179711760603 C17.620883451758637 70.77947115413698, 21.09365078869048 67.21401256858101, 26.169748362812495 59.56704999874824 M10.230588598216233 77.46147455883114 C15.891599898972093 71.64986833071997, 23.107593741299848 64.67128369906654, 26.281989208356883 59.04524647761868 M8.663817560267091 83.46864074169426 C16.026441522234638 80.11287369997888, 20.330632874277434 71.66728689205003, 34.05358913545673 59.09964775540217 M11.000549928350011 84.74020799161035 C19.039712797272358 76.25365158514104, 26.134277579953654 66.93000624135769, 32.1932742748031 59.638809381707816 M9.748265392604566 90.85183332151428 C15.537449056704588 82.68051530502446, 22.285130644243864 80.0897729422071, 25.750240730085377 75.55594063250253 M11.184481567546959 90.29127762255251 C14.102332226987187 86.41026293203853, 19.315749719146282 80.34537804653627, 25.647892888794463 74.57214617753074 M25.328618031790704 72.75308344523624 C28.795373087262597 69.22643874417224, 30.660270483518765 67.04128592409862, 38.21537381255929 59.966436868485154 M26.670478817411986 72.68865951271873 C30.756181956208177 68.28145481594275, 33.44438065307261 64.25503165873201, 37.23405955725791 59.97375319591648 M11.864542742600511 96.65351215895453 C14.836394578181686 92.35510817067711, 18.199753419340947 86.40597472626088, 25.924783355619056 79.50176071906611 M10.081777066513173 97.62661234208888 C15.12888709310009 92.28318903188875, 18.92491146459571 87.91707308025761, 25.13958309592628 79.91780272248188 M33.190041134649675 73.6088118595129 C35.8925645127565 66.44396767222187, 41.69889643811163 62.17893145939576, 42.116205946762065 60.63410323214202 M31.513591646745805 72.33872058863412 C35.926879591121654 67.3910130365124, 39.6422705160632 64.47873750312638, 43.22959312619579 59.39405656101077 M9.28285542633651 102.99407552688885 C16.01289074210206 96.78950344695464, 21.16394128956127 94.41139721849714, 25.710083019009264 87.98496773543077 M9.638532351816025 103.41198158912827 C14.313046288436839 99.11577745036891, 16.87804751078735 96.57926109849893, 24.798217363741273 87.01824435120436 M36.4360434501748 71.37464093056467 C40.53835504151512 67.77209039461718, 42.36888222279064 63.668871823916106, 49.387423363890704 60.0931161084404 M36.697034947121345 72.93737738100573 C41.46688190797869 68.01878222472254, 46.023857757100764 62.704878869700785, 48.62507209477869 59.75436791705185 M9.523223275704245 108.00029443721381 C16.2212455797536 103.11424190260882, 20.804949868841955 100.80907317643565, 25.671593455047272 94.28399224292083 M11.279589187675338 107.75748019798807 C16.633042967038442 104.013106096242, 20.816639468579798 97.39749732970456, 25.369854518147534 92.11729941571132 M42.93188322662905 71.312997257552 C45.89387642935455 66.67791908809508, 49.78992500463478 61.03904795485497, 54.710686066077216 57.562442234500594 M42.950678191884364 72.80077009927587 C45.440808248164004 69.7459979276481, 48.61862655697886 66.48016835298186, 53.8683046117681 59.62274937910862 M10.073906487713378 114.42050383806105 C11.934021073389847 113.02463902063377, 15.113403738064186 107.19844199620499, 25.424571037156163 99.26525776195899 M9.879541051280457 115.24627373990914 C15.724960304714498 110.12595691798315, 19.603516937100537 105.38071476501503, 25.218537774828008 97.8912450926672 M47.47005656528354 72.48440661046409 C49.86802334808597 70.55842106379254, 53.36053224511627 65.35226656994867, 57.8686212419336 59.56428997909429 M48.51555945945027 71.62201740591863 C51.48140344832865 67.68559030879541, 54.553326375271915 63.77175282654931, 58.47477162571353 60.054640313713456 M10.868406389174062 120.96834461088497 C16.682602443286466 115.98721165477731, 20.665858655251153 108.29643908639721, 26.385785145025828 103.2437814666996 M10.509250708277648 121.63600150273072 C15.040080926037007 114.89567112508506, 20.82169475435288 109.63545427685152, 25.553351094262005 104.14174929499426 M51.17540293839829 73.45787857597301 C57.08971154293961 68.50395381830587, 59.314021580278066 67.13004444414533, 65.38890817077781 59.6798523525988 M53.462204811958856 72.07301671577774 C57.55087734576232 67.49386457196564, 61.269985534896804 62.85533055079939, 65.22979122885887 58.25381840559789 M11.769123959497435 125.89004276391967 C14.940719712642 122.85667547841888, 19.297342379075705 117.5406933098816, 23.13890974793111 111.19805958722074 M9.780473452993693 126.85212139523712 C15.942917688227972 121.77367297536749, 22.290831480722026 114.52608451737588, 23.762550281070293 111.63717025224028 M59.393447955022154 73.59497625591838 C61.45507362146584 67.16983663251094, 64.07581793986569 63.92060340082982, 70.14972432020863 58.84849963113558 M59.02226154678151 72.48547051392352 C62.095581123923694 68.07929410677097, 64.69445581542172 64.87170365424089, 69.19449536675722 59.294972022945224 M11.005255536469656 133.04945111347197 C17.730425825283785 128.4738025349838, 19.792851336744366 120.64923790219768, 24.68820576694271 118.54451023173868 M10.487436185537705 134.37306771543967 C13.686831359363019 129.1095002512223, 16.78868369314479 126.73257636680249, 25.566151314828215 117.09472447465104 M62.93305419639297 73.63223639007317 C64.93213301078167 69.28816641984162, 68.5404278078146 66.18452713077365, 74.31821969262988 57.97019931664814 M63.8852590316996 73.25903477207554 C66.51909728656341 67.85054411428604, 70.24780861247848 63.8976815914483, 75.53548457545108 58.70033428715972 M10.21512398619062 140.6377867556429 C15.348783032965223 133.39093321303787, 18.670936215776102 130.2852131856382, 25.633016208308018 123.8550502327918 M9.834437788117391 139.9799067827723 C14.507661813796695 132.98096711532537, 19.093260509052293 127.97915985263393, 24.740547476049095 124.12435002508583 M68.75873390770656 71.59622406963193 C72.70563896078052 70.27391781649692, 74.10077004207623 66.0516586758762, 81.93590727457432 60.18745535939567 M69.41567503609285 72.47181551115742 C72.36122941900811 68.70243166535101, 74.9729854391783 65.25111634660368, 80.17553068602842 58.47769963443463 M9.34717056917658 146.22862852607182 C14.951930856345939 140.91156786473607, 19.412388466674578 133.99229506372149, 26.50131788181623 130.6098668762507 M10.825539593249996 145.93082628424634 C15.616614792285286 139.7610271915955, 20.059347099651774 135.02810216549807, 24.47634574103533 129.75968960689696 M73.32830520797687 71.6011911493218 C78.13565375534465 69.18056126163646, 80.15734448225487 63.38712165610994, 84.341316647006 60.59459443073985 M73.46333307485949 71.95002126977863 C78.15860591555617 68.75610050590211, 82.02061990966 64.06083984246877, 85.20587387621447 58.194826621466156 M10.019528274601734 150.32665022278917 C13.795208076915142 147.7262969293362, 17.025377230412925 143.0881034138714, 21.466499835426074 137.51744912879616 M10.857667414870164 152.05294322121725 C14.365653282244791 146.5853199228046, 17.717998819522634 142.86037947575056, 22.529631423922783 138.2914701662149 M78.30692916344408 70.60215117328124 C83.9904862476543 69.99151378732152, 83.82074046139202 65.22992919661328, 91.82242525868595 59.36582619830613 M79.29324196087936 71.18040447654082 C83.04754733262706 67.51215602777873, 87.47794341752287 63.272270433886604, 90.61018462790828 58.85847493531311 M9.313457377245552 156.45978167777676 C15.048258893429468 152.82338316307116, 21.059921806891925 145.2742793620805, 28.257179937608655 139.98952755523982 M10.792916382830876 156.7803756091759 C18.016896298264495 149.35327425037113, 22.411904955496343 142.878945103616, 27.92846541044729 138.83066356167652 M83.28121394540537 73.59510377285152 C87.51235071467491 69.51880728278753, 91.85480571570663 66.02801016899708, 94.30554153603975 60.42250139489613 M85.10073278574293 72.31208188553765 C88.07196994521733 70.18719594758691, 89.57560803996513 66.55635408451107, 96.37694445456924 58.69454816740801 M12.107964704109877 162.29811264957786 C14.88825952532434 157.7909318265943, 17.99591686449455 155.5387279413586, 21.5268843594111 151.29984433456357 M10.734769238047402 162.87162873809638 C13.603923122169508 160.65937618365157, 15.447379716468266 157.54661457070353, 22.832981901616762 150.99680454796092 M20.808304445357376 150.34380526571312 C24.769397624903938 146.84634917668996, 28.096629644797503 144.3881859431656, 34.20224858017653 138.38084902027333 M22.396263411245407 150.30073369377664 C24.953271775192725 147.27451516756693, 27.02638334171004 146.16721337967073, 32.935353674394605 138.84888610648682 M91.179664167392 72.2295261634921 C92.85094213562083 68.20777525251592, 99.34448994805787 63.71335174883025, 100.27144051262756 59.02606557103021 M90.46140649310821 71.24698642790452 C93.09587467634567 68.62654799711616, 96.5282712002971 66.00647818816577, 100.80461851488623 58.49661544458276 M9.214991903549723 169.26011643641337 C14.605997750813106 165.22848037495532, 15.300320720800181 164.63195334721243, 23.29973723524862 154.51875515444095 M10.135170841797446 170.53891299937757 C13.18668655202027 166.6156938163973, 15.147059293222021 164.60944724348616, 22.637884695195382 155.4217894298046 M27.551248014870946 150.60676375790683 C31.755132610653856 148.10821883414854, 34.569248524305394 142.27895812713857, 38.013815362330654 137.2217598518461 M27.094998695509048 150.0927930155092 C31.331482033215753 146.09750136485056, 34.41691153979725 141.98773314512124, 37.88270325549196 138.74251766901267 M96.28968122662904 72.87253984475356 C99.84498751218212 67.9067840334239, 99.72897216019008 63.807209135452375, 106.68235451406562 58.5924617900974 M94.89343510200575 72.33408900628473 C98.38379883647904 68.89154290409, 102.36939370330883 64.94000098630075, 107.22943504468724 58.774418650526364 M9.606536469381533 177.7677652004385 C15.639962771474645 172.90611104315622, 18.46438448613166 165.10734566961153, 22.603554200742522 164.1259906803338 M10.597507005449643 175.99713255283928 C13.21144867577305 172.75672877020702, 16.794265497667958 168.32378676690124, 22.389261873868005 162.77008991574115 M33.56253752892843 148.90350724318884 C36.20935220544019 146.81547611314906, 37.929547937997164 144.45391494357474, 42.882469537057965 138.64979462184914 M32.584779248456506 150.7480311018437 C35.42991404418663 147.35980779776446, 39.22302431052268 142.21409551755445, 43.02175001079402 138.78141324762205 M101.7424362721998 73.13746189584076 C104.26550384111262 68.12354345375122, 105.36306787980409 66.0912472239442, 111.31895370627981 60.70789479009975 M100.48345941744314 72.2637052655908 C105.58656951571848 66.88580531822791, 109.29732695161483 63.10683884733299, 112.36739732656301 58.53495512507215 M9.838918911672366 180.50574263372633 C14.14938976025983 177.49127909614825, 16.61931768054345 175.6088261722048, 22.332265105995447 168.46882444369825 M11.040328151501551 182.32307098921603 C14.73274182761314 178.16457705818246, 17.466461428927303 173.79659532721027, 21.55450555693488 169.29798856421473 M38.88511820959669 149.4053047769829 C42.31994049049278 145.53929284218577, 44.814655392729165 144.57293010808166, 49.40671735739436 139.0827843733261 M37.904779599425 150.5613150685315 C42.592678304221934 145.26740472628003, 45.131537053224434 141.28651918478738, 49.49864316874665 137.26912704272783 M106.43446074889926 72.27362814847658 C108.75307027995753 67.7995610161379, 114.37168767481361 63.77510443319089, 117.70354450389434 59.781027867707365 M106.52474056126397 71.48532508312644 C108.83077488126501 69.99452488892759, 111.74008437149743 66.29840509364708, 116.91443361029577 58.81186967881641 M10.712484322475957 188.86837383571262 C15.14840554518978 182.88084427135345, 15.113656507418387 182.66307358578877, 21.322935168244477 174.73047984493203 M10.66995387189144 187.24509486808276 C14.561354612890526 183.35835446499775, 17.40054425602803 181.578003713162, 22.239844719858255 174.2516132860884 M43.146115112683574 151.18816136047184 C46.88691134081763 146.3390093942289, 50.22490993905596 141.6655694820086, 52.51210619819954 138.9531992085303 M43.16556951182689 151.06407416972937 C45.27941775765657 147.41583033623414, 48.407602139689146 144.95777685158598, 54.373694015230036 138.0220451542347 M111.77262009433721 72.92332325129098 C115.52303748915595 66.49162897644493, 117.50447936265999 65.05812341202083, 121.73476098659009 57.810458422186976 M111.62055003915948 71.90189432090916 C114.52002972274144 69.34084136567037, 116.86606556574756 66.55926445692666, 122.7998213484015 59.46008860084721 M13.244783360085192 191.89373055665328 C14.400401722661798 190.05825320104742, 16.450506701192037 186.4710692010402, 21.048087206109074 180.38820124717185 M12.78089576446672 192.82453581968977 C14.911875250097784 188.9173707179256, 19.538840324302956 185.31999769028957, 21.52881068599053 180.29473599756375 M49.98466909669708 148.88288719454928 C52.25889374797375 145.50249770817229, 54.500136756872315 143.2022142528017, 59.79817365281005 137.88164171959014 M49.80090677770295 150.2725464702351 C51.83221691366333 147.27286423554335, 54.63178092105399 144.31634014793616, 60.27475158163594 137.16579314269157 M116.97862327518796 72.1751404369678 C118.39328430204559 70.3457586999253, 123.44244360264238 64.99780995079536, 127.39407270903487 61.101149639946904 M117.22752878272303 72.68550607971216 C120.54313632633823 66.93436976845892, 125.43228428405479 62.845166494710774, 128.0119820849682 59.948381701886014 M15.247661673152832 194.44570835232818 C19.0566197644663 192.6931691065312, 19.3928075087372 189.58747178370209, 23.918393212924165 185.79947375936544 M15.55139347815753 195.2572701954061 C18.425527296537393 191.79922191859205, 21.501525392383716 187.81067627631046, 24.27403130548914 185.2875881580162 M53.9742195995611 149.5494466405133 C55.78684014859287 147.82188255611692, 60.60156410020195 143.1287032957181, 65.97667493710735 136.84423301491046 M54.14331202123322 151.1415273861695 C55.91337375698007 148.29148499595138, 59.3694175509151 145.4123401935297, 65.1784796247902 137.65287014123876 M123.73407224894024 72.81702212018577 C126.31663974409842 66.97502779086543, 128.33747916830677 64.62531268535312, 133.39315857967733 60.47202368339836 M122.98129516633809 71.84551876938863 C125.56851624261903 69.39340209870929, 127.54049512018806 65.44438512613179, 133.82989204842022 58.30462688285603 M19.66792002585896 196.91629437232862 C20.161624066387596 195.45623973274812, 23.14405070014808 191.68223250778547, 27.197173606441186 189.38461516490733 M19.393313125883076 196.64623895050238 C20.61988537661034 194.24761714510663, 22.831377076420463 191.91539471835586, 25.986614066519262 188.77921285654585 M58.949244586642784 151.04129041118944 C63.042200697637156 146.696207321238, 65.34378579225356 142.70905490597488, 70.73615948818815 139.41400095200262 M59.893974776040736 150.46995810006806 C63.15110477288017 146.70678624391113, 66.31412019349328 141.71358282483774, 69.88792006056701 137.81691168820367 M128.48841417345187 70.58551342501892 C132.7237590535603 66.49722262634101, 135.47772066824544 64.24195533042571, 137.77682984054437 58.05880507672876 M127.56381685467045 72.3455025951753 C130.34104814551438 69.18056351402696, 134.2416592439642 65.21743939525203, 138.35698065432445 59.155001553027994 M23.448497246210014 197.70527394930264 C25.616540516675006 194.298102421218, 28.671631389883274 193.9709666689864, 31.932198146343488 189.09622580200528 M24.36579703264035 197.49171055215996 C26.41858193679586 194.63051515019686, 28.44943272443968 192.07584776006755, 31.95246680949162 187.6805242958583 M64.20163382740512 148.75210019576807 C67.512735974614 145.381209210433, 72.84315370603024 140.87418469332897, 75.56061928269247 136.75593492458034 M64.95136846129685 151.00550100592767 C69.17782259718037 146.020817027347, 71.41070398967507 141.73879814568664, 75.68559658893754 138.2324335560472 M130.82927936727273 73.75025182774979 C135.71633520330005 69.82778181923358, 138.80155938625916 65.34520942049612, 144.60901746777046 60.75385784099044 M132.58962896941753 71.91467540218721 C134.7731747869139 70.2010720915968, 137.3766187150771 66.2023415140071, 143.99994509769456 58.69146447490662 M30.04929436289659 197.86097351794518 C32.70283972333217 194.82353279490926, 36.10420770303479 190.38488891811215, 37.010393002775295 188.01417467685098 M29.356942504334476 197.4157097617038 C31.08501618751771 194.35287771662325, 33.151806976261355 192.61824173767866, 36.62746081731876 188.71114570656448 M46.4920922945819 176.42186583561173 C47.43122715642633 174.86642525550792, 50.88037284444353 173.89986662647695, 56.34841356872789 168.33097925092792 M47.001767898730904 177.30069120710328 C49.11859666677847 174.03334061860514, 50.64884842317237 171.47002484182636, 55.32817766268901 166.65991133214305 M69.14872349917151 149.33248831447355 C72.25869738308951 147.3747415413651, 73.25519621849602 143.4035811544216, 80.7234306094739 138.68887783595065 M70.0614862670031 149.38012407772928 C73.34008597716829 145.82715209827367, 76.18157246142049 141.95887342785784, 80.0874710369845 137.83682897795046 M137.6471698720694 73.6750438794688 C142.48554557125024 69.21503045442026, 145.68466853789465 65.36549568623285, 148.9546269240336 58.448708743838814 M137.941662335184 72.9064565295652 C140.8456877276444 68.85766226288828, 143.84241596590496 65.83606675634489, 148.2502621825993 59.24870991038297 M33.323005841966655 197.31439812408283 C43.72356823643632 186.3450217918658, 53.89737442954744 170.64228285636617, 62.578789934180996 164.5658154414497 M34.50916420883111 197.9338808569161 C44.67828283917178 183.81859464082495, 56.12066721390922 170.6071345318872, 63.14351458791248 163.29188024984472 M74.00533135358063 149.3167140970077 C78.685411781049 146.4185534338379, 82.78202801235493 140.3288817401664, 85.16213085404289 138.43426438794614 M74.85833269887169 149.7621823565452 C78.43545629076081 148.11460425697393, 80.68548303007168 144.59273323161662, 85.07595675306457 138.37120668789947 M144.4785004355523 71.64803568396131 C145.08898222994986 67.05775765695643, 149.01734808911874 63.51668780179948, 154.40824552631975 57.16844058849843 M142.99116308117095 72.919172296839 C148.05799389742867 67.71466264855867, 152.89391584704683 61.929069851572585, 154.5427726749302 58.25094248040363 M39.6784608500149 198.63946913380454 C50.27880710844886 186.91061894505845, 55.8918710660204 176.56795264883965, 67.25013988968523 162.28023799534546 M38.32651648174032 198.68604723915652 C45.706056685989076 190.11664090388388, 51.79533756179331 183.2161618378724, 69.26449636400886 162.67600231829758 M80.08945109532434 152.22377639239954 C84.49349879275404 146.95729233765078, 85.3229973400752 145.44738464091458, 90.15880865566396 138.24871047092225 M80.55639737101208 150.38394793615927 C83.56544103042393 147.5780971241525, 86.16756447011278 143.42913374061484, 91.5125904194046 138.94722552291486 M147.52013616555996 72.75821322687086 C153.091363485318 66.54332052377839, 155.9033207983898 63.369074948434104, 160.61773524262375 58.75200255282729 M148.53116738929364 71.42302006022999 C151.20254160358917 69.11386667730903, 152.83936521298037 67.10552064023062, 159.94218869345943 58.994039507064734 M42.91165673234344 199.43366318292541 C49.75872055445382 191.6392882741287, 51.90064991909414 186.23669888031574, 57.00017432646721 181.49724099082397 M44.052444084506156 198.4203593542016 C47.36516136947759 195.5897398836652, 49.216748770972 192.7009424325707, 56.949245496133955 184.22772179708275 M61.71905036049571 177.61471846717885 C65.13741263733858 171.94602798369183, 66.71266889121884 172.1468355829959, 74.9040101902562 164.60599023055073 M63.19412289864856 177.21545371607874 C67.78264012108721 171.55091953936542, 70.47144286287303 167.00509160997856, 75.41781984944308 162.3745737584226 M85.22375261580034 150.31492877901687 C88.55476510455736 146.33867161146452, 92.42350834024172 143.82657044340797, 96.91683847691966 137.9042097355318 M85.58229046773958 150.66720105169708 C89.060796521002 146.4838712740476, 92.67493780694248 141.1448025750054, 95.8951995548504 137.72036270115572 M153.56492017632903 74.0553327536401 C157.19646618858152 67.22529594679413, 159.7944125154577 64.37280041806002, 166.95143325398666 60.092222502338636 M153.71697592529574 71.80517967444808 C157.67896123255397 68.13169909080267, 160.9791036318005 64.21029797765847, 165.1224727299214 59.77616077597764 M46.31690200404981 203.73781627514714 C47.88714804002452 199.529210521482, 51.37331880185538 194.49333391124722, 53.44038579057465 194.1996443502515 M44.41885579639338 204.10144512828845 C47.64222717560992 199.74424400358558, 50.388333603654395 197.23061015100325, 54.70201772924475 193.16851290624513 M68.93010460332223 176.1981849132737 C72.01314951206584 169.6333737605415, 76.41586495672637 167.75714883667584, 79.15734523785669 162.96464843182355 M69.8494322554481 175.26691023929445 C73.15230253962764 171.52337662521978, 74.7830008507136 168.85369075023536, 79.06128569774185 163.04282010368715 M91.66036061403267 150.90093380308988 C96.4749085066829 145.00222305666458, 97.78539712376593 141.90207042079442, 100.9487030551269 138.8696139916798 M90.65454921952175 150.4141983683936 C94.3376706951581 146.9230501479401, 97.033202313462 144.32561217659978, 102.18416001719092 138.36727786993367 M159.22518573221282 73.33223540033542 C162.92575758022633 67.73956135302817, 164.83435047988885 61.98211731324396, 171.33137426918483 60.79467844501776 M159.76332070622533 71.44595928385868 C162.17048563202925 69.68200655150073, 163.73973073841128 66.10695014803555, 169.4841591995443 59.675330298729534 M47.20306664545288 207.3554101115988 C50.155871023399555 202.73212581806905, 51.80348597909934 199.05274723545864, 54.313018492166165 196.68935178282928 M46.16807301372886 208.13683451991943 C50.20416530970165 203.6125135981102, 53.19746731897841 199.30868957076996, 55.36450871510209 197.67726318942135 M73.16129398236009 175.03082306125967 C77.14962002100502 172.325067292021, 78.91102475908188 170.0007455037506, 84.69591268022563 164.78127393795506 M74.04793002679914 176.01671135272227 C77.01721926229774 172.4310427353026, 79.39893740618297 170.81470085591567, 83.39551709851573 164.6832921536485 M97.20675605144778 150.10422723972087 C100.15776006160226 145.35061840160975, 103.01538137062322 140.53461185377918, 105.90869285541179 136.93957976448493 M97.10403901964787 149.90326421337562 C99.00745303353749 146.95299212280008, 102.5556904360702 142.92563671922534, 107.71757919122024 137.51322145494152 M163.17151509579648 73.4948160500528 C169.5393804245148 69.01173025574704, 173.083527068251 62.28904808966289, 175.71750219052188 57.60369210741362 M165.06111773249668 72.62878567130232 C168.24767498594912 67.80515087288825, 170.88886328988315 64.80661102294037, 176.24952945598508 59.15961905496724 M48.682017937330755 210.95985646102253 C53.27280909930826 207.1264304076936, 53.92786765220323 204.23271306280577, 57.61575248117788 201.2921747392717 M50.21406311815161 210.22472271191648 C52.02332774428009 208.10408654932692, 53.506574441856394 206.3882414444114, 57.894516201475824 201.27182856657075 M79.22971245570524 177.58021720742857 C83.10415541580021 174.41035460378754, 86.08276554849053 169.78849670420053, 85.97589942079257 167.6017207569354 M79.10378701136548 177.41642340194625 C82.24858771691325 173.3426118951792, 85.5004085326196 168.9754216725766, 87.35261935512648 167.31904178510416 M101.20211343732271 149.9141388312953 C105.39985985818048 147.6374952894932, 106.25812406262335 145.6850328275464, 111.71664667496098 137.5179879616883 M102.30236782405937 150.52365316270874 C103.9952459681929 146.76270991511447, 107.50981438814941 143.73704422389417, 111.50461911251851 138.5617708632468 M171.1798149301519 69.66945312051338 C172.6287081239699 66.97531412106507, 177.21529937123398 64.33647283145035, 181.3910305186767 59.770047684450674 M170.43800427692966 70.91464406108749 C173.05162702642787 68.59990500391386, 175.57328437606338 65.96127055896443, 180.5769864280766 60.332986026759514 M52.79047552905168 213.99825662934555 C53.70609853679438 211.90754431142963, 55.60192749398976 208.75389749516737, 59.08782674672288 204.71084924492288 M52.54938196443687 213.712638959468 C54.87133219853646 210.46457191799354, 56.53614002458092 208.0208074734296, 59.32807752711404 205.21763335190707 M82.82950716298464 178.9262186402113 C85.61926896133863 176.45402786810598, 87.0663016478255 172.61645310037227, 91.83633636079348 168.95850670722092 M82.94514024622322 178.69876315235723 C85.94264864575143 174.4243913749672, 88.19312921432629 171.1228639989026, 90.25535376911348 169.17493362309054 M106.44470922379195 151.2917638605875 C110.7866602235348 146.01785463293376, 114.77865752015258 140.0351471626741, 119.02357441540941 137.80699901514663 M107.42794959827383 149.50441232017687 C109.43471447399679 147.0774058677013, 111.65796629850439 144.4541038085731, 118.11510954670621 138.83294960307464 M172.1599285859261 76.54352456843714 C176.8291301541973 73.0871614665618, 182.53232179039435 66.08353152893434, 184.52881912759574 63.0565443835898 M171.25080207592205 77.70767702847749 C175.7337952364804 72.70496805146192, 178.61158844538318 67.25186142974823, 182.62823005713432 62.58235672509173 M55.066345356796745 217.0619895198982 C57.59006200020972 215.02949421674228, 59.47794215664363 212.12857751050367, 63.41455359528836 207.8402809155362 M54.448922109165586 216.3161005920395 C57.062048187224434 213.84584144467962, 60.36373680060885 210.57565153565739, 63.43661944623604 206.88334438400727 M85.56386764708166 179.82455564344 C87.89253748554057 177.85905635814322, 91.25186274002877 174.05311944044942, 94.0322278701116 171.86228012876768 M86.28625450684413 180.20088587827158 C87.68410831148034 178.50415922074362, 89.97331094388784 176.09130324723068, 93.50222916069737 171.69621243465852 M112.17124726544476 151.95585799726297 C113.70863375893123 147.79090740497156, 118.47976233346672 144.84476361353714, 122.51186237362398 138.83462752714067 M112.01626642595451 150.52251773087255 C115.46547573317737 147.03319930077933, 118.79611890452918 143.35622891012906, 123.39701554949987 139.1557216349913 M170.30437135259555 82.5147551610704 C174.28590732428626 76.76467092036658, 181.63427465450755 73.28824757670205, 183.96393310167042 70.86643525217171 M169.96568268512894 83.12234384030839 C173.2488080528235 80.90889804486072, 175.18427180882986 78.12615414237726, 183.69685234257796 68.37381621696001 M57.07476255241523 218.50084314996124 C59.45201694355429 217.10545395906084, 62.39979778857628 214.68287684538595, 67.16874161929405 209.49862285380823 M57.61491143841702 218.42252122017442 C61.65050112588073 214.7052950151511, 65.24517869684877 210.98644999246807, 66.55400299429822 208.5783645427937 M89.22810269497526 185.05964518997726 C90.71342745210968 181.4332815503488, 92.96586188637694 178.44344787499404, 97.17200950917032 175.4384543103661 M87.88438601714121 184.13593134531422 C91.61513939550005 180.88053442668067, 94.53191961843667 177.71562473395218, 96.21587941623079 174.01389476138897 M117.62705797472695 149.77540187025508 C120.39988869216151 146.43340887201683, 122.13459699969397 145.5558369794896, 129.00150002637366 136.89408605754332 M117.46736514203215 149.8687159421777 C120.74678811097777 147.2541169439797, 121.87605170971858 144.97844378853242, 128.74133283827317 137.9921359720192 M172.00067186786472 90.01407753787052 C174.90902174408086 85.13323411866816, 181.14076052821676 78.9763686514759, 183.79427558968638 76.35660197831857 M170.3398516371481 88.5695600492187 C176.1062334227451 83.00528601177275, 180.595196330211 79.08443556003859, 183.27369406141145 75.36264318103237 M62.78657032786269 220.00126206266586 C64.24908196948618 217.71682251132808, 65.68108530635857 215.56920681150214, 69.14126833760314 211.4198411786603 M62.283919693338326 221.03951645938363 C64.12092783616781 217.9664955890183, 67.55107531043872 213.89158407614204, 69.60680826888243 212.0897139946872 M89.81180448557123 188.499269989951 C91.79654184110966 183.7752882957734, 96.45345852862833 182.5788767496548, 99.46244093641837 177.25066475205884 M89.77312260813925 188.6206144850182 C93.38504598883293 185.25563831428786, 94.90959509830054 181.55588764393883, 99.0064344638126 177.89317842425515 M123.27667092200144 149.21043863863085 C126.35714391754652 144.45997863011576, 132.63251856350857 141.58466090225096, 134.02771741955308 138.42713234358894 M122.96292711714352 149.81980289178983 C125.50714237919915 146.34200744905442, 129.84585294781638 142.10682157211653, 132.86165627476748 138.30889269000963 M171.59389126234606 95.38780412345731 C173.75539817690586 91.40334212679417, 181.28424258963622 85.44704782204961, 187.66100208575773 75.78440882000231 M171.10649048573515 94.85357693926673 C177.2959928675745 87.29755585207936, 185.29718921273735 79.10896731769247, 187.58325199642533 74.42429535529027 M64.98674095092771 221.93098971855358 C68.79271534919903 220.2948616136117, 70.36881665018456 215.54825099430204, 75.71244815022034 211.25536913112578 M66.06564574248928 222.2198485049767 C68.63104506816498 219.01001180778783, 71.49441874995361 215.33598086711132, 74.50037357339009 212.6514306987079 M91.06996894647847 193.95909641679293 C94.42546583811504 188.5276716162093, 97.7207127310213 184.3081380105201, 99.06377221598304 183.89948020187882 M90.97260346178693 192.89221864982386 C93.90374814728277 190.54430308492772, 94.91458316636438 188.53315000662292, 99.7623088805472 182.04259204344618 M127.01102801445433 151.1514609152811 C129.88413790949863 148.62042214427882, 133.16684153028524 143.42508826290435, 138.2288031149501 138.96606828553203 M128.36287095291328 149.34725929578292 C131.4526837002689 146.12501221285984, 135.13139468212313 142.79795857273797, 139.27090533510017 137.83827425326749 M170.14827589211995 101.7375873795305 C175.5826928128442 96.03476180861975, 178.80924537436883 93.83359668533099, 183.09547702875628 88.90910283548672 M171.27290031267938 100.23528121962799 C175.72717705819971 96.74083155059863, 181.00057108837115 90.73078119138204, 182.91302585454184 87.57521570823653 M183.91085722617282 88.46470566926172 C185.35664284128788 82.75351300435197, 191.0996384773385 79.09496215206667, 194.2851132378301 74.37623617203982 M182.2005818662609 86.93396382237337 C186.40531166782193 82.93059264507288, 190.16041102287684 78.22956665849809, 194.40135894847475 75.20302103948468 M71.6296170485411 223.08599694656698 C81.21729616038095 212.97641434042865, 91.76843565151678 202.38334578672885, 103.55392942899607 185.31084673525342 M70.61863467489759 223.60985776479626 C77.19990883313055 216.17945652766775, 83.97196018784888 207.47948531659728, 101.3817251772667 187.4578989095562 M131.97895429009688 150.20749918475772 C136.04299101660035 147.63084686175063, 139.98972966690454 143.0662957719431, 144.02030592183795 137.1427431480155 M133.7504707181316 150.03890836340386 C137.47045827727084 146.1458914678544, 139.882930457847 141.84944361745238, 144.3027778269083 138.92369311906748 M172.61934056372482 109.187853218646 C172.46887837993322 104.19633420419444, 178.9805184472381 100.98399840010812, 184.79182471664595 94.41000004835762 M170.77846630579344 108.32093510670808 C173.71932107711402 104.03751851894222, 177.71139242948922 99.6035142894761, 183.88793183843416 93.64801014980551 M187.53763733982575 85.51500929592254 C191.45694901878437 84.13201540367743, 192.93264033402534 82.75216568655254, 200.6395209321662 74.66027476000475 M189.02204749735344 86.41238503837913 C191.44448063369435 83.1626392608361, 195.19925374512837 80.61089432913029, 198.2983799366135 74.51362975254224 M77.46361439014132 219.9384861810032 C86.9744411058564 210.2550512154946, 97.93050557596797 198.249485138364, 109.35323440663443 184.55564458571965 M77.30974077120054 222.0727060516575 C84.30816833483263 214.7215397409672, 91.52771914990235 204.85810383594833, 108.01921499003933 185.66368565572773 M140.69228301429317 149.41027460648613 C143.96362979730856 144.45933476929503, 147.01947563765913 141.48871211996487, 149.58692356598166 138.77293881194558 M138.35810811487252 149.75247831696203 C141.5022293633837 147.5419502801656, 143.8987204932304 143.534273679277, 149.52367154513684 137.38367174981016 M168.73291535860227 114.4221609386616 C174.13418690263848 110.1151863671754, 177.46992705939996 104.41666334499237, 182.5366582433268 98.6404902790264 M170.5889932570532 114.6796073587793 C172.82613809045006 110.5977536833226, 176.81210754208752 108.56464729157813, 182.80727064373804 99.52822647609455 M194.10930804022578 88.41758229765607 C199.04773035969626 81.05309031401788, 200.89766325043973 77.17010100781631, 204.7336273137177 76.00076654029763 M192.78889502782255 87.44895450577953 C196.7650244234941 83.64920320327847, 201.24044193551546 78.83588840683286, 203.82540221341034 75.20673578268698 M81.61248832407044 222.52406806484862 C89.67348053155919 210.9739729720288, 97.24818749505788 202.496864335135, 100.54760493739343 199.38368585978287 M83.39663125494434 220.75609294948435 C87.36256225407804 215.38131147096348, 90.78628044282577 209.81481940044645, 102.58154445814957 198.4471687905868 M102.64216227642842 198.81054493522117 C105.40344374958497 195.02237095616294, 110.40628931010622 191.27213874362388, 114.1330492712469 187.37279712170562 M101.82858878001798 198.79127938165342 C104.75376658588318 194.59268100703224, 108.57950713810267 191.7249641546799, 112.28604592392738 186.20540960694544 M143.13206708020562 150.40335143099634 C147.90533875473588 146.58386318744323, 150.87635268357428 142.94216171397161, 154.65127051954556 139.04844957567482 M144.85601783816364 151.04777582210093 C146.33665690511748 147.75209611725776, 149.20058310728052 144.84367421597443, 155.1582221259242 137.71145581815122 M171.9520439462121 120.74649358783796 C173.6372679111567 118.09477349866458, 177.56983640728092 114.07726833894846, 182.17097550000761 104.0474505590881 M171.4958028835347 118.9136591074991 C174.67405251861985 116.00260461642338, 177.1684217907606 112.0496884673732, 182.95267527973215 104.74254760454912 M198.47764880513617 88.32245843016011 C201.08398186576403 82.63770818376045, 207.01722860162405 79.58955993615447, 208.5521540940181 75.65388566075818 M198.55950732833776 86.88315745821387 C202.69673061757646 82.10347120723094, 206.47085226201048 77.69763757522804, 209.14428514173161 74.25741661234417 M106.95664437020845 198.92125557158977 C110.65787143103039 192.98208822847292, 113.68337400974005 191.10745171508083, 119.45569835660326 185.34626888918544 M108.39939891246416 198.20730020715135 C111.48475994756838 194.40985004576308, 114.9771205099042 190.38283232293782, 117.83262220582914 185.98603133588674 M149.9522335274769 148.63524078559254 C154.1191960843749 143.83957555369545, 158.31499077551163 139.64740300904327, 159.29370726337493 139.33424805751525 M149.2383389584583 150.546851365116 C151.64314747621498 146.87699579594164, 154.33752018493365 144.91769924267382, 160.41576835905812 137.57348357301169 M171.33835929348652 126.89375621408338 C173.4475233063883 120.79995214494889, 176.23818401685256 119.89791376846915, 183.77691382840072 113.20734315433799 M170.19229427827912 125.37255976844355 C175.53806154822277 120.97277381488654, 178.17949353858708 116.41312704576643, 183.5215604246901 112.16382627044683 M202.8073282452907 86.59955828807693 C208.13423836697007 82.6033630221056, 211.12144485558952 79.7479882050809, 214.62349645437135 74.89751875260464 M204.03249619470645 87.14325991720919 C208.94386265181208 82.92098987835365, 211.8205812886146 78.51401534180961, 215.16668683432044 75.50283871231107 M114.00932766921815 198.91025343908328 C114.95762182716832 196.78874927118275, 118.45296043726181 191.0959217873874, 124.29775823438185 186.90149178475787 M112.91101473569553 199.02960929756551 C115.4026239174143 194.37506018550673, 119.72155683154871 190.24071702939133, 123.82343072099205 186.85645037495735 M153.30825034121338 149.79114733903978 C158.25007498705548 146.31405518842678, 163.2924204992244 142.27382067189743, 165.06099050147085 138.23440614553343 M155.16155874338187 149.76674380401212 C157.20102930961133 146.80500973024974, 161.08895985933725 143.945875621438, 164.66759690352058 138.11413530931583 M172.12674885237826 132.8538274430217 C175.86287967494002 128.61010430145913, 178.75056274835444 123.79128296243363, 184.67160282922796 118.41094927109039 M171.1718151523874 132.2007394046354 C173.8340576168946 129.20803972877155, 177.21387785733475 124.75166476325938, 184.21951191137325 116.17280091282463 M210.03465189041935 85.77753145246392 C212.0958232033714 83.06900724287752, 218.3279176295322 77.03731328573791, 220.58305220867388 75.03491564472296 M209.23378290887595 87.16435016088548 C214.3340836867523 81.42215963937993, 218.00961085494825 77.26635176301617, 220.9129746838747 74.20472197828926 M116.96060039978836 199.5717908532545 C121.57722136627523 193.31171622337138, 124.47175770984586 192.64612260186158, 127.29600982764157 186.89596668866864 M117.89846098353577 198.858882080072 C123.07210925759054 193.79808464574413, 127.07759516342011 187.84390431189667, 129.2199810405972 186.77227964131555 M161.05775510249478 148.33411755084552 C168.9180346059344 141.66607427245526, 175.73463250747776 132.78498783959407, 188.37365446277326 116.69289959560966 M160.84960688602632 150.1102926469394 C168.47330587451 139.67795488172587, 177.5442382016588 128.78453796871605, 189.12783836739587 115.65702803586007 M216.15838732866726 86.28814162365771 C217.42069990745455 82.17187306549502, 222.15183524475307 80.46217797781277, 223.88258437219932 76.60259326777222 M214.25380579325656 87.83110262518562 C218.26252284138772 83.73473950391012, 221.2636019596408 79.46769014621952, 224.70800422735198 76.88394409111856 M122.93651779076784 199.17874268475222 C125.71771722906738 195.4244268057315, 131.1971177635975 188.66741208459982, 134.28726824840248 185.7518672813971 M122.71612454740676 198.13951590728098 C126.12976210684079 196.59114873072065, 128.3831522533716 192.7665796083963, 133.51799793546587 186.13662071864007 M165.8942292761157 148.59683366944478 C169.60697777076854 146.04036478970428, 174.55638312573808 139.80148165292402, 182.66536215743156 129.20261471684697 M166.26606037314423 151.3704618751532 C172.15905858005797 143.23927629384303, 179.06393187622507 134.95958860348944, 184.07494837616903 128.91111788942507 M185.52212058826817 128.41513110989106 C185.72092198539954 124.9973730766473, 189.53653909050962 121.8943917473707, 195.85464436011793 115.4566536397788 M183.93126405121635 128.92698809839823 C186.975144029037 126.27232587047, 190.2786946313109 122.10293735276952, 194.30930391731192 117.08327936538738 M219.33635398160757 86.81211910062767 C223.2391889838914 85.40277332379262, 222.85492879797795 83.22947606375874, 228.22222949880214 78.7751776978096 M220.83876462214732 86.84936916910318 C223.1025757975528 84.04096180282907, 225.21034934249298 82.06152682354283, 227.83343973285764 77.65018818409594 M129.81716776231596 197.62976104650917 C132.19493090323115 196.45600925930654, 133.94993686126148 193.38289912800911, 138.47324477984117 187.79625999419048 M127.99295171736847 199.6885190067262 C132.1207452956474 195.42648630575653, 135.07717413744507 191.4640118561717, 139.2168205601768 187.4250858461386 M170.3872695768877 151.7483297938904 C174.28772299911836 146.8187792353642, 180.23999600094857 137.57191342311455, 186.145370089275 135.62336280462557 M169.35696489378583 150.38375544354494 C175.03330718395503 144.8842871971422, 179.56005646811354 140.65585060139114, 185.46302493253975 134.3902992173369 M191.3939953858548 128.08108755844898 C192.63703187932666 126.07442877578579, 195.36183526086634 120.04761656619029, 200.87563540816294 116.17129354085934 M190.4137386318134 127.92050619772041 C191.9990390256934 124.3858599377193, 194.9980773349431 122.42276294526172, 201.09299079703536 115.9656215306393 M222.27180076432464 91.37984531917944 C225.3800518757379 88.26275845294002, 226.37733385817668 85.64690746120837, 231.38482330627352 80.41563355543117 M221.9508699138452 91.53207143920105 C223.77671101993408 88.49501636473244, 226.42208705976049 86.82427903220086, 231.21273791701282 81.35807570329395 M134.7151661512964 197.94625084962297 C136.58197522078308 193.2978022771796, 139.68312487407212 191.79074779402453, 144.83485833884666 186.99052804842378 M133.6834566396321 198.87720688369876 C136.5954961184301 196.1212325780385, 139.42375051419467 192.15643203630094, 143.98470098151546 186.2420766186762 M172.07542015707872 156.98968313642325 C173.57451837377744 150.7039892193358, 178.65039496867303 150.05245500584863, 184.23444700331558 141.29542741573934 M170.08142837276694 155.6066409995392 C172.96411481847903 153.23325151068377, 177.43481412827038 148.524528771796, 185.47006246793765 140.81319148757282 M196.56177570675868 127.32215475273954 C198.1590943317302 124.71247881509154, 201.97190088231645 123.0257852228976, 205.30143644952096 115.82780753978122 M195.70737404617034 127.78412277337256 C197.47756129775246 126.56407608995636, 199.46439545524686 122.86114051938945, 205.8266407773813 116.6460008708315 M224.32991292077963 94.36007402393311 C227.3403286911429 91.00333318534057, 228.73084123283664 86.96152081593067, 233.6059228837729 84.04737699699568 M223.375145609127 94.71972863545074 C226.66414498685748 92.32814058459479, 228.7789253179238 90.0791192455804, 232.64026255832385 84.13307350310814 M139.14281663995 199.88669596650004 C140.45505699736725 194.51546038103464, 145.2149981475135 191.32497537943698, 149.6240668450888 187.19710358676966 M139.63694968368824 198.488111906891 C141.7944620619026 196.64498422477263, 144.47172427701074 193.50691868315715, 149.81700423424573 186.27013852225596 M160.64073604983145 174.0931992282246 C160.64073604983145 174.0931992282246, 160.64073604983145 174.0931992282246, 160.64073604983145 174.0931992282246 M160.64073604983145 174.0931992282246 C160.64073604983145 174.0931992282246, 160.64073604983145 174.0931992282246, 160.64073604983145 174.0931992282246 M171.0801654776955 162.29099987464878 C176.594147192351 156.31230602649214, 179.44969024577256 148.86892610667772, 183.43237390610855 145.92286501543254 M170.14231816743788 162.97267601647917 C174.4110975642203 159.35799488970426, 177.10941604893728 154.7543771469218, 184.21279074286 146.78066058949958 M199.3639789744713 129.42706773451485 C205.26586807383111 123.49864841491639, 206.79144170627006 119.21362259548293, 210.1119544118812 116.77178183952518 M200.3615130880864 127.91663382319393 C204.5065995922214 123.92929809041922, 208.09090086487868 119.87715834051171, 211.10382377950512 116.02551304402924 M225.8339995928667 98.94993676503945 C227.87449742459364 95.71889507340516, 229.92910922750266 93.47470832825479, 235.14443434898675 89.33262984891432 M225.35049272752755 99.75364543735938 C228.70153882794065 96.06417484710227, 231.626839578427 92.06282883980235, 234.7423897390945 88.28679744526406 M145.62625994327047 198.53637364561956 C155.5786938961797 184.50094300800384, 168.05251571187952 168.94894833610545, 186.2147858401659 150.7144719557717 M144.95202145406915 198.1336075054138 C153.65184344978775 189.28771414991817, 161.1833094423732 178.54370188386056, 184.07602766991909 152.09353401326743 M205.4133550414176 129.84509707308032 C208.3797438577034 125.71913047703046, 208.96213913015208 123.67728491323062, 215.7117191703409 115.39170346623337 M205.74809015076892 128.86074709420583 C208.9823057533083 125.81474597984642, 210.15798823253863 122.00910817558392, 216.6144636530092 116.38312621575348 M227.16372107458287 104.67680811619074 C227.8153398577229 101.57553950649176, 232.02034833924324 99.01927941142227, 236.76956914712702 93.67064055152272 M226.97311597951992 103.98248882746462 C230.17478899471084 100.20596552274614, 233.0415452607614 96.5410570907352, 235.94331610981732 92.82932131193212 M147.84323891937674 199.37630997402061 C156.15701495323566 188.12965561059875, 166.18741631852598 180.75018036527004, 182.61683171981147 158.01573474127662 M149.84847891259395 198.92125795830447 C161.59356995151592 183.9098288060614, 174.99814255437911 170.22550055207387, 185.27757002893313 158.27357060478124 M211.37216120296048 128.39917252250135 C216.6366339119108 125.1943094902997, 219.38218202149525 119.87566481742337, 222.43960371591558 117.20598565351364 M211.27351040547134 127.8526857812168 C214.2304022841078 125.34642000771534, 215.59264159336644 121.53022322278436, 221.18121041296226 115.48346625074383 M228.69546694694793 108.25307972722847 C232.7333758265137 105.34801522480944, 234.06374233193975 102.78644105687594, 238.42465023145704 97.59687011729996 M229.48779690478048 107.10284297876227 C232.39198101851625 103.31623234470557, 236.28936742425307 100.05484297776886, 238.45428780692822 96.97878607232495 M157.15099463141982 199.87171534500197 C158.2056206495914 192.7155302746782, 163.06149503071586 190.85942307091037, 169.53762166227472 183.12476094032263 M155.40626159989876 199.06841128686457 C159.2648208509841 193.0195973183825, 163.22920494929573 188.9520950189214, 168.63830883547107 183.32873568569764 M171.1064927413127 177.8718049943711 C175.1012372750319 175.3322354266682, 178.3939031307481 170.1076300700862, 183.05174037841775 163.43678389414737 M170.89860998351062 180.14935857632923 C175.9752936794858 175.5975850136575, 179.662079729078 170.57289639172433, 185.37110358495374 164.05811779201278 M216.930130683331 128.73185038012232 C217.6766598758982 124.39654870927117, 220.63150677722032 123.41119912669502, 226.39920022740444 114.863201820521 M215.77827860996058 128.9175214343659 C218.6849285882367 125.5421876272529, 220.99521441605455 123.80401807882323, 227.16811665045668 116.08757155918845 M231.00230839026727 111.83788018634957 C232.53560365125375 107.72288808888922, 237.41771224347337 103.84447008897324, 240.88057675200622 100.6500292671408 M230.74875342398772 111.26842143913242 C233.0180728131998 109.82068276200754, 234.30864936653367 107.72127080413678, 240.15463284416404 101.06026781682866 M156.51588402833707 202.87185497246267 C158.62951564646676 200.1668203933236, 162.26504002630867 197.65151428187394, 165.92280745146488 191.47699433965252 M157.37457415382525 202.38100157266504 C159.87476526850293 200.59681476025926, 161.34343556045354 196.71752514276668, 165.54795427256008 192.01755841132754 M176.44549648511725 177.91019236644462 C181.26482248108866 173.97430513066135, 185.49699713260503 171.44454348680517, 188.7016783549894 164.73097381838818 M178.44408262462562 178.92754029356726 C180.42247273694505 176.038384781408, 182.76235298171713 172.08505435583143, 190.00876985061643 165.37957062322988 M221.96378598358325 128.2354909356038 C227.27496762090422 119.54355793888737, 233.88541739938006 113.19115624849508, 239.68240563894977 106.08310065061495 M221.59585896128075 127.14271542177936 C230.18925148964698 118.44308524125205, 236.04749447958167 110.51592481907866, 240.72800869013432 105.82165735408076 M157.4137228615253 206.88850715364896 C159.9607314128176 204.86814940963075, 161.9430963086673 202.39907138860963, 168.0914514019182 196.7498387074714 M159.2465659155774 206.89196478076994 C160.81472337707908 203.94621713035414, 163.7032250338931 200.85900949352808, 167.04205598920322 196.8934753513082 M186.44742306858544 175.81102086391087 C188.87357380505583 172.8460798943877, 189.32924138327144 171.47005853741217, 194.31061162612494 164.45335914961518 M184.8684592088321 175.26292615701823 C189.96372172578762 172.10887337023348, 192.96874011015217 167.5236550613174, 195.1088847686316 164.71147913497515 M227.89043264431766 126.91319948765371 C232.00773533872547 119.36730754562747, 239.55161846529214 115.4532549752294, 242.2533538264593 110.1514495449066 M227.35539807916433 128.9960255879956 C231.57819079646134 122.25878937884492, 236.28597474285664 117.30568041304439, 242.88704059513586 109.19636568912088 M160.23082692209863 209.5138246058556 C163.16491250540625 207.242678093492, 166.2770615338097 203.2483230562923, 168.77377495862783 200.1782506055159 M161.59536817052185 210.59399343490702 C162.6990266922645 208.056499429634, 165.63232882598717 205.2183393475841, 168.9929651054365 200.67543464394365 M190.9574331977342 176.88851378463494 C190.87418398588454 175.91543724576266, 193.60597533759045 172.92027964166954, 199.59978276077825 167.82851491637473 M189.23618471430075 177.12571775892005 C194.12123011793926 172.4852659054613, 196.72452622314123 168.83014676922357, 198.6903482137725 166.16032226226972 M232.87334494187445 125.58413371131628 C238.0211626563266 124.8439977852828, 238.5199511846352 119.23381506985376, 245.5241940751368 114.78883642134755 M233.465144525438 126.36730318865378 C237.19115084859885 122.4581741405661, 241.04536026568215 119.86442930627311, 245.51147458974737 113.56066744070274 M163.62943974142433 214.0704312472802 C165.2135972566469 211.70360093046605, 166.89292731540957 207.7363077993741, 172.08991580619295 205.19457549295294 M163.16692994761968 213.22988536674427 C165.2586019882486 212.15581700014937, 166.77234092910626 209.39083897168072, 170.90101018193795 204.0776596564747 M193.28963087760454 178.61433383426962 C197.70130763324184 174.9634973242676, 198.86374538690882 172.32188526257164, 201.17788850228786 168.6081040123582 M194.318507541063 178.0872665567421 C196.23990501595623 175.4717027476979, 198.62614561196287 174.09659861798298, 202.43751514183472 169.43842050196918 M234.63168647729 131.49419346079645 C237.15354253324816 127.6980444996192, 242.53810998610413 123.8429614059516, 245.8677593264909 118.49949374243087 M234.8042017219113 131.75577036253623 C236.2763880693822 128.68610669463988, 240.02510504340722 124.86049702730013, 246.66545782480588 118.93112349464336 M166.90617697175864 215.32664045219596 C167.96454488546954 213.95245189114544, 170.99193537663575 208.9002308229933, 174.51144795629753 206.17819163396214 M166.23088265872724 216.43894499544277 C169.27872074765463 213.95216163129447, 171.8240603660788 210.104396298011, 175.06214313590692 206.28594314399058 M198.4787533402187 178.82053465956153 C198.3061738134465 178.45540973600833, 200.4130291244854 176.09028442765157, 206.07360757769604 170.56671157068044 M198.14175523140594 179.59968126647118 C199.88288453095842 177.47746648928168, 201.6053113889539 175.25380015547245, 205.82465331143246 171.47430489866977 M235.51525426012748 138.24053568677462 C236.73844920890684 133.23158122548273, 241.90013376625112 130.28195624265166, 244.58712087296956 123.41876980365561 M234.575024807551 138.54425815799365 C237.59366304986995 134.27005492710256, 241.55207152453355 128.88796999140746, 246.34491693354326 124.07327541955209 M169.6625351265002 219.84788171823624 C172.05236772174894 216.6323283283472, 174.92543002325442 211.76579411153529, 177.30134706740068 208.78115785182217 M169.38160116983366 218.45448139894944 C171.29399891858884 216.40487910392093, 173.18864752927146 214.0570768199904, 177.64197349139738 208.99515761952566 M199.68912037861526 183.13099469415926 C202.40003426693062 180.8875815237357, 203.482739484375 179.11380064380535, 207.91590472840463 175.42454217834796 M200.61246958014837 182.96428783905122 C202.98493577309503 180.3141660447479, 206.0749567975684 176.53253366211345, 207.63660298130355 174.40923610301587 M232.87136513386392 145.8789720231097 C239.00597224305264 140.00439805086165, 239.90409424656588 136.85464035384297, 245.68420613661962 129.7208126000787 M233.55050317317128 144.16971243971193 C238.22918609671987 139.88673686987465, 240.8950577068084 136.7368532434237, 245.77482016299098 129.98520656434707 M174.0247186122212 220.68309990862775 C176.33367791353 217.772216934547, 178.42810999184735 213.62778720145155, 180.5831351444013 211.8855066841692 M174.1678437882704 219.79101563789425 C174.6942001347861 218.1826240965335, 177.01857643351843 216.91857643249006, 181.40510976368134 211.980500397228 M201.8551999726737 188.38848958251506 C203.98548056819314 184.46683506505792, 205.06095349442217 183.21863298120257, 211.6343996335883 176.77285215503207 M201.2816644336885 188.13156249770086 C204.08573631872449 186.17555689396517, 205.82863330141845 183.15268392384328, 211.02032031864056 177.71024645447167 M234.4780479805479 152.16039498774845 C238.5926270872948 145.41566181388208, 240.21916121097183 143.95291727593082, 247.98685936856083 136.30067464080238 M234.56408601933487 151.27186768066392 C239.5229259222309 145.1148663624241, 242.6552347775939 139.40456936138963, 247.50658717173863 136.33511073356956 M178.50718927817616 222.25691629136563 C181.22187561511748 219.3176249066264, 181.9430952246186 214.61548989217658, 185.08335520004445 213.29532259884166 M177.60779423788347 221.83820948575837 C179.6745317872762 218.36614170001585, 182.7993644662573 215.53304182272203, 186.53426023681956 211.75961562510176 M203.76459620603737 191.3796031728408 C206.2774886529889 190.27641951352706, 209.6273149474286 186.3092081162897, 213.43844995447193 180.76115389432616 M203.43379181957695 192.60645621667348 C207.2389298033397 188.09911547823353, 209.58597270055765 185.0241289277656, 212.05861455244002 181.92669553890752 M235.21658780968167 158.55868109819806 C237.18810500342877 154.68861433587176, 242.38355997880558 147.1332150066447, 246.87155959896478 142.68718194284753 M234.20820910286372 157.54264028525745 C237.980199241352 152.53381929448307, 240.84674007118662 149.30895958286166, 245.80773310563706 143.5303339531792 M182.93040553825574 220.39686179567508 C189.35211763857785 213.40777717090603, 197.85586632002472 200.9241760091062, 215.32067430783812 185.58320119319873 M181.51436514259777 221.57162036884577 C193.63393947669567 209.62488795102792, 205.06282774424395 197.12506304585574, 214.865449820228 185.11281125400177 M234.3529602073516 161.27797017802766 C238.69537921972253 156.91808575397386, 239.10772715181068 153.3254064238452, 248.51778583324042 149.44547774365546 M233.83065868971696 163.4967248284636 C236.66099931114317 158.79697769979893, 239.814454185121 156.24881733898093, 246.90530072262933 148.93896619866044 M187.65301642769973 220.28238459989072 C198.67768558066993 209.77799490521687, 210.77842526408284 195.81748563973275, 219.5628082781607 187.88917360370246 M188.71724246000417 221.61912833229513 C194.87475781121907 214.3188794074701, 200.79003127554455 207.73375195688138, 219.738363651481 185.71032094137644 M233.595218621387 169.19511314839295 C237.97742002095407 165.52899354642375, 242.48320815681222 159.062074212806, 245.57523051208244 155.13727659305073 M234.13659889523893 168.0919908041457 C236.1635503344146 165.13254651450524, 240.15321515027222 163.05645632816754, 247.14409959158726 154.377596407265 M191.8765923092484 219.69275261203657 C199.86469594188446 212.4206015788596, 206.0067890015641 205.64465842353292, 212.1957734085805 196.1118577892481 M192.89875988304118 221.1406723362381 C200.98236119612974 213.11063613795332, 206.94500704739485 205.81180792241543, 214.98002921519733 197.3996856850642 M214.17472160557406 198.95717319139436 C218.28623215277756 193.19034605835571, 220.71458041078122 190.71446336446422, 225.25204971316268 187.2578342214974 M214.84317532641802 198.2435174225813 C217.07618684831843 194.38250447424085, 220.1977716968854 189.82957044777177, 224.17393254112292 185.64152051380648 M234.86444967103515 173.9985912583351 C235.7311642150113 169.89460574176496, 240.39879252300233 170.32512591169635, 247.6501785778037 160.65378351900645 M235.22110421758552 173.74407533514784 C238.29657685949033 171.49224159233404, 241.4137926081599 166.48330566686204, 245.7681841433877 160.55988914063036 M218.24579451778098 197.159312272359 C221.42812425031673 197.019409000391, 223.2269374877288 191.85360073530285, 230.72684569152588 187.00718868523128 M219.7149652279555 197.65578564645404 C223.49851691294114 193.7885475863441, 227.0557385670945 188.88702031845853, 228.85855562943425 186.9240044543289 M232.48875456628778 182.18578860984675 C236.51928837693274 179.57980218372697, 240.56689014595236 172.89417451650942, 245.93805730757103 165.65698669454727 M233.45624721269044 180.11407197791291 C239.7651554241513 175.4445939621598, 244.6367127334681 169.90668936124712, 245.86769135006173 165.99145206972318 M223.77522146083854 198.2720676222442 C231.02328740911503 191.62930180121504, 236.95588668624345 186.16309871433288, 244.67362081740143 173.8150570490522 M224.94597327814674 197.37862235283256 C230.67302040667818 190.6370682040105, 236.83639724357047 184.72256422514508, 246.73339335538552 173.92175261520762 M231.04443741223096 197.63226214774252 C237.25277109890388 190.9706180234126, 243.741440244733 182.55798422557925, 247.29326093500038 177.37911589545917 M230.3839390898427 198.49855503682738 C232.74862127125562 194.54769833270464, 237.76218033347658 190.10795932231065, 247.42476537439197 179.03730977406315 M235.53317501889245 198.31202259441525 C239.84399688738563 193.15006741803845, 243.4114234380052 186.838900317775, 247.49659523927528 185.5367102578853 M235.55610016714346 197.33672444713633 C239.06947505079347 193.98201313475496, 244.40452927542358 188.43214884445027, 247.16513882332538 184.55946386215115"
      stroke="#3500d3"
      stroke-width="0.5"
      fill="none"></path>
    <path
      d="M246.85955396111768 116.77773121305934 C243.54433616450783 111.28251371597902, 241.36559727966403 102.32581512811515, 233.0459221599088 82.15918932066111 M246.09495039443 117.03789161067579 C241.43195608494355 105.74953756333126, 237.20957705340052 94.84066097508425, 232.31377053778775 82.0250061512898 M231.57 82.78 C229.49783307518692 76.83273267902089, 224.3470589066713 75.62089637248911, 219.22781374734424 72.86254239641572 M231.42913520725713 84.62300394589829 C228.01458210372408 79.4177983147058, 225.1872095836023 75.46858864997989, 220.64427659290598 76.1863489596044 M217.50734078400538 75.01423792961441 C208.17379366846524 72.37697390502967, 195.80174152714244 75.81926662224586, 183.69317905633096 73.01535093840518 M218.52695604187446 73.53591056102469 C205.13483295194467 74.71650619793733, 192.388091331586 74.69624998541583, 182.29571681705832 73.33336522941757 M182.1883625203449 74.81019547418272 C181.1100864539302 70.81633223328085, 182.16643897828894 68.74100311183511, 181.2611516838323 63.177017273777466 M181.69801646457546 74.02622084514552 C182.17847230921785 71.35786177828784, 181.70216818737904 69.23005020118147, 182.06815822787544 64.34175059473199 M182 64 C181.66743244498196 58.754510544246976, 178.16292655589407 59.57072393318599, 177.98088346436967 59.45498655073953 M183.2974171672804 62.234157192420135 C181.6235993053774 61.721463318609494, 179.5016216303731 57.770476885397414, 175.37558785828318 60.05385128377813 M175.79867390700008 57.07264654463373 C119.5174514960619 60.60103451358231, 65.45508021853732 57.37346361980677, 22.27965869666605 56.498096967995785 M176.02086268514464 58.5512974014281 C141.9611118813363 58.40964253908788, 108.70435973964868 58.025754595439494, 23.178399313262062 58.84468642838814 M24 58 C16.60992023672348 58.90693269156287, 9.078873833457255 63.4975107892602, 9.679449829673125 72.41937785914257 M25.84120034876416 59.8493114956468 C18.019947389320137 60.01259873395871, 8.74814430241126 64.88794340483645, 8.125678677999204 70.20513529341946 M8.382221363670972 72.99391861686334 C11.916435357887924 108.94520386884278, 9.536089983643395 144.609226973202, 8.663891940797946 182.36846353851476 M10.232779997156756 72.87299208496148 C10.077962211019024 114.98203382809388, 10.039152501173495 157.45663715749913, 10.463183157964131 183.98105637203028 M10 184 C9.590686031063758 192.773893008869, 15.594289304605987 199.15344542193216, 25.819644068715085 199.83662008573558 M10.92372615296079 182.52138058016263 C11.16941336290053 190.6429527345854, 17.096657682468813 198.76003089899191, 24.005783089216305 196.41926904469716 M22.369594946776818 196.51878556403935 C28.40659481050602 198.22106120239394, 31.97978474919308 199.06012051773607, 40.81021115426299 197.71346132561075 M24.307975651182126 197.72988084589198 C27.595635082769032 198.23948249070244, 32.04204873455071 198.6537220530889, 42.541216072925664 198.74553394430023 M42.6 198 C46.06010643035467 220.65875202949175, 73.51652268191472 230.1316189787263, 92.00179501379021 216.27687152933638 M41.882826892564175 198.38449782052936 C47.89746474406015 218.913826209639, 74.33402069846872 228.13984832984747, 90.0489475744849 215.71357989319728 M91.87010637222122 214.50625994584556 C97.63231573923593 212.16682482141374, 99.30007590525017 205.72425683039071, 100.96246147024989 199.16437603906638 M92.19626396675753 213.31539273486825 C97.25527206830888 211.24795188407188, 100.85104399347406 202.19772666051492, 99.2857884065154 196.77995928515307 M101.09015249064372 198.59188482854032 C121.24237334078165 196.18187795577805, 141.531189115188 197.5552186974252, 154.87696257338766 197.15907843505218 M102.33667001404245 197.39340402017962 C113.82246761880445 198.10094550585313, 124.65583229619845 197.23397459421665, 154.59698841046787 198.31927336881984 M154.60000000000002 198 C157.92141069203805 222.07445729474526, 188.20592767113396 229.81606542972963, 205.716944908794 214.92291012984748 M154.1860905902785 196.08763879718657 C161.0878183147212 222.4728583379107, 185.5624026737993 227.5835169130605, 202.383759482405 214.145144586494 M203.87010637222124 214.50625994584556 C210.28824015101833 209.11259299218128, 213.33461049957316 203.11710990591484, 212.66961379834606 199.77883178761394 M203.05393981355735 214.68757152007072 C209.243186665334 208.0677456137532, 210.81622844057887 205.67949598350665, 212.60132754520282 197.22632080695897 M213.8963839251822 196.38111127366543 C222.0400354172047 196.51553233365894, 226.34853038846134 199.24220109525638, 233.1728610862121 196.31708675032417 M212.68699874577263 198.03168754342764 C219.38521683176418 197.39886182279872, 225.92618574196746 197.33606978905047, 232.72416961400378 197.17683910061928 M232 198 C238.79825227195877 196.7123879222626, 246.00473781285 189.77424413335672, 246.16606970084325 184.6279207099802 M230.0059492636428 198.95545566072582 C240.9138575678881 197.50012878134388, 247.67773577798314 193.72195281597175, 246.85474399787137 181.7857798818702 M245.72590253281282 183.22338617258427 C246.70659852481094 168.86792667036704, 246.05334120661215 154.5993296026649, 246.3612999036292 119.73245489011326 M245.483426212743 183.848475390274 C246.65001079001928 163.89438818519602, 244.9526756555831 141.99948275430097, 245.32262573248366 119.71637300455785 M246 120 C246.1358593125532 117.42916813582819, 245.33120903443933 118.0301406476337, 246.12018559435722 116.03028319750705 M244.46383387201138 120.59757034716029 C246.04641853075032 120.9327650039785, 247.30752509411383 117.74787467778097, 243.45063051598976 119.2093394794257 M180.60058053086405 86.57771435227238 C190.65531278654268 86.47544707749482, 198.3478532660442 84.80151667648376, 218.19410187465536 86.94627949941322 M182.96798360272962 85.42918019726538 C189.43119485827157 85.78078784693605, 197.81792113222323 84.87464661056248, 217.71989582367286 85.48051647894113 M218.57999999999998 86 C219.60794135413997 85.25323569861052, 219.72367780045644 86.80311667695057, 220.68288923272166 87.88903313764133 M220.11428272318258 85.84244919689712 C220.07671924778478 87.40474431673424, 222.17958377277236 87.15403017746655, 218.72356965775577 87.77391008047606 M219.56061693024535 85.52606378091916 C222.54301532056505 95.98225925981488, 225.4438121914635 104.13526207763856, 232.71429814375807 113.80432236410564 M220.27826030325127 87.37510855064956 C224.25154138854415 97.06913835967966, 227.705105765036 106.59562731402625, 230.9491446632546 113.41148015864766 M232.48021848419089 113.89040979449 C214.5209149175331 115.0992198531294, 199.4824433524003 112.53762241736935, 182.91622629966017 114.57583778994177 M231.5172120962565 113.965131569624 C212.61968211296357 114.52612287124262, 191.31389445304782 114.93098866527582, 182.40112496013475 113.63306578833546 M180.38870867923202 115.22408082281454 C181.85180740402998 102.56860799997942, 181.91918335026403 92.26217088157338, 183.4100148986304 87.8114900971001 M181.76795949293017 113.9853451435202 C181.95090708064504 105.79853786342727, 182.06267240582008 98.3344743297616, 182.02255675882137 85.87319425032905 M22 72 C23.846536449987696 70.21368199614872, 24.5201430970479 70.97175171520232, 22.209068716088062 69.51164389048981 M20.792433462087118 70.30268126698103 C19.857879261047046 70.49672478896352, 23.577043056101342 72.2400366392242, 22.70465104985477 69.92275952727012 M23.48133788898353 71.22045091413389 C54.279780738845446 69.11488384752488, 84.77464297249973 70.97646800519857, 168.00721773162732 70.6669289689269 M24.045159830916216 69.71339321461231 C80.64604464950368 68.74974512805476, 135.45216981464722 68.37299471408329, 169.74290662813647 70.81397451458383 M170.14331893755994 71.20776651473413 C169.17086248079724 90.3014137141829, 170.27273010762025 109.29187735110416, 170.7127737019533 139.84529291135087 M169.52120116633543 69.78214959342296 C170.81390974328767 88.37929232713422, 169.69867660421673 105.66827953412846, 170.90835130837272 138.90042664383532 M170.57266290343037 138.5532457080337 C120.43335564348048 137.76251604081602, 71.7728039271695 136.42967483617633, 22.855264622560885 136.9369090566964 M169.2116579073806 137.1433535897675 C119.97040496831353 139.91478479880053, 67.7512248047928 138.7639470136558, 21.50578738326247 138.63986321482858 M23.352544793372445 136.17721070521372 C21.522037167447948 123.44638184451816, 20.764383505296223 106.01017487210933, 22.279395338380382 73.44565387586806 M22.890861753997775 138.02161271521 C21.094504368786065 122.44101451826404, 20.708247011683017 106.17070103576013, 22.431848341160023 72.56691956011416 M72 210 C58.39799883215269 210.4015526441723, 51.45696180823991 194.43758594242905, 58.01280987908574 184.62023438765038 M71.16878505146967 210.85732060684256 C58.9408157206555 208.69030115695946, 47.654563228647184 195.12298551684003, 54.158873013197564 181.25250213961493 M56.411542731880104 183 C62.721120879163905 169.6098957839553, 80.05625783218342 170.51755958666868, 86.17118599987536 182.353588560961 M56.003548159144 182.76219532681773 C65.18873354000904 172.65037472927511, 79.88788370809111 172.171746592034, 86.48180443235776 183.8423288117241 M87.5884572681199 183 C89.36075067197844 184.98866631623318, 88.73732230678027 187.77110343017955, 91.1170846583544 191.4001647827085 M87.12724061062701 183.3961837853669 C89.21665833692671 185.05711573517627, 88.5226800689224 188.04353344271237, 89.1767713591821 193.60796078730056 M90 192 C88.38963426984239 202.5110893799665, 81.90747498191692 209.3863093873644, 70.12693760998629 209.39426517955033 M91.3601035818728 192.46051124259176 C92.17795811517905 203.51750112839198, 80.20839807454875 209.01315409212373, 74.27256524982599 208.319519517011 M156.21138509993241 186.87898708175885 C139.76491370523496 186.00599070191987, 122.68761367376601 185.16036099635664, 101.60391538019385 185.21782633856395 M154.45807557031245 185.0210898679089 C135.67338594073698 185.18448271225256, 114.9707821683736 186.68654683988106, 100.7460586792897 185.29299973233654 M101.39999999999999 186 C98.31419899075748 162.0873616962056, 68.75607685069129 153.21499428270738, 53.08259171919947 168.77530180784768 M103.12314404674063 185.74733054737663 C97.90789430653012 164.50897453406895, 68.05821933726376 151.9164157344466, 52.15204199993106 167.90351214262947 M52.1298936277788 169.49374005415447 C45.80212025207648 174.29193438228995, 41.915824408911575 179.63528006583684, 42.977405961334696 186.10158115565085 M53.180393318381626 170.48937222511472 C49.378406952331645 176.0512959183277, 44.91662753023429 177.60957547434566, 43.65101875969208 186.30565277020366 M42.33411074445766 184.96465215985845 C38.42043854217463 184.76053529677378, 33.574805618960795 185.99921096247851, 25.33702042130898 186.9122704801307 M43.14562914172036 185.29678170657374 C36.42412645984514 185.5910792667225, 32.38742669962473 185.49349397405098, 24.336452538032745 185.11084377566436 M24 186 C23.97528177282809 184.06065985762646, 23.49901490112956 184.9365986806238, 22.80520252948583 182.87354112043366 M22.94859103560001 184.78527330569017 C22.2709669664676 188.23417660020462, 22.022751638670087 184.83317768482814, 24.123105844390395 183.48860330788776 M20.347071773418406 183.73694744609773 C20.667186255950067 172.75010431250055, 23.111001350812906 166.47129588028906, 23.144109671712656 149.10241531673336 M22.2571588372769 184.40577109649513 C20.960198966886182 173.9869997784333, 22.051630758998126 164.5163121332778, 22.32771827421539 150.2546743613255 M21.530269831160073 148.79197075578836 C76.00784404543319 149.04038397387706, 127.38010217950405 148.9861527349656, 169.81073885117746 151.9992092445476 M22.531714580509416 150.22107308625823 C62.25591890771839 149.59755584832664, 100.40769466864518 149.323468539013, 170.82843400637248 149.200587340417 M170.86730639072573 148.59250431235995 C171.35619975592897 155.0165704084636, 170.9554043436407 160.0914572682693, 169.80238628473816 164.18243792062663 M169.82836311027154 150.4458763974244 C170.85103767881446 155.5719626556942, 170.00488387336495 160.03068942437994, 170.72867511527042 165.80853979302015 M170 165.48 C163.7404879316894 168.26023915934195, 157.97324406247847 176.57842543087864, 155.22385078002367 186.77476340565462 M171.12015936505816 164.9894818785539 C163.4062915073225 171.63724190052838, 157.83475418047684 175.8866533155082, 155.86456140855262 184.39464205573452 M184 210 C171.25154300293164 210.04888767610169, 163.24281532263552 193.17852555174707, 166.63867980372743 183.6021397684133 M184.98242391104404 210.66835123168767 C169.25126093428597 210.92418443159283, 159.68448211647294 196.93944342265314, 166.68233517009384 183.6241909297312 M168.4115427318801 183 C176.4246668032376 169.07458507648786, 193.63225058290863 171.07030641762356, 200.89566682624823 184.9941610245019 M167.47310311257698 183.1466676274731 C177.08603429987164 170.39393320454815, 192.5528011383485 171.5156417755189, 200.59951994545077 185.22657082607384 M199.5884572681199 183 C202.28500933630744 183.9968385140731, 203.06902126171207 187.31668359044062, 200.86207619608825 190.17052060638912 M198.2936445724661 181.34859091988557 C199.55438806872937 187.7754856959404, 202.29252589667905 190.0972634665821, 202.10529208500347 189.73844711993686 M202 192 C203.64520287969117 200.19850407651484, 193.03505323650208 211.66357170800492, 184.29234780185809 211.89935478342278 M203.34763120541803 193.3571567136376 C202.7766587370684 200.18286384504458, 196.14456063577256 210.12942094703297, 183.14345594047523 207.72283740520322 M234 184 C234.05846586794968 183.53054898101598, 233.44492539738363 186.54553373973687, 231.69131329968243 184.50558032717325 M234.5784409384311 184.14895131886635 C231.70643436478503 186.11383656707633, 234.03414291229137 183.8008857566063, 232.19540064199052 185.08043206082405 M232.8706347459871 186.23456515652572 C226.70715068086443 185.4245173473426, 219.42726859541304 187.82023534201866, 213.48613371356944 184.67166527589424 M232.75132099282374 185.27941140955048 C225.9994334740132 185.33950107888194, 219.60784236310957 186.52751009645422, 213.70787903170597 185.63114761246175 M213.4 186 C212.31713048392626 174.03901152994874, 197.70207214130002 163.92963574130965, 183.33204111855596 163.42242944882685 M212.32111855065514 184.46160453005524 C209.31134921596612 173.42473106146508, 200.41789604222106 164.12238133936702, 183.1429213693089 164.09519185195106 M184 162 C183.9916642774442 161.41971771792188, 182.87344828079804 163.27648164102035, 180.26254802461918 160.7343384983346 M184.78786608289036 162.86274615845878 C183.2224632996141 164.25034038278736, 181.8063850340718 160.86632800943693, 180.7503648204077 162.98748556130408 M183.5529432118461 161.83970088927944 C180.7664884841393 150.68117797583008, 181.50576684217722 137.12737395867566, 181.40442200693778 124.00057422832585 M181.09912973771353 162.1364113167721 C182.6495862094782 148.49128949814911, 181.79023605846885 136.23349111853935, 182.31274874295016 126.4508103398414 M181.43207942679754 125.78738272453941 C198.4699960445464 126.66029029997301, 216.9083931357531 125.06471253532276, 234.08354548430856 126.69790415442628 M182.8185049001407 126.56998933033692 C191.70160609879844 125.56311823384047, 202.71926264713014 125.64643356611475, 233.7290130554963 125.69163832335587 M234.6458271427451 125.86402755093233 C232.33575707871935 143.1572907517812, 234.9274020967146 159.76629130420986, 232.5928761401012 185.64781912527374 M233.391579994605 125.77862943565827 C233.3462544541347 139.6727217979995, 234.80725146184204 152.98449639326094, 234.24511779075402 184.94756401492714"
      stroke="#3500d3"
      stroke-width="1"
      fill="none"></path>
  </g>
</svg>
