<svg viewBox="0 0 100 100" xmlns="http://www.w3.org/2000/svg">
    <g>
        <path
            d="M-8.633267538185972 23.984038743515363 C0.8098631409370496 19.43886901708397, 8.827079753838937 9.692313769071198, 27.176900428396078 2.097155341320926 M-6.685301408666928 24.257076757353595 C0.8419640869312444 18.994419380124654, 9.619640925019162 12.417497559972508, 26.0087337323021 -0.477431811018592 M6.486584163868497 35.74379052608048 C10.149996813307848 29.196940398911085, 17.833621018755295 20.412852734669727, 27.33959398851952 -0.5220039399328886 M6.736473717393051 36.16242870981579 C15.3459498094359 23.07237225142078, 23.240946869187926 7.769714699587986, 26.55245323260537 -0.5934326719480811 M-8.758820787516289 52.54363579405199 C9.466466930882817 38.63400043492726, 27.86096592407986 24.31258165347128, 53.638446109131635 -0.07481161919993085 M-6.696058675159567 54.13356136539678 C4.952161332280044 43.13045132287907, 19.196867949567213 31.32947170561044, 52.782983797364594 -0.09606292606902045 M6.093380310290134 68.54106991914641 C23.153295965504128 44.388691749025554, 39.65837237950538 21.203546948714823, 51.48185332281953 -0.9651996907369487 M8.408095219821309 68.14446789854746 C16.952390398832677 52.421134074654866, 26.87962521792369 39.12353206296706, 52.96751712518251 -0.487795827403783 M-8.374631300030199 82.8948817093347 C11.301236250190344 66.8554877313869, 27.393516224790318 48.923974917823166, 78.1511852633181 0.2934763496230772 M-7.48665068896666 84.60695835747316 C17.034547435216943 63.13645611807567, 40.25618805918819 38.90139904358477, 79.60656957830963 -0.8502546940509745 M7.569538334153177 97.30553528633342 C32.08790404480328 65.77301575000382, 55.559285249432065 32.01717723658176, 77.76148777119545 1.2058340971778563 M7.344681779622616 97.25479154162483 C27.754607619260984 69.85770446129936, 48.91486308152418 41.63125547707555, 78.5509352883297 0.6269336845214895 M9.928313546247008 93.46321038165313 C35.325812733861376 72.57989597034077, 60.02541827660015 47.94980584583297, 100.20913046927191 8.34387302809936 M11.163702750011506 92.93546529774737 C32.164586662024824 73.32917881178787, 53.49206048902715 50.917111471049026, 101.10558373157866 7.039297837219955 M25.902195857432336 106.13449551993115 C44.8197733324247 79.71169438812211, 65.21523338545236 53.38701586418632, 99.75063491196372 8.304826204120936 M26.85295109689668 106.04065970321251 C55.79869223979629 67.20199331740707, 86.33876621359498 25.96788594979259, 100.76473787848838 6.069123316012146 M36.3805020107362 92.98915597376715 C58.795122505663116 74.0779245314329, 80.67625797114027 55.82577943539458, 100.80954081247089 35.892045060325444 M38.5628824793208 94.67675502085429 C59.29936709108364 75.21543226538938, 79.77179902737814 57.11391257682329, 100.17499042077449 37.510087483715296 M53.89996613954849 108.44035978269947 C63.588340444641986 90.61559339732456, 73.4615512862577 74.85826368730557, 101.52467883060214 36.31931827418882 M52.826721509189376 107.8488077179454 C71.24739349718445 79.79180007976835, 88.88156848121784 54.38938089045627, 100.83982655926135 37.81532838303971 M63.461085555791804 93.77403558687728 C71.84729611858812 85.96908888629227, 83.14449620072969 82.80613591901452, 100.34523100186128 68.3336725979226 M63.53305753944064 93.9336582998694 C71.82267671912655 88.28815850247182, 80.16654083555223 81.57314160696095, 100.87093443296838 66.56399556893132 M79.62012564285604 108.19632017583889 C86.71578740436208 93.22378829201709, 92.9425684914736 78.46223226393201, 99.55455923605699 65.81686545900277 M78.17409955698011 107.071128858899 C87.13395569367637 93.04324580048495, 95.86482529548425 77.3883464263333, 100.6682836177199 66.40649270910046 M91.04310609488645 93.75491740092009 C92.40421348667695 94.21484727639054, 95.93095069629729 95.02467904095245, 99.60723048760244 97.45420879166485 M90.78878353116328 94.10686774728617 C94.09139771454966 95.3888290379849, 98.26603502979363 96.75883431039806, 100.02806348272958 97.77934218665641 M106.85587454502112 106.42467055866666 C103.14534120506981 103.50363756626578, 101.46411773982338 99.22076980474189, 99.66058050130641 98.13313519916666 M105.52414347419753 106.53341814777193 C105.02960965210535 104.63252986042157, 104.09981261549271 103.23676789867167, 100.2330227701086 98.13465541611598"
            stroke="#000000" stroke-width="5" fill="none"></path>
        <path
            d="M0.8623282518237829 1.4470437858253717 C18.269916601479057 -2.6978624118492007, 39.95334380306304 0.888679419644177, 101.87542976997793 0.8704266045242548 M0.10738078225404024 -0.622259815223515 C32.70959429722279 0.4252989888191223, 63.34113997314125 -0.07062342762947083, 99.04390568006784 0.37108255457133055 M98.0782824959606 0.774362513795495 C99.39886701200157 36.161016937345266, 101.13491028640419 71.96583275310695, 99.7935534324497 98.61773777939379 M100.80014151800424 -0.36878441739827394 C99.94351900555193 33.116690778173506, 99.95537207461894 67.37793330010027, 99.49570438731462 99.1464800639078 M101.27046926878393 98.82207346893847 C72.91677019372582 100.2379118045792, 44.822186337783926 100.86635045614094, -1.0323662552982569 98.64849049784243 M99.43265769351274 99.81952355336398 C63.797337672673166 100.26594968698919, 27.37646944168955 100.59298144839704, 0.3748378800228238 99.79930658172816 M1.0140228476375341 99.89687831141055 C-0.9936199383810163 64.99955775588751, 0.5117447776719928 33.17970035038887, 1.4474143590778112 0.13852704502642155 M-0.6278526736423373 100.92359061073512 C0.18787258863449097 75.68568825442344, -0.051786869764328 50.88901953306049, 0.9518444882705808 0.4852933092042804"
            stroke="#000000" stroke-width="0" fill="none"></path>
    </g>
</svg>